G75*
%MOIN*%
%OFA0B0*%
%FSLAX25Y25*%
%IPPOS*%
%LPD*%
%AMOC8*
5,1,8,0,0,1.08239X$1,22.5*
%
%ADD10C,0.00500*%
%ADD11C,0.00600*%
%ADD12C,0.00400*%
%ADD13C,0.00787*%
%ADD14C,0.01575*%
%ADD15C,0.00800*%
%ADD16C,0.01000*%
%ADD17R,0.06200X0.02400*%
%ADD18R,0.00787X0.00787*%
%ADD19C,0.00100*%
%ADD20C,0.00300*%
D10*
X0088950Y0028767D02*
X0090451Y0030269D01*
X0091953Y0028767D01*
X0091953Y0033271D01*
X0093554Y0031770D02*
X0095055Y0033271D01*
X0096556Y0031770D01*
X0096556Y0028767D01*
X0096556Y0031019D02*
X0093554Y0031019D01*
X0093554Y0031770D02*
X0093554Y0028767D01*
X0099659Y0028767D02*
X0099659Y0033271D01*
X0098158Y0033271D02*
X0101160Y0033271D01*
X0102762Y0033271D02*
X0102762Y0028767D01*
X0105764Y0028767D01*
X0107366Y0028767D02*
X0107366Y0033271D01*
X0109618Y0033271D01*
X0110368Y0032521D01*
X0110368Y0031019D01*
X0109618Y0030269D01*
X0107366Y0030269D01*
X0108867Y0030269D02*
X0110368Y0028767D01*
X0111970Y0028017D02*
X0114972Y0028017D01*
X0116574Y0028767D02*
X0119576Y0028767D01*
X0121177Y0028767D02*
X0124180Y0028767D01*
X0125781Y0030269D02*
X0127283Y0028767D01*
X0128784Y0030269D01*
X0128784Y0033271D01*
X0130385Y0033271D02*
X0130385Y0028767D01*
X0133388Y0028767D01*
X0134989Y0028767D02*
X0137992Y0028767D01*
X0134989Y0028767D02*
X0134989Y0033271D01*
X0133388Y0033271D02*
X0130385Y0033271D01*
X0130385Y0031019D02*
X0131887Y0031019D01*
X0125781Y0030269D02*
X0125781Y0033271D01*
X0124180Y0033271D02*
X0121177Y0033271D01*
X0121177Y0028767D01*
X0121177Y0031019D02*
X0122679Y0031019D01*
X0116574Y0033271D02*
X0116574Y0028767D01*
X0105764Y0033271D02*
X0102762Y0033271D01*
X0102762Y0031019D02*
X0104263Y0031019D01*
X0088950Y0033271D02*
X0088950Y0028767D01*
X0115297Y0055017D02*
X0116047Y0055017D01*
X0116798Y0055768D01*
X0116798Y0057269D01*
X0117549Y0058020D01*
X0118299Y0058020D01*
X0119050Y0057269D01*
X0119050Y0055768D01*
X0118299Y0055017D01*
X0115297Y0055017D02*
X0114546Y0055768D01*
X0114546Y0057269D01*
X0115297Y0058020D01*
X0114546Y0059621D02*
X0119050Y0059621D01*
X0117549Y0061123D01*
X0119050Y0062624D01*
X0114546Y0062624D01*
X0114546Y0064225D02*
X0114546Y0066477D01*
X0115297Y0067228D01*
X0118299Y0067228D01*
X0119050Y0066477D01*
X0119050Y0064225D01*
X0114546Y0064225D01*
X0117613Y0084749D02*
X0117613Y0086250D01*
X0117613Y0085500D02*
X0122117Y0085500D01*
X0122117Y0086250D02*
X0122117Y0084749D01*
X0121366Y0087818D02*
X0118363Y0087818D01*
X0117613Y0088569D01*
X0117613Y0090070D01*
X0118363Y0090821D01*
X0119114Y0092422D02*
X0117613Y0093923D01*
X0122117Y0093923D01*
X0122117Y0092422D02*
X0122117Y0095425D01*
X0121366Y0090821D02*
X0122117Y0090070D01*
X0122117Y0088569D01*
X0121366Y0087818D01*
X0126500Y0111363D02*
X0126500Y0180067D01*
X0175465Y0180067D01*
X0175465Y0111363D01*
X0126500Y0111363D01*
X0153946Y0074016D02*
X0153946Y0071013D01*
X0153946Y0072515D02*
X0158450Y0072515D01*
X0158450Y0069412D02*
X0156949Y0067911D01*
X0156949Y0068661D02*
X0156949Y0066410D01*
X0158450Y0066410D02*
X0153946Y0066410D01*
X0153946Y0068661D01*
X0154697Y0069412D01*
X0156198Y0069412D01*
X0156949Y0068661D01*
X0156198Y0064808D02*
X0156198Y0061806D01*
X0155447Y0061806D02*
X0153946Y0063307D01*
X0155447Y0064808D01*
X0158450Y0064808D01*
X0158450Y0061806D02*
X0155447Y0061806D01*
X0154697Y0060204D02*
X0153946Y0059454D01*
X0153946Y0057952D01*
X0154697Y0057202D01*
X0155447Y0057202D01*
X0156198Y0057952D01*
X0156198Y0059454D01*
X0156949Y0060204D01*
X0157699Y0060204D01*
X0158450Y0059454D01*
X0158450Y0057952D01*
X0157699Y0057202D01*
X0157699Y0055600D02*
X0153946Y0055600D01*
X0153946Y0052598D02*
X0157699Y0052598D01*
X0158450Y0053348D01*
X0158450Y0054850D01*
X0157699Y0055600D01*
X0221500Y0052567D02*
X0246500Y0052567D01*
X0246500Y0067567D01*
X0224000Y0067567D01*
X0224000Y0065067D01*
X0221500Y0065067D01*
X0221500Y0052567D01*
X0221500Y0047567D02*
X0224000Y0047567D01*
X0224000Y0045067D01*
X0221500Y0045067D01*
X0221500Y0032567D01*
X0246500Y0032567D01*
X0246500Y0047567D01*
X0224000Y0047567D01*
X0221500Y0047567D02*
X0221500Y0045067D01*
X0221500Y0065067D02*
X0221500Y0067567D01*
X0224000Y0067567D01*
X0221500Y0072567D02*
X0246500Y0072567D01*
X0246500Y0087567D01*
X0224000Y0087567D01*
X0224000Y0085067D01*
X0221500Y0085067D01*
X0221500Y0072567D01*
X0221500Y0085067D02*
X0221500Y0087567D01*
X0224000Y0087567D01*
X0221500Y0092567D02*
X0246500Y0092567D01*
X0246500Y0107567D01*
X0224000Y0107567D01*
X0224000Y0105067D01*
X0221500Y0105067D01*
X0221500Y0092567D01*
X0221500Y0105067D02*
X0221500Y0107567D01*
X0224000Y0107567D01*
X0221500Y0112567D02*
X0246500Y0112567D01*
X0246500Y0127567D01*
X0224000Y0127567D01*
X0224000Y0125067D01*
X0221500Y0125067D01*
X0221500Y0112567D01*
X0221500Y0125067D02*
X0221500Y0127567D01*
X0224000Y0127567D01*
X0221500Y0132567D02*
X0246500Y0132567D01*
X0246500Y0147567D01*
X0224000Y0147567D01*
X0224000Y0145067D01*
X0221500Y0145067D01*
X0221500Y0132567D01*
X0221500Y0145067D02*
X0221500Y0147567D01*
X0224000Y0147567D01*
X0221500Y0152567D02*
X0246500Y0152567D01*
X0246500Y0167567D01*
X0224000Y0167567D01*
X0224000Y0165067D01*
X0221500Y0165067D01*
X0221500Y0152567D01*
X0221500Y0165067D02*
X0221500Y0167567D01*
X0224000Y0167567D01*
X0221500Y0172567D02*
X0246500Y0172567D01*
X0246500Y0187567D01*
X0224000Y0187567D01*
X0224000Y0185067D01*
X0221500Y0185067D01*
X0221500Y0172567D01*
X0221500Y0185067D02*
X0221500Y0187567D01*
X0224000Y0187567D01*
X0270746Y0196568D02*
X0271497Y0195817D01*
X0274499Y0195817D01*
X0275250Y0196568D01*
X0275250Y0198069D01*
X0274499Y0198820D01*
X0275250Y0200421D02*
X0275250Y0203424D01*
X0275250Y0201923D02*
X0270746Y0201923D01*
X0272247Y0200421D01*
X0271497Y0198820D02*
X0270746Y0198069D01*
X0270746Y0196568D01*
X0270746Y0205025D02*
X0270746Y0208028D01*
X0271497Y0208028D01*
X0274499Y0205025D01*
X0275250Y0205025D01*
X0275658Y0227517D02*
X0275658Y0232021D01*
X0277910Y0232021D01*
X0278660Y0231271D01*
X0278660Y0229769D01*
X0277910Y0229019D01*
X0275658Y0229019D01*
X0273306Y0228268D02*
X0273306Y0232021D01*
X0274056Y0232021D02*
X0272555Y0232021D01*
X0269453Y0232021D02*
X0269453Y0229019D01*
X0267951Y0227517D01*
X0266450Y0229019D01*
X0266450Y0232021D01*
X0271054Y0228268D02*
X0271805Y0227517D01*
X0272555Y0227517D01*
X0273306Y0228268D01*
X0322500Y0181567D02*
X0330500Y0181567D01*
X0320500Y0161567D02*
X0312500Y0161567D01*
X0322500Y0141567D02*
X0330500Y0141567D01*
X0320500Y0121567D02*
X0312500Y0121567D01*
X0322500Y0101567D02*
X0330500Y0101567D01*
X0320500Y0081567D02*
X0312500Y0081567D01*
X0322500Y0061567D02*
X0330500Y0061567D01*
X0320500Y0041567D02*
X0312500Y0041567D01*
X0119763Y0152517D02*
X0119763Y0157021D01*
X0118262Y0157021D02*
X0121264Y0157021D01*
X0116660Y0156271D02*
X0115910Y0157021D01*
X0114408Y0157021D01*
X0113658Y0156271D01*
X0113658Y0155520D01*
X0114408Y0154769D01*
X0115910Y0154769D01*
X0116660Y0154019D01*
X0116660Y0153268D01*
X0115910Y0152517D01*
X0114408Y0152517D01*
X0113658Y0153268D01*
X0112056Y0152517D02*
X0110555Y0154019D01*
X0111306Y0154019D02*
X0109054Y0154019D01*
X0109054Y0152517D02*
X0109054Y0157021D01*
X0111306Y0157021D01*
X0112056Y0156271D01*
X0112056Y0154769D01*
X0111306Y0154019D01*
X0107453Y0152517D02*
X0107453Y0157021D01*
X0104450Y0157021D02*
X0104450Y0152517D01*
X0107453Y0152517D02*
X0104450Y0157021D01*
X0149781Y0194060D02*
X0150532Y0193310D01*
X0152033Y0193310D01*
X0152784Y0194060D01*
X0152784Y0194811D01*
X0152033Y0195561D01*
X0150532Y0195561D01*
X0149781Y0196312D01*
X0149781Y0197063D01*
X0150532Y0197813D01*
X0152033Y0197813D01*
X0152784Y0197063D01*
X0154385Y0197813D02*
X0154385Y0193310D01*
X0155887Y0194811D01*
X0157388Y0193310D01*
X0157388Y0197813D01*
X0158989Y0196312D02*
X0160491Y0197813D01*
X0160491Y0193310D01*
X0161992Y0193310D02*
X0158989Y0193310D01*
X0185751Y0236567D02*
X0187252Y0236567D01*
X0188003Y0237318D01*
X0189604Y0236567D02*
X0192606Y0236567D01*
X0191105Y0236567D02*
X0191105Y0241071D01*
X0189604Y0239570D01*
X0188003Y0240321D02*
X0187252Y0241071D01*
X0185751Y0241071D01*
X0185000Y0240321D01*
X0185000Y0237318D01*
X0185751Y0236567D01*
X0194208Y0238819D02*
X0197210Y0238819D01*
X0196460Y0236567D02*
X0196460Y0241071D01*
X0194208Y0238819D01*
X0194805Y0245317D02*
X0198875Y0245317D01*
X0196840Y0245317D02*
X0196840Y0251423D01*
X0194805Y0249388D01*
X0192798Y0250405D02*
X0192798Y0246335D01*
X0191780Y0245317D01*
X0189745Y0245317D01*
X0188728Y0246335D01*
X0192798Y0250405D01*
X0191780Y0251423D01*
X0189745Y0251423D01*
X0188728Y0250405D01*
X0188728Y0246335D01*
X0186721Y0245317D02*
X0182651Y0245317D01*
X0186721Y0249388D01*
X0186721Y0250405D01*
X0185703Y0251423D01*
X0183668Y0251423D01*
X0182651Y0250405D01*
X0174566Y0250405D02*
X0174566Y0248370D01*
X0173549Y0247352D01*
X0173549Y0249388D01*
X0171514Y0249388D01*
X0171514Y0247352D01*
X0173549Y0247352D01*
X0174566Y0246335D02*
X0173549Y0245317D01*
X0171514Y0245317D01*
X0170496Y0246335D01*
X0170496Y0250405D01*
X0171514Y0251423D01*
X0173549Y0251423D01*
X0174566Y0250405D01*
X0162412Y0248370D02*
X0162412Y0245317D01*
X0160377Y0245317D02*
X0160377Y0248370D01*
X0161394Y0249388D01*
X0162412Y0248370D01*
X0160377Y0248370D02*
X0159359Y0249388D01*
X0158342Y0249388D01*
X0158342Y0245317D01*
X0156335Y0245317D02*
X0153282Y0245317D01*
X0152265Y0246335D01*
X0153282Y0247352D01*
X0156335Y0247352D01*
X0156335Y0248370D02*
X0156335Y0245317D01*
X0150258Y0246335D02*
X0149240Y0245317D01*
X0147205Y0245317D01*
X0146187Y0246335D01*
X0144180Y0245317D02*
X0140110Y0249388D01*
X0138103Y0248370D02*
X0138103Y0247352D01*
X0134033Y0247352D01*
X0134033Y0246335D02*
X0134033Y0248370D01*
X0135051Y0249388D01*
X0137086Y0249388D01*
X0138103Y0248370D01*
X0135051Y0245317D02*
X0134033Y0246335D01*
X0135051Y0245317D02*
X0137086Y0245317D01*
X0140110Y0245317D02*
X0144180Y0249388D01*
X0146187Y0249388D02*
X0147205Y0248370D01*
X0149240Y0248370D01*
X0150258Y0247352D01*
X0150258Y0246335D01*
X0150258Y0250405D02*
X0149240Y0251423D01*
X0147205Y0251423D01*
X0146187Y0250405D01*
X0146187Y0249388D01*
X0153282Y0249388D02*
X0155317Y0249388D01*
X0156335Y0248370D01*
X0132017Y0245317D02*
X0129982Y0245317D01*
X0130999Y0245317D02*
X0130999Y0251423D01*
X0129982Y0251423D01*
X0127975Y0249388D02*
X0127975Y0245317D01*
X0123904Y0245317D02*
X0123904Y0249388D01*
X0125939Y0251423D01*
X0127975Y0249388D01*
X0127975Y0248370D02*
X0123904Y0248370D01*
X0115820Y0248370D02*
X0114803Y0247352D01*
X0114803Y0249388D01*
X0112768Y0249388D01*
X0112768Y0247352D01*
X0114803Y0247352D01*
X0115820Y0246335D02*
X0114803Y0245317D01*
X0112768Y0245317D01*
X0111750Y0246335D01*
X0111750Y0250405D01*
X0112768Y0251423D01*
X0114803Y0251423D01*
X0115820Y0250405D01*
X0115820Y0248370D01*
X0091250Y0228465D02*
X0090499Y0229216D01*
X0089749Y0229216D01*
X0088998Y0228465D01*
X0088998Y0226213D01*
X0090499Y0226213D01*
X0091250Y0226964D01*
X0091250Y0228465D01*
X0088998Y0226213D02*
X0087497Y0227715D01*
X0086746Y0229216D01*
X0087497Y0224612D02*
X0086746Y0223861D01*
X0086746Y0222360D01*
X0087497Y0221610D01*
X0087497Y0220008D02*
X0086746Y0219258D01*
X0086746Y0217756D01*
X0087497Y0217006D01*
X0090499Y0217006D01*
X0091250Y0217756D01*
X0091250Y0219258D01*
X0090499Y0220008D01*
X0091250Y0221610D02*
X0088247Y0224612D01*
X0087497Y0224612D01*
X0091250Y0224612D02*
X0091250Y0221610D01*
X0023450Y0189016D02*
X0023450Y0186013D01*
X0023450Y0187515D02*
X0018946Y0187515D01*
X0020447Y0186013D01*
X0019697Y0184412D02*
X0021198Y0184412D01*
X0021949Y0183661D01*
X0021949Y0181410D01*
X0023450Y0181410D02*
X0018946Y0181410D01*
X0018946Y0183661D01*
X0019697Y0184412D01*
X0018946Y0179808D02*
X0018946Y0178307D01*
X0018946Y0179058D02*
X0022699Y0179058D01*
X0023450Y0178307D01*
X0023450Y0177556D01*
X0022699Y0176806D01*
X0200882Y0246335D02*
X0200882Y0247352D01*
X0201900Y0248370D01*
X0203935Y0248370D01*
X0204952Y0247352D01*
X0204952Y0246335D01*
X0203935Y0245317D01*
X0201900Y0245317D01*
X0200882Y0246335D01*
X0201900Y0248370D02*
X0200882Y0249388D01*
X0200882Y0250405D01*
X0201900Y0251423D01*
X0203935Y0251423D01*
X0204952Y0250405D01*
X0204952Y0249388D01*
X0203935Y0248370D01*
D11*
X0196500Y0231567D02*
X0196500Y0230567D01*
X0197500Y0230567D01*
X0196500Y0230567D02*
X0196500Y0229567D01*
X0196500Y0230567D02*
X0195500Y0230567D01*
X0181500Y0225067D02*
X0181503Y0225312D01*
X0181512Y0225558D01*
X0181527Y0225803D01*
X0181548Y0226047D01*
X0181575Y0226291D01*
X0181608Y0226534D01*
X0181647Y0226777D01*
X0181692Y0227018D01*
X0181743Y0227258D01*
X0181800Y0227497D01*
X0181862Y0227734D01*
X0181931Y0227970D01*
X0182005Y0228204D01*
X0182085Y0228436D01*
X0182170Y0228666D01*
X0182261Y0228894D01*
X0182358Y0229119D01*
X0182460Y0229343D01*
X0182568Y0229563D01*
X0182681Y0229781D01*
X0182799Y0229996D01*
X0182923Y0230208D01*
X0183051Y0230417D01*
X0183185Y0230623D01*
X0183324Y0230825D01*
X0183468Y0231024D01*
X0183617Y0231219D01*
X0183770Y0231411D01*
X0183928Y0231599D01*
X0184090Y0231783D01*
X0184258Y0231962D01*
X0184429Y0232138D01*
X0184605Y0232309D01*
X0184784Y0232477D01*
X0184968Y0232639D01*
X0185156Y0232797D01*
X0185348Y0232950D01*
X0185543Y0233099D01*
X0185742Y0233243D01*
X0185944Y0233382D01*
X0186150Y0233516D01*
X0186359Y0233644D01*
X0186571Y0233768D01*
X0186786Y0233886D01*
X0187004Y0233999D01*
X0187224Y0234107D01*
X0187448Y0234209D01*
X0187673Y0234306D01*
X0187901Y0234397D01*
X0188131Y0234482D01*
X0188363Y0234562D01*
X0188597Y0234636D01*
X0188833Y0234705D01*
X0189070Y0234767D01*
X0189309Y0234824D01*
X0189549Y0234875D01*
X0189790Y0234920D01*
X0190033Y0234959D01*
X0190276Y0234992D01*
X0190520Y0235019D01*
X0190764Y0235040D01*
X0191009Y0235055D01*
X0191255Y0235064D01*
X0191500Y0235067D01*
X0191745Y0235064D01*
X0191991Y0235055D01*
X0192236Y0235040D01*
X0192480Y0235019D01*
X0192724Y0234992D01*
X0192967Y0234959D01*
X0193210Y0234920D01*
X0193451Y0234875D01*
X0193691Y0234824D01*
X0193930Y0234767D01*
X0194167Y0234705D01*
X0194403Y0234636D01*
X0194637Y0234562D01*
X0194869Y0234482D01*
X0195099Y0234397D01*
X0195327Y0234306D01*
X0195552Y0234209D01*
X0195776Y0234107D01*
X0195996Y0233999D01*
X0196214Y0233886D01*
X0196429Y0233768D01*
X0196641Y0233644D01*
X0196850Y0233516D01*
X0197056Y0233382D01*
X0197258Y0233243D01*
X0197457Y0233099D01*
X0197652Y0232950D01*
X0197844Y0232797D01*
X0198032Y0232639D01*
X0198216Y0232477D01*
X0198395Y0232309D01*
X0198571Y0232138D01*
X0198742Y0231962D01*
X0198910Y0231783D01*
X0199072Y0231599D01*
X0199230Y0231411D01*
X0199383Y0231219D01*
X0199532Y0231024D01*
X0199676Y0230825D01*
X0199815Y0230623D01*
X0199949Y0230417D01*
X0200077Y0230208D01*
X0200201Y0229996D01*
X0200319Y0229781D01*
X0200432Y0229563D01*
X0200540Y0229343D01*
X0200642Y0229119D01*
X0200739Y0228894D01*
X0200830Y0228666D01*
X0200915Y0228436D01*
X0200995Y0228204D01*
X0201069Y0227970D01*
X0201138Y0227734D01*
X0201200Y0227497D01*
X0201257Y0227258D01*
X0201308Y0227018D01*
X0201353Y0226777D01*
X0201392Y0226534D01*
X0201425Y0226291D01*
X0201452Y0226047D01*
X0201473Y0225803D01*
X0201488Y0225558D01*
X0201497Y0225312D01*
X0201500Y0225067D01*
X0201497Y0224822D01*
X0201488Y0224576D01*
X0201473Y0224331D01*
X0201452Y0224087D01*
X0201425Y0223843D01*
X0201392Y0223600D01*
X0201353Y0223357D01*
X0201308Y0223116D01*
X0201257Y0222876D01*
X0201200Y0222637D01*
X0201138Y0222400D01*
X0201069Y0222164D01*
X0200995Y0221930D01*
X0200915Y0221698D01*
X0200830Y0221468D01*
X0200739Y0221240D01*
X0200642Y0221015D01*
X0200540Y0220791D01*
X0200432Y0220571D01*
X0200319Y0220353D01*
X0200201Y0220138D01*
X0200077Y0219926D01*
X0199949Y0219717D01*
X0199815Y0219511D01*
X0199676Y0219309D01*
X0199532Y0219110D01*
X0199383Y0218915D01*
X0199230Y0218723D01*
X0199072Y0218535D01*
X0198910Y0218351D01*
X0198742Y0218172D01*
X0198571Y0217996D01*
X0198395Y0217825D01*
X0198216Y0217657D01*
X0198032Y0217495D01*
X0197844Y0217337D01*
X0197652Y0217184D01*
X0197457Y0217035D01*
X0197258Y0216891D01*
X0197056Y0216752D01*
X0196850Y0216618D01*
X0196641Y0216490D01*
X0196429Y0216366D01*
X0196214Y0216248D01*
X0195996Y0216135D01*
X0195776Y0216027D01*
X0195552Y0215925D01*
X0195327Y0215828D01*
X0195099Y0215737D01*
X0194869Y0215652D01*
X0194637Y0215572D01*
X0194403Y0215498D01*
X0194167Y0215429D01*
X0193930Y0215367D01*
X0193691Y0215310D01*
X0193451Y0215259D01*
X0193210Y0215214D01*
X0192967Y0215175D01*
X0192724Y0215142D01*
X0192480Y0215115D01*
X0192236Y0215094D01*
X0191991Y0215079D01*
X0191745Y0215070D01*
X0191500Y0215067D01*
X0191255Y0215070D01*
X0191009Y0215079D01*
X0190764Y0215094D01*
X0190520Y0215115D01*
X0190276Y0215142D01*
X0190033Y0215175D01*
X0189790Y0215214D01*
X0189549Y0215259D01*
X0189309Y0215310D01*
X0189070Y0215367D01*
X0188833Y0215429D01*
X0188597Y0215498D01*
X0188363Y0215572D01*
X0188131Y0215652D01*
X0187901Y0215737D01*
X0187673Y0215828D01*
X0187448Y0215925D01*
X0187224Y0216027D01*
X0187004Y0216135D01*
X0186786Y0216248D01*
X0186571Y0216366D01*
X0186359Y0216490D01*
X0186150Y0216618D01*
X0185944Y0216752D01*
X0185742Y0216891D01*
X0185543Y0217035D01*
X0185348Y0217184D01*
X0185156Y0217337D01*
X0184968Y0217495D01*
X0184784Y0217657D01*
X0184605Y0217825D01*
X0184429Y0217996D01*
X0184258Y0218172D01*
X0184090Y0218351D01*
X0183928Y0218535D01*
X0183770Y0218723D01*
X0183617Y0218915D01*
X0183468Y0219110D01*
X0183324Y0219309D01*
X0183185Y0219511D01*
X0183051Y0219717D01*
X0182923Y0219926D01*
X0182799Y0220138D01*
X0182681Y0220353D01*
X0182568Y0220571D01*
X0182460Y0220791D01*
X0182358Y0221015D01*
X0182261Y0221240D01*
X0182170Y0221468D01*
X0182085Y0221698D01*
X0182005Y0221930D01*
X0181931Y0222164D01*
X0181862Y0222400D01*
X0181800Y0222637D01*
X0181743Y0222876D01*
X0181692Y0223116D01*
X0181647Y0223357D01*
X0181608Y0223600D01*
X0181575Y0223843D01*
X0181548Y0224087D01*
X0181527Y0224331D01*
X0181512Y0224576D01*
X0181503Y0224822D01*
X0181500Y0225067D01*
X0141343Y0199530D02*
X0141343Y0190605D01*
X0140087Y0190605D01*
X0140091Y0190271D02*
X0140091Y0199530D01*
X0141343Y0199530D01*
X0140091Y0199530D02*
X0140091Y0199864D01*
X0136296Y0203658D01*
X0127037Y0203658D01*
X0127037Y0204910D01*
X0135963Y0204910D01*
X0135963Y0203654D01*
X0127037Y0203658D02*
X0126704Y0203658D01*
X0122909Y0199864D01*
X0122909Y0190605D01*
X0121657Y0190605D01*
X0121657Y0199530D01*
X0122913Y0199530D01*
X0122909Y0190605D02*
X0122909Y0190271D01*
X0126704Y0186477D01*
X0135963Y0186477D01*
X0135963Y0185225D01*
X0127037Y0185225D01*
X0127037Y0186481D01*
X0135963Y0186477D02*
X0136296Y0186477D01*
X0140091Y0190271D01*
X0091500Y0225067D02*
X0091503Y0225312D01*
X0091512Y0225558D01*
X0091527Y0225803D01*
X0091548Y0226047D01*
X0091575Y0226291D01*
X0091608Y0226534D01*
X0091647Y0226777D01*
X0091692Y0227018D01*
X0091743Y0227258D01*
X0091800Y0227497D01*
X0091862Y0227734D01*
X0091931Y0227970D01*
X0092005Y0228204D01*
X0092085Y0228436D01*
X0092170Y0228666D01*
X0092261Y0228894D01*
X0092358Y0229119D01*
X0092460Y0229343D01*
X0092568Y0229563D01*
X0092681Y0229781D01*
X0092799Y0229996D01*
X0092923Y0230208D01*
X0093051Y0230417D01*
X0093185Y0230623D01*
X0093324Y0230825D01*
X0093468Y0231024D01*
X0093617Y0231219D01*
X0093770Y0231411D01*
X0093928Y0231599D01*
X0094090Y0231783D01*
X0094258Y0231962D01*
X0094429Y0232138D01*
X0094605Y0232309D01*
X0094784Y0232477D01*
X0094968Y0232639D01*
X0095156Y0232797D01*
X0095348Y0232950D01*
X0095543Y0233099D01*
X0095742Y0233243D01*
X0095944Y0233382D01*
X0096150Y0233516D01*
X0096359Y0233644D01*
X0096571Y0233768D01*
X0096786Y0233886D01*
X0097004Y0233999D01*
X0097224Y0234107D01*
X0097448Y0234209D01*
X0097673Y0234306D01*
X0097901Y0234397D01*
X0098131Y0234482D01*
X0098363Y0234562D01*
X0098597Y0234636D01*
X0098833Y0234705D01*
X0099070Y0234767D01*
X0099309Y0234824D01*
X0099549Y0234875D01*
X0099790Y0234920D01*
X0100033Y0234959D01*
X0100276Y0234992D01*
X0100520Y0235019D01*
X0100764Y0235040D01*
X0101009Y0235055D01*
X0101255Y0235064D01*
X0101500Y0235067D01*
X0101745Y0235064D01*
X0101991Y0235055D01*
X0102236Y0235040D01*
X0102480Y0235019D01*
X0102724Y0234992D01*
X0102967Y0234959D01*
X0103210Y0234920D01*
X0103451Y0234875D01*
X0103691Y0234824D01*
X0103930Y0234767D01*
X0104167Y0234705D01*
X0104403Y0234636D01*
X0104637Y0234562D01*
X0104869Y0234482D01*
X0105099Y0234397D01*
X0105327Y0234306D01*
X0105552Y0234209D01*
X0105776Y0234107D01*
X0105996Y0233999D01*
X0106214Y0233886D01*
X0106429Y0233768D01*
X0106641Y0233644D01*
X0106850Y0233516D01*
X0107056Y0233382D01*
X0107258Y0233243D01*
X0107457Y0233099D01*
X0107652Y0232950D01*
X0107844Y0232797D01*
X0108032Y0232639D01*
X0108216Y0232477D01*
X0108395Y0232309D01*
X0108571Y0232138D01*
X0108742Y0231962D01*
X0108910Y0231783D01*
X0109072Y0231599D01*
X0109230Y0231411D01*
X0109383Y0231219D01*
X0109532Y0231024D01*
X0109676Y0230825D01*
X0109815Y0230623D01*
X0109949Y0230417D01*
X0110077Y0230208D01*
X0110201Y0229996D01*
X0110319Y0229781D01*
X0110432Y0229563D01*
X0110540Y0229343D01*
X0110642Y0229119D01*
X0110739Y0228894D01*
X0110830Y0228666D01*
X0110915Y0228436D01*
X0110995Y0228204D01*
X0111069Y0227970D01*
X0111138Y0227734D01*
X0111200Y0227497D01*
X0111257Y0227258D01*
X0111308Y0227018D01*
X0111353Y0226777D01*
X0111392Y0226534D01*
X0111425Y0226291D01*
X0111452Y0226047D01*
X0111473Y0225803D01*
X0111488Y0225558D01*
X0111497Y0225312D01*
X0111500Y0225067D01*
X0111497Y0224822D01*
X0111488Y0224576D01*
X0111473Y0224331D01*
X0111452Y0224087D01*
X0111425Y0223843D01*
X0111392Y0223600D01*
X0111353Y0223357D01*
X0111308Y0223116D01*
X0111257Y0222876D01*
X0111200Y0222637D01*
X0111138Y0222400D01*
X0111069Y0222164D01*
X0110995Y0221930D01*
X0110915Y0221698D01*
X0110830Y0221468D01*
X0110739Y0221240D01*
X0110642Y0221015D01*
X0110540Y0220791D01*
X0110432Y0220571D01*
X0110319Y0220353D01*
X0110201Y0220138D01*
X0110077Y0219926D01*
X0109949Y0219717D01*
X0109815Y0219511D01*
X0109676Y0219309D01*
X0109532Y0219110D01*
X0109383Y0218915D01*
X0109230Y0218723D01*
X0109072Y0218535D01*
X0108910Y0218351D01*
X0108742Y0218172D01*
X0108571Y0217996D01*
X0108395Y0217825D01*
X0108216Y0217657D01*
X0108032Y0217495D01*
X0107844Y0217337D01*
X0107652Y0217184D01*
X0107457Y0217035D01*
X0107258Y0216891D01*
X0107056Y0216752D01*
X0106850Y0216618D01*
X0106641Y0216490D01*
X0106429Y0216366D01*
X0106214Y0216248D01*
X0105996Y0216135D01*
X0105776Y0216027D01*
X0105552Y0215925D01*
X0105327Y0215828D01*
X0105099Y0215737D01*
X0104869Y0215652D01*
X0104637Y0215572D01*
X0104403Y0215498D01*
X0104167Y0215429D01*
X0103930Y0215367D01*
X0103691Y0215310D01*
X0103451Y0215259D01*
X0103210Y0215214D01*
X0102967Y0215175D01*
X0102724Y0215142D01*
X0102480Y0215115D01*
X0102236Y0215094D01*
X0101991Y0215079D01*
X0101745Y0215070D01*
X0101500Y0215067D01*
X0101255Y0215070D01*
X0101009Y0215079D01*
X0100764Y0215094D01*
X0100520Y0215115D01*
X0100276Y0215142D01*
X0100033Y0215175D01*
X0099790Y0215214D01*
X0099549Y0215259D01*
X0099309Y0215310D01*
X0099070Y0215367D01*
X0098833Y0215429D01*
X0098597Y0215498D01*
X0098363Y0215572D01*
X0098131Y0215652D01*
X0097901Y0215737D01*
X0097673Y0215828D01*
X0097448Y0215925D01*
X0097224Y0216027D01*
X0097004Y0216135D01*
X0096786Y0216248D01*
X0096571Y0216366D01*
X0096359Y0216490D01*
X0096150Y0216618D01*
X0095944Y0216752D01*
X0095742Y0216891D01*
X0095543Y0217035D01*
X0095348Y0217184D01*
X0095156Y0217337D01*
X0094968Y0217495D01*
X0094784Y0217657D01*
X0094605Y0217825D01*
X0094429Y0217996D01*
X0094258Y0218172D01*
X0094090Y0218351D01*
X0093928Y0218535D01*
X0093770Y0218723D01*
X0093617Y0218915D01*
X0093468Y0219110D01*
X0093324Y0219309D01*
X0093185Y0219511D01*
X0093051Y0219717D01*
X0092923Y0219926D01*
X0092799Y0220138D01*
X0092681Y0220353D01*
X0092568Y0220571D01*
X0092460Y0220791D01*
X0092358Y0221015D01*
X0092261Y0221240D01*
X0092170Y0221468D01*
X0092085Y0221698D01*
X0092005Y0221930D01*
X0091931Y0222164D01*
X0091862Y0222400D01*
X0091800Y0222637D01*
X0091743Y0222876D01*
X0091692Y0223116D01*
X0091647Y0223357D01*
X0091608Y0223600D01*
X0091575Y0223843D01*
X0091548Y0224087D01*
X0091527Y0224331D01*
X0091512Y0224576D01*
X0091503Y0224822D01*
X0091500Y0225067D01*
X0092303Y0235367D02*
X0092303Y0238570D01*
X0091235Y0239638D01*
X0090167Y0238570D01*
X0090167Y0235367D01*
X0088032Y0235367D02*
X0088032Y0239638D01*
X0089100Y0239638D01*
X0090167Y0238570D01*
X0085857Y0238570D02*
X0085857Y0236435D01*
X0084789Y0235367D01*
X0082654Y0235367D01*
X0081587Y0236435D01*
X0081587Y0238570D01*
X0082654Y0239638D01*
X0084789Y0239638D01*
X0085857Y0238570D01*
X0079412Y0239638D02*
X0076209Y0239638D01*
X0075141Y0238570D01*
X0075141Y0236435D01*
X0076209Y0235367D01*
X0079412Y0235367D01*
X0072986Y0235367D02*
X0071918Y0235367D01*
X0071918Y0236435D01*
X0072986Y0236435D01*
X0072986Y0235367D01*
X0069743Y0237503D02*
X0065473Y0237503D01*
X0065473Y0238570D02*
X0066541Y0239638D01*
X0068676Y0239638D01*
X0069743Y0238570D01*
X0069743Y0237503D01*
X0068676Y0235367D02*
X0066541Y0235367D01*
X0065473Y0236435D01*
X0065473Y0238570D01*
X0063298Y0239638D02*
X0061163Y0235367D01*
X0059027Y0239638D01*
X0056852Y0238570D02*
X0056852Y0235367D01*
X0053650Y0235367D01*
X0052582Y0236435D01*
X0053650Y0237503D01*
X0056852Y0237503D01*
X0056852Y0238570D02*
X0055785Y0239638D01*
X0053650Y0239638D01*
X0050407Y0241773D02*
X0050407Y0235367D01*
X0048272Y0237503D01*
X0046136Y0235367D01*
X0046136Y0241773D01*
X0046123Y0245367D02*
X0043988Y0245367D01*
X0045056Y0245367D02*
X0045056Y0249638D01*
X0043988Y0249638D01*
X0045056Y0251773D02*
X0045056Y0252840D01*
X0048285Y0249638D02*
X0050420Y0245367D01*
X0052555Y0249638D01*
X0055798Y0249638D02*
X0057933Y0249638D01*
X0059001Y0248570D01*
X0059001Y0245367D01*
X0055798Y0245367D01*
X0054730Y0246435D01*
X0055798Y0247503D01*
X0059001Y0247503D01*
X0061176Y0249638D02*
X0063311Y0249638D01*
X0062244Y0250705D02*
X0062244Y0246435D01*
X0063311Y0245367D01*
X0065473Y0246435D02*
X0066541Y0245367D01*
X0068676Y0245367D01*
X0069743Y0246435D01*
X0069743Y0248570D01*
X0068676Y0249638D01*
X0066541Y0249638D01*
X0065473Y0248570D01*
X0065473Y0246435D01*
X0071918Y0245367D02*
X0071918Y0249638D01*
X0071918Y0247503D02*
X0074054Y0249638D01*
X0075121Y0249638D01*
X0083735Y0249638D02*
X0085870Y0251773D01*
X0085870Y0245367D01*
X0083735Y0245367D02*
X0088006Y0245367D01*
X0090181Y0245367D02*
X0090181Y0246435D01*
X0091248Y0246435D01*
X0091248Y0245367D01*
X0090181Y0245367D01*
X0093403Y0246435D02*
X0097674Y0250705D01*
X0097674Y0246435D01*
X0096606Y0245367D01*
X0094471Y0245367D01*
X0093403Y0246435D01*
X0093403Y0250705D01*
X0094471Y0251773D01*
X0096606Y0251773D01*
X0097674Y0250705D01*
X0106500Y0231567D02*
X0106500Y0230567D01*
X0107500Y0230567D01*
X0106500Y0230567D02*
X0106500Y0229567D01*
X0106500Y0230567D02*
X0105500Y0230567D01*
X0063651Y0198534D02*
X0063651Y0194264D01*
X0063651Y0196399D02*
X0057245Y0196399D01*
X0059380Y0194264D01*
X0058313Y0192089D02*
X0062583Y0192089D01*
X0063651Y0191021D01*
X0063651Y0188886D01*
X0062583Y0187818D01*
X0058313Y0187818D01*
X0057245Y0188886D01*
X0057245Y0191021D01*
X0058313Y0192089D01*
X0061516Y0189953D02*
X0063651Y0192089D01*
X0016500Y0187567D02*
X0016500Y0182567D01*
X0014000Y0180067D01*
X0016500Y0177567D01*
X0016500Y0172567D01*
X0014000Y0170067D01*
X0009000Y0170067D01*
X0006500Y0172567D01*
X0006500Y0177567D01*
X0009000Y0180067D01*
X0006500Y0182567D01*
X0006500Y0187567D01*
X0009000Y0190067D01*
X0014000Y0190067D01*
X0016500Y0187567D01*
X0014000Y0180067D02*
X0009000Y0180067D01*
X0009000Y0170067D02*
X0006500Y0167567D01*
X0006500Y0162567D01*
X0009000Y0160067D01*
X0006500Y0157567D01*
X0006500Y0152567D01*
X0009000Y0150067D01*
X0006500Y0147567D01*
X0006500Y0142567D01*
X0009000Y0140067D01*
X0014000Y0140067D01*
X0016500Y0142567D01*
X0016500Y0147567D01*
X0014000Y0150067D01*
X0009000Y0150067D01*
X0014000Y0150067D02*
X0016500Y0152567D01*
X0016500Y0157567D01*
X0014000Y0160067D01*
X0009000Y0160067D01*
X0014000Y0160067D02*
X0016500Y0162567D01*
X0016500Y0167567D01*
X0014000Y0170067D01*
X0014000Y0140067D02*
X0016500Y0137567D01*
X0016500Y0132567D01*
X0014000Y0130067D01*
X0016500Y0127567D01*
X0016500Y0122567D01*
X0014000Y0120067D01*
X0016500Y0117567D01*
X0016500Y0112567D01*
X0014000Y0110067D01*
X0009000Y0110067D01*
X0006500Y0112567D01*
X0006500Y0117567D01*
X0009000Y0120067D01*
X0006500Y0122567D01*
X0006500Y0127567D01*
X0009000Y0130067D01*
X0006500Y0132567D01*
X0006500Y0137567D01*
X0009000Y0140067D01*
X0009000Y0130067D02*
X0014000Y0130067D01*
X0014000Y0120067D02*
X0009000Y0120067D01*
X0009000Y0110067D02*
X0006500Y0107567D01*
X0006500Y0102567D01*
X0009000Y0100067D01*
X0006500Y0097567D01*
X0006500Y0092567D01*
X0009000Y0090067D01*
X0006500Y0087567D01*
X0006500Y0082567D01*
X0009000Y0080067D01*
X0014000Y0080067D01*
X0016500Y0082567D01*
X0016500Y0087567D01*
X0014000Y0090067D01*
X0009000Y0090067D01*
X0014000Y0090067D02*
X0016500Y0092567D01*
X0016500Y0097567D01*
X0014000Y0100067D01*
X0009000Y0100067D01*
X0014000Y0100067D02*
X0016500Y0102567D01*
X0016500Y0107567D01*
X0014000Y0110067D01*
X0014000Y0080067D02*
X0016500Y0077567D01*
X0016500Y0072567D01*
X0014000Y0070067D01*
X0016500Y0067567D01*
X0016500Y0062567D01*
X0014000Y0060067D01*
X0016500Y0057567D01*
X0016500Y0052567D01*
X0014000Y0050067D01*
X0009000Y0050067D01*
X0006500Y0052567D01*
X0006500Y0057567D01*
X0009000Y0060067D01*
X0006500Y0062567D01*
X0006500Y0067567D01*
X0009000Y0070067D01*
X0006500Y0072567D01*
X0006500Y0077567D01*
X0009000Y0080067D01*
X0009000Y0070067D02*
X0014000Y0070067D01*
X0014000Y0060067D02*
X0009000Y0060067D01*
X0009000Y0050067D02*
X0006500Y0047567D01*
X0006500Y0042567D01*
X0009000Y0040067D01*
X0006500Y0037567D01*
X0006500Y0032567D01*
X0009000Y0030067D01*
X0014000Y0030067D01*
X0016500Y0032567D01*
X0016500Y0037567D01*
X0014000Y0040067D01*
X0009000Y0040067D01*
X0014000Y0040067D02*
X0016500Y0042567D01*
X0016500Y0047567D01*
X0014000Y0050067D01*
X0066500Y0032567D02*
X0066500Y0027567D01*
X0069000Y0025067D01*
X0074000Y0025067D01*
X0076500Y0027567D01*
X0079000Y0025067D01*
X0084000Y0025067D01*
X0086500Y0027567D01*
X0086500Y0032567D01*
X0084000Y0035067D01*
X0079000Y0035067D01*
X0076500Y0032567D01*
X0076500Y0027567D01*
X0076500Y0032567D02*
X0074000Y0035067D01*
X0069000Y0035067D01*
X0066500Y0032567D01*
X0084295Y0071682D02*
X0083114Y0072863D01*
X0083114Y0097272D01*
X0084295Y0098453D01*
X0108705Y0098453D01*
X0109886Y0097272D01*
X0109886Y0072863D01*
X0108705Y0071682D01*
X0084295Y0071682D01*
X0121500Y0072567D02*
X0121500Y0067567D01*
X0124000Y0065067D01*
X0129000Y0065067D01*
X0131500Y0067567D01*
X0131500Y0072567D01*
X0129000Y0075067D01*
X0124000Y0075067D01*
X0121500Y0072567D01*
X0124000Y0065067D02*
X0121500Y0062567D01*
X0121500Y0057567D01*
X0124000Y0055067D01*
X0129000Y0055067D01*
X0131500Y0057567D01*
X0131500Y0062567D01*
X0129000Y0065067D01*
X0141500Y0062567D02*
X0141500Y0057567D01*
X0144000Y0055067D01*
X0149000Y0055067D01*
X0151500Y0057567D01*
X0151500Y0062567D01*
X0149000Y0065067D01*
X0144000Y0065067D01*
X0141500Y0062567D01*
X0144000Y0065067D02*
X0141500Y0067567D01*
X0141500Y0072567D01*
X0144000Y0075067D01*
X0149000Y0075067D01*
X0151500Y0072567D01*
X0151500Y0067567D01*
X0149000Y0065067D01*
X0112000Y0140067D02*
X0107000Y0140067D01*
X0104500Y0142567D01*
X0104500Y0147567D01*
X0107000Y0150067D01*
X0112000Y0150067D01*
X0114500Y0147567D01*
X0114500Y0142567D01*
X0112000Y0140067D01*
X0042894Y0235367D02*
X0040759Y0235367D01*
X0039691Y0236435D01*
X0039691Y0238570D01*
X0040759Y0239638D01*
X0042894Y0239638D01*
X0043961Y0238570D01*
X0043961Y0237503D01*
X0039691Y0237503D01*
X0037516Y0237503D02*
X0034313Y0237503D01*
X0033245Y0236435D01*
X0034313Y0235367D01*
X0037516Y0235367D01*
X0037516Y0238570D01*
X0036448Y0239638D01*
X0034313Y0239638D01*
X0031070Y0240705D02*
X0030003Y0241773D01*
X0027868Y0241773D01*
X0026800Y0240705D01*
X0026800Y0239638D01*
X0027868Y0238570D01*
X0030003Y0238570D01*
X0031070Y0237503D01*
X0031070Y0236435D01*
X0030003Y0235367D01*
X0027868Y0235367D01*
X0026800Y0236435D01*
X0026800Y0245367D02*
X0026800Y0251773D01*
X0030003Y0251773D01*
X0031070Y0250705D01*
X0031070Y0248570D01*
X0030003Y0247503D01*
X0026800Y0247503D01*
X0033245Y0248570D02*
X0033245Y0246435D01*
X0034313Y0245367D01*
X0036448Y0245367D01*
X0037516Y0246435D01*
X0037516Y0248570D01*
X0036448Y0249638D01*
X0034313Y0249638D01*
X0033245Y0248570D01*
X0039691Y0245367D02*
X0041826Y0245367D01*
X0040759Y0245367D02*
X0040759Y0251773D01*
X0039691Y0251773D01*
X0266500Y0222567D02*
X0266500Y0217567D01*
X0269000Y0215067D01*
X0274000Y0215067D01*
X0276500Y0217567D01*
X0279000Y0215067D01*
X0284000Y0215067D01*
X0286500Y0217567D01*
X0289000Y0215067D01*
X0294000Y0215067D01*
X0296500Y0217567D01*
X0296500Y0222567D01*
X0294000Y0225067D01*
X0289000Y0225067D01*
X0286500Y0222567D01*
X0286500Y0217567D01*
X0286500Y0222567D02*
X0284000Y0225067D01*
X0279000Y0225067D01*
X0276500Y0222567D01*
X0276500Y0217567D01*
X0276500Y0222567D02*
X0274000Y0225067D01*
X0269000Y0225067D01*
X0266500Y0222567D01*
X0280000Y0206567D02*
X0280000Y0205067D01*
X0281500Y0205067D01*
X0280000Y0205067D02*
X0280000Y0203567D01*
X0280000Y0205067D02*
X0278500Y0205067D01*
X0275500Y0200067D02*
X0275503Y0200337D01*
X0275513Y0200607D01*
X0275530Y0200876D01*
X0275553Y0201145D01*
X0275583Y0201414D01*
X0275619Y0201681D01*
X0275662Y0201948D01*
X0275711Y0202213D01*
X0275767Y0202477D01*
X0275830Y0202740D01*
X0275898Y0203001D01*
X0275974Y0203260D01*
X0276055Y0203517D01*
X0276143Y0203773D01*
X0276237Y0204026D01*
X0276337Y0204277D01*
X0276444Y0204525D01*
X0276556Y0204770D01*
X0276675Y0205013D01*
X0276799Y0205252D01*
X0276929Y0205489D01*
X0277065Y0205722D01*
X0277207Y0205952D01*
X0277354Y0206178D01*
X0277507Y0206401D01*
X0277665Y0206620D01*
X0277828Y0206835D01*
X0277997Y0207045D01*
X0278171Y0207252D01*
X0278350Y0207454D01*
X0278533Y0207652D01*
X0278722Y0207845D01*
X0278915Y0208034D01*
X0279113Y0208217D01*
X0279315Y0208396D01*
X0279522Y0208570D01*
X0279732Y0208739D01*
X0279947Y0208902D01*
X0280166Y0209060D01*
X0280389Y0209213D01*
X0280615Y0209360D01*
X0280845Y0209502D01*
X0281078Y0209638D01*
X0281315Y0209768D01*
X0281554Y0209892D01*
X0281797Y0210011D01*
X0282042Y0210123D01*
X0282290Y0210230D01*
X0282541Y0210330D01*
X0282794Y0210424D01*
X0283050Y0210512D01*
X0283307Y0210593D01*
X0283566Y0210669D01*
X0283827Y0210737D01*
X0284090Y0210800D01*
X0284354Y0210856D01*
X0284619Y0210905D01*
X0284886Y0210948D01*
X0285153Y0210984D01*
X0285422Y0211014D01*
X0285691Y0211037D01*
X0285960Y0211054D01*
X0286230Y0211064D01*
X0286500Y0211067D01*
X0286770Y0211064D01*
X0287040Y0211054D01*
X0287309Y0211037D01*
X0287578Y0211014D01*
X0287847Y0210984D01*
X0288114Y0210948D01*
X0288381Y0210905D01*
X0288646Y0210856D01*
X0288910Y0210800D01*
X0289173Y0210737D01*
X0289434Y0210669D01*
X0289693Y0210593D01*
X0289950Y0210512D01*
X0290206Y0210424D01*
X0290459Y0210330D01*
X0290710Y0210230D01*
X0290958Y0210123D01*
X0291203Y0210011D01*
X0291446Y0209892D01*
X0291685Y0209768D01*
X0291922Y0209638D01*
X0292155Y0209502D01*
X0292385Y0209360D01*
X0292611Y0209213D01*
X0292834Y0209060D01*
X0293053Y0208902D01*
X0293268Y0208739D01*
X0293478Y0208570D01*
X0293685Y0208396D01*
X0293887Y0208217D01*
X0294085Y0208034D01*
X0294278Y0207845D01*
X0294467Y0207652D01*
X0294650Y0207454D01*
X0294829Y0207252D01*
X0295003Y0207045D01*
X0295172Y0206835D01*
X0295335Y0206620D01*
X0295493Y0206401D01*
X0295646Y0206178D01*
X0295793Y0205952D01*
X0295935Y0205722D01*
X0296071Y0205489D01*
X0296201Y0205252D01*
X0296325Y0205013D01*
X0296444Y0204770D01*
X0296556Y0204525D01*
X0296663Y0204277D01*
X0296763Y0204026D01*
X0296857Y0203773D01*
X0296945Y0203517D01*
X0297026Y0203260D01*
X0297102Y0203001D01*
X0297170Y0202740D01*
X0297233Y0202477D01*
X0297289Y0202213D01*
X0297338Y0201948D01*
X0297381Y0201681D01*
X0297417Y0201414D01*
X0297447Y0201145D01*
X0297470Y0200876D01*
X0297487Y0200607D01*
X0297497Y0200337D01*
X0297500Y0200067D01*
X0297497Y0199797D01*
X0297487Y0199527D01*
X0297470Y0199258D01*
X0297447Y0198989D01*
X0297417Y0198720D01*
X0297381Y0198453D01*
X0297338Y0198186D01*
X0297289Y0197921D01*
X0297233Y0197657D01*
X0297170Y0197394D01*
X0297102Y0197133D01*
X0297026Y0196874D01*
X0296945Y0196617D01*
X0296857Y0196361D01*
X0296763Y0196108D01*
X0296663Y0195857D01*
X0296556Y0195609D01*
X0296444Y0195364D01*
X0296325Y0195121D01*
X0296201Y0194882D01*
X0296071Y0194645D01*
X0295935Y0194412D01*
X0295793Y0194182D01*
X0295646Y0193956D01*
X0295493Y0193733D01*
X0295335Y0193514D01*
X0295172Y0193299D01*
X0295003Y0193089D01*
X0294829Y0192882D01*
X0294650Y0192680D01*
X0294467Y0192482D01*
X0294278Y0192289D01*
X0294085Y0192100D01*
X0293887Y0191917D01*
X0293685Y0191738D01*
X0293478Y0191564D01*
X0293268Y0191395D01*
X0293053Y0191232D01*
X0292834Y0191074D01*
X0292611Y0190921D01*
X0292385Y0190774D01*
X0292155Y0190632D01*
X0291922Y0190496D01*
X0291685Y0190366D01*
X0291446Y0190242D01*
X0291203Y0190123D01*
X0290958Y0190011D01*
X0290710Y0189904D01*
X0290459Y0189804D01*
X0290206Y0189710D01*
X0289950Y0189622D01*
X0289693Y0189541D01*
X0289434Y0189465D01*
X0289173Y0189397D01*
X0288910Y0189334D01*
X0288646Y0189278D01*
X0288381Y0189229D01*
X0288114Y0189186D01*
X0287847Y0189150D01*
X0287578Y0189120D01*
X0287309Y0189097D01*
X0287040Y0189080D01*
X0286770Y0189070D01*
X0286500Y0189067D01*
X0286230Y0189070D01*
X0285960Y0189080D01*
X0285691Y0189097D01*
X0285422Y0189120D01*
X0285153Y0189150D01*
X0284886Y0189186D01*
X0284619Y0189229D01*
X0284354Y0189278D01*
X0284090Y0189334D01*
X0283827Y0189397D01*
X0283566Y0189465D01*
X0283307Y0189541D01*
X0283050Y0189622D01*
X0282794Y0189710D01*
X0282541Y0189804D01*
X0282290Y0189904D01*
X0282042Y0190011D01*
X0281797Y0190123D01*
X0281554Y0190242D01*
X0281315Y0190366D01*
X0281078Y0190496D01*
X0280845Y0190632D01*
X0280615Y0190774D01*
X0280389Y0190921D01*
X0280166Y0191074D01*
X0279947Y0191232D01*
X0279732Y0191395D01*
X0279522Y0191564D01*
X0279315Y0191738D01*
X0279113Y0191917D01*
X0278915Y0192100D01*
X0278722Y0192289D01*
X0278533Y0192482D01*
X0278350Y0192680D01*
X0278171Y0192882D01*
X0277997Y0193089D01*
X0277828Y0193299D01*
X0277665Y0193514D01*
X0277507Y0193733D01*
X0277354Y0193956D01*
X0277207Y0194182D01*
X0277065Y0194412D01*
X0276929Y0194645D01*
X0276799Y0194882D01*
X0276675Y0195121D01*
X0276556Y0195364D01*
X0276444Y0195609D01*
X0276337Y0195857D01*
X0276237Y0196108D01*
X0276143Y0196361D01*
X0276055Y0196617D01*
X0275974Y0196874D01*
X0275898Y0197133D01*
X0275830Y0197394D01*
X0275767Y0197657D01*
X0275711Y0197921D01*
X0275662Y0198186D01*
X0275619Y0198453D01*
X0275583Y0198720D01*
X0275553Y0198989D01*
X0275530Y0199258D01*
X0275513Y0199527D01*
X0275503Y0199797D01*
X0275500Y0200067D01*
X0356500Y0187567D02*
X0356500Y0182567D01*
X0359000Y0180067D01*
X0356500Y0177567D01*
X0356500Y0172567D01*
X0359000Y0170067D01*
X0364000Y0170067D01*
X0366500Y0172567D01*
X0366500Y0177567D01*
X0364000Y0180067D01*
X0359000Y0180067D01*
X0364000Y0180067D02*
X0366500Y0182567D01*
X0366500Y0187567D01*
X0364000Y0190067D01*
X0359000Y0190067D01*
X0356500Y0187567D01*
X0359000Y0170067D02*
X0356500Y0167567D01*
X0356500Y0162567D01*
X0359000Y0160067D01*
X0356500Y0157567D01*
X0356500Y0152567D01*
X0359000Y0150067D01*
X0356500Y0147567D01*
X0356500Y0142567D01*
X0359000Y0140067D01*
X0364000Y0140067D01*
X0366500Y0142567D01*
X0366500Y0147567D01*
X0364000Y0150067D01*
X0359000Y0150067D01*
X0364000Y0150067D02*
X0366500Y0152567D01*
X0366500Y0157567D01*
X0364000Y0160067D01*
X0359000Y0160067D01*
X0364000Y0160067D02*
X0366500Y0162567D01*
X0366500Y0167567D01*
X0364000Y0170067D01*
X0364000Y0140067D02*
X0366500Y0137567D01*
X0366500Y0132567D01*
X0364000Y0130067D01*
X0366500Y0127567D01*
X0366500Y0122567D01*
X0364000Y0120067D01*
X0366500Y0117567D01*
X0366500Y0112567D01*
X0364000Y0110067D01*
X0359000Y0110067D01*
X0356500Y0112567D01*
X0356500Y0117567D01*
X0359000Y0120067D01*
X0356500Y0122567D01*
X0356500Y0127567D01*
X0359000Y0130067D01*
X0356500Y0132567D01*
X0356500Y0137567D01*
X0359000Y0140067D01*
X0359000Y0130067D02*
X0364000Y0130067D01*
X0364000Y0120067D02*
X0359000Y0120067D01*
X0359000Y0110067D02*
X0356500Y0107567D01*
X0356500Y0102567D01*
X0359000Y0100067D01*
X0356500Y0097567D01*
X0356500Y0092567D01*
X0359000Y0090067D01*
X0356500Y0087567D01*
X0356500Y0082567D01*
X0359000Y0080067D01*
X0364000Y0080067D01*
X0366500Y0082567D01*
X0366500Y0087567D01*
X0364000Y0090067D01*
X0359000Y0090067D01*
X0364000Y0090067D02*
X0366500Y0092567D01*
X0366500Y0097567D01*
X0364000Y0100067D01*
X0359000Y0100067D01*
X0364000Y0100067D02*
X0366500Y0102567D01*
X0366500Y0107567D01*
X0364000Y0110067D01*
X0364000Y0080067D02*
X0366500Y0077567D01*
X0366500Y0072567D01*
X0364000Y0070067D01*
X0366500Y0067567D01*
X0366500Y0062567D01*
X0364000Y0060067D01*
X0366500Y0057567D01*
X0366500Y0052567D01*
X0364000Y0050067D01*
X0359000Y0050067D01*
X0356500Y0052567D01*
X0356500Y0057567D01*
X0359000Y0060067D01*
X0356500Y0062567D01*
X0356500Y0067567D01*
X0359000Y0070067D01*
X0356500Y0072567D01*
X0356500Y0077567D01*
X0359000Y0080067D01*
X0359000Y0070067D02*
X0364000Y0070067D01*
X0364000Y0060067D02*
X0359000Y0060067D01*
X0359000Y0050067D02*
X0356500Y0047567D01*
X0356500Y0042567D01*
X0359000Y0040067D01*
X0356500Y0037567D01*
X0356500Y0032567D01*
X0359000Y0030067D01*
X0364000Y0030067D01*
X0366500Y0032567D01*
X0366500Y0037567D01*
X0364000Y0040067D01*
X0359000Y0040067D01*
X0364000Y0040067D02*
X0366500Y0042567D01*
X0366500Y0047567D01*
X0364000Y0050067D01*
D12*
X0035888Y0029371D02*
X0035888Y0024767D01*
X0035888Y0026302D02*
X0038190Y0026302D01*
X0038957Y0027069D01*
X0038957Y0028604D01*
X0038190Y0029371D01*
X0035888Y0029371D01*
X0037423Y0026302D02*
X0038957Y0024767D01*
X0040492Y0025535D02*
X0041259Y0024767D01*
X0042794Y0024767D01*
X0043561Y0025535D01*
X0043561Y0026302D01*
X0042794Y0027069D01*
X0042027Y0027069D01*
X0042794Y0027069D02*
X0043561Y0027837D01*
X0043561Y0028604D01*
X0042794Y0029371D01*
X0041259Y0029371D01*
X0040492Y0028604D01*
X0045096Y0028604D02*
X0045096Y0025535D01*
X0048165Y0028604D01*
X0048165Y0025535D01*
X0047398Y0024767D01*
X0045863Y0024767D01*
X0045096Y0025535D01*
X0045096Y0028604D02*
X0045863Y0029371D01*
X0047398Y0029371D01*
X0048165Y0028604D01*
X0056696Y0033560D02*
X0056696Y0035862D01*
X0057463Y0036629D01*
X0058998Y0036629D01*
X0059765Y0035862D01*
X0059765Y0033560D01*
X0059765Y0035094D02*
X0061300Y0036629D01*
X0060533Y0038163D02*
X0061300Y0038931D01*
X0061300Y0040465D01*
X0060533Y0041233D01*
X0057463Y0041233D01*
X0056696Y0040465D01*
X0056696Y0038931D01*
X0057463Y0038163D01*
X0058231Y0038163D01*
X0058998Y0038931D01*
X0058998Y0041233D01*
X0062946Y0042706D02*
X0062946Y0045008D01*
X0063713Y0045775D01*
X0065248Y0045775D01*
X0066015Y0045008D01*
X0066015Y0042706D01*
X0066015Y0044240D02*
X0067550Y0045775D01*
X0067550Y0047310D02*
X0064481Y0050379D01*
X0063713Y0050379D01*
X0062946Y0049612D01*
X0062946Y0048077D01*
X0063713Y0047310D01*
X0067550Y0047310D02*
X0067550Y0050379D01*
X0066783Y0051913D02*
X0067550Y0052681D01*
X0067550Y0054215D01*
X0066783Y0054983D01*
X0063713Y0054983D01*
X0062946Y0054215D01*
X0062946Y0052681D01*
X0063713Y0051913D01*
X0064481Y0051913D01*
X0065248Y0052681D01*
X0065248Y0054983D01*
X0061300Y0054525D02*
X0059765Y0052990D01*
X0059765Y0053758D02*
X0059765Y0051456D01*
X0061300Y0051456D02*
X0056696Y0051456D01*
X0056696Y0053758D01*
X0057463Y0054525D01*
X0058998Y0054525D01*
X0059765Y0053758D01*
X0058231Y0056060D02*
X0056696Y0057594D01*
X0061300Y0057594D01*
X0061300Y0056060D02*
X0061300Y0059129D01*
X0060533Y0060663D02*
X0061300Y0061431D01*
X0061300Y0062965D01*
X0060533Y0063733D01*
X0059765Y0063733D01*
X0058998Y0062965D01*
X0058998Y0060663D01*
X0060533Y0060663D01*
X0058998Y0060663D02*
X0057463Y0062198D01*
X0056696Y0063733D01*
X0056696Y0071456D02*
X0056696Y0073758D01*
X0057463Y0074525D01*
X0058998Y0074525D01*
X0059765Y0073758D01*
X0059765Y0071456D01*
X0059765Y0072990D02*
X0061300Y0074525D01*
X0061300Y0076060D02*
X0061300Y0079129D01*
X0061300Y0077594D02*
X0056696Y0077594D01*
X0058231Y0076060D01*
X0058998Y0080663D02*
X0058231Y0082198D01*
X0058231Y0082965D01*
X0058998Y0083733D01*
X0060533Y0083733D01*
X0061300Y0082965D01*
X0061300Y0081431D01*
X0060533Y0080663D01*
X0058998Y0080663D02*
X0056696Y0080663D01*
X0056696Y0083733D01*
X0056696Y0091456D02*
X0056696Y0093758D01*
X0057463Y0094525D01*
X0058998Y0094525D01*
X0059765Y0093758D01*
X0059765Y0091456D01*
X0059765Y0092990D02*
X0061300Y0094525D01*
X0061300Y0096060D02*
X0061300Y0099129D01*
X0061300Y0097594D02*
X0056696Y0097594D01*
X0058231Y0096060D01*
X0056696Y0091456D02*
X0061300Y0091456D01*
X0058998Y0100663D02*
X0058998Y0103733D01*
X0056696Y0102965D02*
X0058998Y0100663D01*
X0061300Y0102965D02*
X0056696Y0102965D01*
X0056696Y0111456D02*
X0056696Y0113758D01*
X0057463Y0114525D01*
X0058998Y0114525D01*
X0059765Y0113758D01*
X0059765Y0111456D01*
X0059765Y0112990D02*
X0061300Y0114525D01*
X0061300Y0116060D02*
X0061300Y0119129D01*
X0061300Y0117594D02*
X0056696Y0117594D01*
X0058231Y0116060D01*
X0057463Y0120663D02*
X0056696Y0121431D01*
X0056696Y0122965D01*
X0057463Y0123733D01*
X0058231Y0123733D01*
X0058998Y0122965D01*
X0059765Y0123733D01*
X0060533Y0123733D01*
X0061300Y0122965D01*
X0061300Y0121431D01*
X0060533Y0120663D01*
X0058998Y0122198D02*
X0058998Y0122965D01*
X0059765Y0131456D02*
X0059765Y0133758D01*
X0058998Y0134525D01*
X0057463Y0134525D01*
X0056696Y0133758D01*
X0056696Y0131456D01*
X0061300Y0131456D01*
X0059765Y0132990D02*
X0061300Y0134525D01*
X0061300Y0136060D02*
X0061300Y0139129D01*
X0061300Y0140663D02*
X0058231Y0143733D01*
X0057463Y0143733D01*
X0056696Y0142965D01*
X0056696Y0141431D01*
X0057463Y0140663D01*
X0061300Y0140663D02*
X0061300Y0143733D01*
X0061300Y0151456D02*
X0056696Y0151456D01*
X0056696Y0153758D01*
X0057463Y0154525D01*
X0058998Y0154525D01*
X0059765Y0153758D01*
X0059765Y0151456D01*
X0059765Y0152990D02*
X0061300Y0154525D01*
X0061300Y0156060D02*
X0061300Y0159129D01*
X0061300Y0160663D02*
X0061300Y0163733D01*
X0061300Y0162198D02*
X0056696Y0162198D01*
X0058231Y0160663D01*
X0056696Y0157594D02*
X0061300Y0157594D01*
X0058231Y0156060D02*
X0056696Y0157594D01*
X0056696Y0171456D02*
X0056696Y0173758D01*
X0057463Y0174525D01*
X0058998Y0174525D01*
X0059765Y0173758D01*
X0059765Y0171456D01*
X0059765Y0172990D02*
X0061300Y0174525D01*
X0061300Y0176060D02*
X0061300Y0179129D01*
X0061300Y0177594D02*
X0056696Y0177594D01*
X0058231Y0176060D01*
X0056696Y0171456D02*
X0061300Y0171456D01*
X0060533Y0180663D02*
X0057463Y0180663D01*
X0056696Y0181431D01*
X0056696Y0182965D01*
X0057463Y0183733D01*
X0060533Y0180663D01*
X0061300Y0181431D01*
X0061300Y0182965D01*
X0060533Y0183733D01*
X0057463Y0183733D01*
X0076696Y0184215D02*
X0077463Y0184983D01*
X0080533Y0181913D01*
X0081300Y0182681D01*
X0081300Y0184215D01*
X0080533Y0184983D01*
X0077463Y0184983D01*
X0076696Y0184215D02*
X0076696Y0182681D01*
X0077463Y0181913D01*
X0080533Y0181913D01*
X0081300Y0180379D02*
X0081300Y0177310D01*
X0078231Y0180379D01*
X0077463Y0180379D01*
X0076696Y0179612D01*
X0076696Y0178077D01*
X0077463Y0177310D01*
X0077463Y0175775D02*
X0078998Y0175775D01*
X0079765Y0175008D01*
X0079765Y0172706D01*
X0079765Y0174240D02*
X0081300Y0175775D01*
X0081300Y0172706D02*
X0076696Y0172706D01*
X0076696Y0175008D01*
X0077463Y0175775D01*
X0091700Y0181035D02*
X0092467Y0180267D01*
X0094002Y0180267D01*
X0094769Y0181035D01*
X0096304Y0181035D02*
X0097071Y0180267D01*
X0098606Y0180267D01*
X0099373Y0181035D01*
X0099373Y0184104D01*
X0098606Y0184871D01*
X0097071Y0184871D01*
X0096304Y0184104D01*
X0096304Y0183337D01*
X0097071Y0182569D01*
X0099373Y0182569D01*
X0094769Y0184104D02*
X0094002Y0184871D01*
X0092467Y0184871D01*
X0091700Y0184104D01*
X0091700Y0181035D01*
X0092467Y0195267D02*
X0094002Y0195267D01*
X0094769Y0196035D01*
X0096304Y0195267D02*
X0099373Y0195267D01*
X0097839Y0195267D02*
X0097839Y0199871D01*
X0096304Y0198337D01*
X0094769Y0199104D02*
X0094002Y0199871D01*
X0092467Y0199871D01*
X0091700Y0199104D01*
X0091700Y0196035D01*
X0092467Y0195267D01*
X0100908Y0196035D02*
X0101675Y0195267D01*
X0103210Y0195267D01*
X0103977Y0196035D01*
X0103977Y0199104D01*
X0100908Y0196035D01*
X0100908Y0199104D01*
X0101675Y0199871D01*
X0103210Y0199871D01*
X0103977Y0199104D01*
X0080050Y0198621D02*
X0080050Y0201691D01*
X0080050Y0200156D02*
X0075446Y0200156D01*
X0076981Y0198621D01*
X0077748Y0197087D02*
X0078515Y0196319D01*
X0078515Y0194017D01*
X0080050Y0194017D02*
X0075446Y0194017D01*
X0075446Y0196319D01*
X0076213Y0197087D01*
X0077748Y0197087D01*
X0078515Y0195552D02*
X0080050Y0197087D01*
X0079283Y0203225D02*
X0078515Y0203225D01*
X0077748Y0203993D01*
X0077748Y0205527D01*
X0078515Y0206295D01*
X0079283Y0206295D01*
X0080050Y0205527D01*
X0080050Y0203993D01*
X0079283Y0203225D01*
X0077748Y0203993D02*
X0076981Y0203225D01*
X0076213Y0203225D01*
X0075446Y0203993D01*
X0075446Y0205527D01*
X0076213Y0206295D01*
X0076981Y0206295D01*
X0077748Y0205527D01*
X0059059Y0206445D02*
X0059059Y0203689D01*
X0059059Y0199359D02*
X0053941Y0199359D01*
X0053941Y0202705D01*
X0053941Y0207430D02*
X0053941Y0210776D01*
X0059059Y0210776D01*
X0049398Y0220267D02*
X0047863Y0220267D01*
X0047096Y0221035D01*
X0047096Y0222569D01*
X0049398Y0222569D01*
X0050165Y0221802D01*
X0050165Y0221035D01*
X0049398Y0220267D01*
X0047096Y0222569D02*
X0048631Y0224104D01*
X0050165Y0224871D01*
X0044027Y0224871D02*
X0044027Y0220267D01*
X0045561Y0220267D02*
X0042492Y0220267D01*
X0040957Y0221035D02*
X0040190Y0220267D01*
X0038656Y0220267D01*
X0037888Y0221035D01*
X0037888Y0224104D01*
X0038656Y0224871D01*
X0040190Y0224871D01*
X0040957Y0224104D01*
X0042492Y0223337D02*
X0044027Y0224871D01*
X0037381Y0194871D02*
X0035846Y0193337D01*
X0034311Y0194104D02*
X0034311Y0192569D01*
X0033544Y0191802D01*
X0031242Y0191802D01*
X0031242Y0190267D02*
X0031242Y0194871D01*
X0033544Y0194871D01*
X0034311Y0194104D01*
X0032777Y0191802D02*
X0034311Y0190267D01*
X0035846Y0190267D02*
X0038915Y0190267D01*
X0037381Y0190267D02*
X0037381Y0194871D01*
X0036300Y0182941D02*
X0036300Y0179871D01*
X0033231Y0182941D01*
X0032463Y0182941D01*
X0031696Y0182173D01*
X0031696Y0180639D01*
X0032463Y0179871D01*
X0032463Y0178337D02*
X0031696Y0177569D01*
X0031696Y0176035D01*
X0032463Y0175267D01*
X0035533Y0175267D01*
X0036300Y0176035D01*
X0036300Y0177569D01*
X0035533Y0178337D01*
X0035533Y0162941D02*
X0036300Y0162173D01*
X0036300Y0160639D01*
X0035533Y0159871D01*
X0035533Y0158337D02*
X0036300Y0157569D01*
X0036300Y0156035D01*
X0035533Y0155267D01*
X0032463Y0155267D01*
X0031696Y0156035D01*
X0031696Y0157569D01*
X0032463Y0158337D01*
X0032463Y0159871D02*
X0031696Y0160639D01*
X0031696Y0162173D01*
X0032463Y0162941D01*
X0033231Y0162941D01*
X0033998Y0162173D01*
X0034765Y0162941D01*
X0035533Y0162941D01*
X0033998Y0162173D02*
X0033998Y0161406D01*
X0033998Y0142941D02*
X0033998Y0139871D01*
X0031696Y0142173D01*
X0036300Y0142173D01*
X0035533Y0138337D02*
X0036300Y0137569D01*
X0036300Y0136035D01*
X0035533Y0135267D01*
X0032463Y0135267D01*
X0031696Y0136035D01*
X0031696Y0137569D01*
X0032463Y0138337D01*
X0031696Y0122941D02*
X0031696Y0119871D01*
X0033998Y0119871D01*
X0033231Y0121406D01*
X0033231Y0122173D01*
X0033998Y0122941D01*
X0035533Y0122941D01*
X0036300Y0122173D01*
X0036300Y0120639D01*
X0035533Y0119871D01*
X0035533Y0118337D02*
X0036300Y0117569D01*
X0036300Y0116035D01*
X0035533Y0115267D01*
X0032463Y0115267D01*
X0031696Y0116035D01*
X0031696Y0117569D01*
X0032463Y0118337D01*
X0031696Y0102941D02*
X0032463Y0101406D01*
X0033998Y0099871D01*
X0033998Y0102173D01*
X0034765Y0102941D01*
X0035533Y0102941D01*
X0036300Y0102173D01*
X0036300Y0100639D01*
X0035533Y0099871D01*
X0033998Y0099871D01*
X0032463Y0098337D02*
X0031696Y0097569D01*
X0031696Y0096035D01*
X0032463Y0095267D01*
X0035533Y0095267D01*
X0036300Y0096035D01*
X0036300Y0097569D01*
X0035533Y0098337D01*
X0032463Y0082941D02*
X0035533Y0079871D01*
X0036300Y0079871D01*
X0035533Y0078337D02*
X0036300Y0077569D01*
X0036300Y0076035D01*
X0035533Y0075267D01*
X0032463Y0075267D01*
X0031696Y0076035D01*
X0031696Y0077569D01*
X0032463Y0078337D01*
X0031696Y0079871D02*
X0031696Y0082941D01*
X0032463Y0082941D01*
X0056696Y0071456D02*
X0061300Y0071456D01*
X0036300Y0062173D02*
X0036300Y0060639D01*
X0035533Y0059871D01*
X0034765Y0059871D01*
X0033998Y0060639D01*
X0033998Y0062173D01*
X0034765Y0062941D01*
X0035533Y0062941D01*
X0036300Y0062173D01*
X0033998Y0062173D02*
X0033231Y0062941D01*
X0032463Y0062941D01*
X0031696Y0062173D01*
X0031696Y0060639D01*
X0032463Y0059871D01*
X0033231Y0059871D01*
X0033998Y0060639D01*
X0032463Y0058337D02*
X0031696Y0057569D01*
X0031696Y0056035D01*
X0032463Y0055267D01*
X0035533Y0055267D01*
X0036300Y0056035D01*
X0036300Y0057569D01*
X0035533Y0058337D01*
X0036300Y0042941D02*
X0036300Y0039871D01*
X0036300Y0041406D02*
X0031696Y0041406D01*
X0033231Y0039871D01*
X0032463Y0038337D02*
X0031696Y0037569D01*
X0031696Y0036035D01*
X0032463Y0035267D01*
X0035533Y0035267D01*
X0036300Y0036035D01*
X0036300Y0037569D01*
X0035533Y0038337D01*
X0056696Y0033560D02*
X0061300Y0033560D01*
X0062946Y0042706D02*
X0067550Y0042706D01*
X0086696Y0040602D02*
X0091300Y0040602D01*
X0091300Y0043671D01*
X0091300Y0045206D02*
X0086696Y0045206D01*
X0086696Y0048275D01*
X0086696Y0049810D02*
X0086696Y0052111D01*
X0087463Y0052879D01*
X0090533Y0052879D01*
X0091300Y0052111D01*
X0091300Y0049810D01*
X0086696Y0049810D01*
X0088231Y0054413D02*
X0086696Y0055948D01*
X0091300Y0055948D01*
X0091300Y0054413D02*
X0091300Y0057483D01*
X0091300Y0048275D02*
X0091300Y0045206D01*
X0088998Y0045206D02*
X0088998Y0046740D01*
X0121700Y0049017D02*
X0123235Y0049017D01*
X0122467Y0049017D02*
X0122467Y0053621D01*
X0121700Y0053621D02*
X0123235Y0053621D01*
X0124769Y0052854D02*
X0124769Y0049785D01*
X0125537Y0049017D01*
X0127071Y0049017D01*
X0127839Y0049785D01*
X0127839Y0052854D01*
X0127071Y0053621D01*
X0125537Y0053621D01*
X0124769Y0052854D01*
X0142950Y0053621D02*
X0142950Y0049017D01*
X0142950Y0050552D02*
X0145252Y0050552D01*
X0146019Y0051319D01*
X0146019Y0052854D01*
X0145252Y0053621D01*
X0142950Y0053621D01*
X0144485Y0050552D02*
X0146019Y0049017D01*
X0147554Y0049017D02*
X0150623Y0053621D01*
X0147554Y0053621D02*
X0150623Y0049017D01*
X0191696Y0048225D02*
X0191696Y0051295D01*
X0192463Y0051295D01*
X0195533Y0048225D01*
X0196300Y0048225D01*
X0195533Y0046691D02*
X0196300Y0045923D01*
X0196300Y0044389D01*
X0195533Y0043621D01*
X0196300Y0042087D02*
X0194765Y0040552D01*
X0194765Y0041319D02*
X0194765Y0039017D01*
X0196300Y0039017D02*
X0191696Y0039017D01*
X0191696Y0041319D01*
X0192463Y0042087D01*
X0193998Y0042087D01*
X0194765Y0041319D01*
X0192463Y0043621D02*
X0191696Y0044389D01*
X0191696Y0045923D01*
X0192463Y0046691D01*
X0193231Y0046691D01*
X0193998Y0045923D01*
X0194765Y0046691D01*
X0195533Y0046691D01*
X0193998Y0045923D02*
X0193998Y0045156D01*
X0194765Y0059017D02*
X0194765Y0061319D01*
X0193998Y0062087D01*
X0192463Y0062087D01*
X0191696Y0061319D01*
X0191696Y0059017D01*
X0196300Y0059017D01*
X0194765Y0060552D02*
X0196300Y0062087D01*
X0195533Y0063621D02*
X0196300Y0064389D01*
X0196300Y0065923D01*
X0195533Y0066691D01*
X0194765Y0066691D01*
X0193998Y0065923D01*
X0193998Y0065156D01*
X0193998Y0065923D02*
X0193231Y0066691D01*
X0192463Y0066691D01*
X0191696Y0065923D01*
X0191696Y0064389D01*
X0192463Y0063621D01*
X0193998Y0068225D02*
X0193998Y0070527D01*
X0194765Y0071295D01*
X0195533Y0071295D01*
X0196300Y0070527D01*
X0196300Y0068993D01*
X0195533Y0068225D01*
X0193998Y0068225D01*
X0192463Y0069760D01*
X0191696Y0071295D01*
X0191696Y0079017D02*
X0191696Y0081319D01*
X0192463Y0082087D01*
X0193998Y0082087D01*
X0194765Y0081319D01*
X0194765Y0079017D01*
X0196300Y0079017D02*
X0191696Y0079017D01*
X0194765Y0080552D02*
X0196300Y0082087D01*
X0195533Y0083621D02*
X0196300Y0084389D01*
X0196300Y0085923D01*
X0195533Y0086691D01*
X0194765Y0086691D01*
X0193998Y0085923D01*
X0193998Y0085156D01*
X0193998Y0085923D02*
X0193231Y0086691D01*
X0192463Y0086691D01*
X0191696Y0085923D01*
X0191696Y0084389D01*
X0192463Y0083621D01*
X0191696Y0088225D02*
X0193998Y0088225D01*
X0193231Y0089760D01*
X0193231Y0090527D01*
X0193998Y0091295D01*
X0195533Y0091295D01*
X0196300Y0090527D01*
X0196300Y0088993D01*
X0195533Y0088225D01*
X0191696Y0088225D02*
X0191696Y0091295D01*
X0191696Y0099017D02*
X0191696Y0101319D01*
X0192463Y0102087D01*
X0193998Y0102087D01*
X0194765Y0101319D01*
X0194765Y0099017D01*
X0196300Y0099017D02*
X0191696Y0099017D01*
X0194765Y0100552D02*
X0196300Y0102087D01*
X0195533Y0103621D02*
X0196300Y0104389D01*
X0196300Y0105923D01*
X0195533Y0106691D01*
X0194765Y0106691D01*
X0193998Y0105923D01*
X0193998Y0105156D01*
X0193998Y0105923D02*
X0193231Y0106691D01*
X0192463Y0106691D01*
X0191696Y0105923D01*
X0191696Y0104389D01*
X0192463Y0103621D01*
X0193998Y0108225D02*
X0193998Y0111295D01*
X0191696Y0110527D02*
X0193998Y0108225D01*
X0196300Y0110527D02*
X0191696Y0110527D01*
X0191696Y0119017D02*
X0191696Y0121319D01*
X0192463Y0122087D01*
X0193998Y0122087D01*
X0194765Y0121319D01*
X0194765Y0119017D01*
X0196300Y0119017D02*
X0191696Y0119017D01*
X0194765Y0120552D02*
X0196300Y0122087D01*
X0195533Y0123621D02*
X0196300Y0124389D01*
X0196300Y0125923D01*
X0195533Y0126691D01*
X0194765Y0126691D01*
X0193998Y0125923D01*
X0193998Y0125156D01*
X0193998Y0125923D02*
X0193231Y0126691D01*
X0192463Y0126691D01*
X0191696Y0125923D01*
X0191696Y0124389D01*
X0192463Y0123621D01*
X0192463Y0128225D02*
X0191696Y0128993D01*
X0191696Y0130527D01*
X0192463Y0131295D01*
X0193231Y0131295D01*
X0193998Y0130527D01*
X0194765Y0131295D01*
X0195533Y0131295D01*
X0196300Y0130527D01*
X0196300Y0128993D01*
X0195533Y0128225D01*
X0193998Y0129760D02*
X0193998Y0130527D01*
X0194765Y0139017D02*
X0194765Y0141319D01*
X0193998Y0142087D01*
X0192463Y0142087D01*
X0191696Y0141319D01*
X0191696Y0139017D01*
X0196300Y0139017D01*
X0194765Y0140552D02*
X0196300Y0142087D01*
X0195533Y0143621D02*
X0196300Y0144389D01*
X0196300Y0145923D01*
X0195533Y0146691D01*
X0194765Y0146691D01*
X0193998Y0145923D01*
X0193998Y0145156D01*
X0193998Y0145923D02*
X0193231Y0146691D01*
X0192463Y0146691D01*
X0191696Y0145923D01*
X0191696Y0144389D01*
X0192463Y0143621D01*
X0192463Y0148225D02*
X0191696Y0148993D01*
X0191696Y0150527D01*
X0192463Y0151295D01*
X0193231Y0151295D01*
X0196300Y0148225D01*
X0196300Y0151295D01*
X0196300Y0159017D02*
X0191696Y0159017D01*
X0191696Y0161319D01*
X0192463Y0162087D01*
X0193998Y0162087D01*
X0194765Y0161319D01*
X0194765Y0159017D01*
X0194765Y0160552D02*
X0196300Y0162087D01*
X0195533Y0163621D02*
X0196300Y0164389D01*
X0196300Y0165923D01*
X0195533Y0166691D01*
X0194765Y0166691D01*
X0193998Y0165923D01*
X0193998Y0165156D01*
X0193998Y0165923D02*
X0193231Y0166691D01*
X0192463Y0166691D01*
X0191696Y0165923D01*
X0191696Y0164389D01*
X0192463Y0163621D01*
X0193231Y0168225D02*
X0191696Y0169760D01*
X0196300Y0169760D01*
X0196300Y0168225D02*
X0196300Y0171295D01*
X0196300Y0179017D02*
X0191696Y0179017D01*
X0191696Y0181319D01*
X0192463Y0182087D01*
X0193998Y0182087D01*
X0194765Y0181319D01*
X0194765Y0179017D01*
X0194765Y0180552D02*
X0196300Y0182087D01*
X0196300Y0183621D02*
X0196300Y0186691D01*
X0196300Y0188225D02*
X0195533Y0188225D01*
X0192463Y0191295D01*
X0191696Y0191295D01*
X0191696Y0188225D01*
X0191696Y0185156D02*
X0196300Y0185156D01*
X0193231Y0183621D02*
X0191696Y0185156D01*
X0153800Y0158590D02*
X0153800Y0157056D01*
X0153033Y0156288D01*
X0153033Y0154754D02*
X0152265Y0154754D01*
X0151498Y0153986D01*
X0151498Y0151684D01*
X0153033Y0151684D01*
X0153800Y0152452D01*
X0153800Y0153986D01*
X0153033Y0154754D01*
X0151498Y0157823D02*
X0151498Y0158590D01*
X0152265Y0159358D01*
X0153033Y0159358D01*
X0153800Y0158590D01*
X0151498Y0158590D02*
X0150731Y0159358D01*
X0149963Y0159358D01*
X0149196Y0158590D01*
X0149196Y0157056D01*
X0149963Y0156288D01*
X0149196Y0154754D02*
X0149963Y0153219D01*
X0151498Y0151684D01*
X0151498Y0150150D02*
X0151498Y0147081D01*
X0149196Y0149383D01*
X0153800Y0149383D01*
X0151498Y0145546D02*
X0151498Y0142477D01*
X0149196Y0144779D01*
X0153800Y0144779D01*
X0153800Y0140942D02*
X0153800Y0139407D01*
X0153800Y0140175D02*
X0150731Y0140175D01*
X0150731Y0139407D01*
X0149963Y0137873D02*
X0149196Y0137105D01*
X0149196Y0135571D01*
X0149963Y0134803D01*
X0150731Y0134803D01*
X0151498Y0135571D01*
X0151498Y0137105D01*
X0152265Y0137873D01*
X0153033Y0137873D01*
X0153800Y0137105D01*
X0153800Y0135571D01*
X0153033Y0134803D01*
X0151498Y0133269D02*
X0151498Y0130200D01*
X0149196Y0128665D02*
X0153800Y0128665D01*
X0153800Y0125596D02*
X0149196Y0125596D01*
X0150731Y0127130D01*
X0149196Y0128665D01*
X0149196Y0124061D02*
X0149196Y0120992D01*
X0149196Y0122526D02*
X0153800Y0122526D01*
X0149196Y0140175D02*
X0148429Y0140175D01*
X0119300Y0132965D02*
X0119300Y0131431D01*
X0118533Y0130663D01*
X0116998Y0130663D02*
X0116231Y0132198D01*
X0116231Y0132965D01*
X0116998Y0133733D01*
X0118533Y0133733D01*
X0119300Y0132965D01*
X0116998Y0130663D02*
X0114696Y0130663D01*
X0114696Y0133733D01*
X0114696Y0127594D02*
X0119300Y0127594D01*
X0119300Y0126060D02*
X0119300Y0129129D01*
X0116231Y0126060D02*
X0114696Y0127594D01*
X0115463Y0124525D02*
X0114696Y0123758D01*
X0114696Y0122223D01*
X0115463Y0121456D01*
X0118533Y0121456D01*
X0119300Y0122223D01*
X0119300Y0123758D01*
X0118533Y0124525D01*
X0122463Y0113733D02*
X0121696Y0112965D01*
X0121696Y0111431D01*
X0122463Y0110663D01*
X0122463Y0113733D02*
X0123231Y0113733D01*
X0126300Y0110663D01*
X0126300Y0113733D01*
X0126300Y0109129D02*
X0126300Y0106060D01*
X0126300Y0107594D02*
X0121696Y0107594D01*
X0123231Y0106060D01*
X0122463Y0104525D02*
X0121696Y0103758D01*
X0121696Y0102223D01*
X0122463Y0101456D01*
X0125533Y0101456D01*
X0126300Y0102223D01*
X0126300Y0103758D01*
X0125533Y0104525D01*
X0100229Y0118512D02*
X0097160Y0118512D01*
X0098694Y0118512D02*
X0098694Y0123115D01*
X0097160Y0121581D01*
X0094091Y0123115D02*
X0094091Y0118512D01*
X0095625Y0118512D02*
X0092556Y0118512D01*
X0091021Y0119279D02*
X0090254Y0118512D01*
X0088719Y0118512D01*
X0087952Y0119279D01*
X0087952Y0122348D01*
X0088719Y0123115D01*
X0090254Y0123115D01*
X0091021Y0122348D01*
X0092556Y0121581D02*
X0094091Y0123115D01*
X0095625Y0142767D02*
X0092556Y0142767D01*
X0095625Y0145837D01*
X0095625Y0146604D01*
X0094858Y0147371D01*
X0093323Y0147371D01*
X0092556Y0146604D01*
X0091021Y0146604D02*
X0090254Y0147371D01*
X0088719Y0147371D01*
X0087952Y0146604D01*
X0087952Y0143535D01*
X0088719Y0142767D01*
X0090254Y0142767D01*
X0091021Y0143535D01*
X0097160Y0143535D02*
X0097160Y0142767D01*
X0097160Y0143535D02*
X0100229Y0146604D01*
X0100229Y0147371D01*
X0097160Y0147371D01*
X0061300Y0137594D02*
X0056696Y0137594D01*
X0058231Y0136060D01*
X0056696Y0111456D02*
X0061300Y0111456D01*
X0162156Y0217747D02*
X0165226Y0217747D01*
X0165993Y0218514D01*
X0165993Y0220049D01*
X0165226Y0220816D01*
X0165993Y0222351D02*
X0165993Y0225420D01*
X0165993Y0223886D02*
X0161389Y0223886D01*
X0162924Y0222351D01*
X0162156Y0220816D02*
X0161389Y0220049D01*
X0161389Y0218514D01*
X0162156Y0217747D01*
X0162156Y0226955D02*
X0161389Y0227722D01*
X0161389Y0229257D01*
X0162156Y0230024D01*
X0162924Y0230024D01*
X0163691Y0229257D01*
X0164458Y0230024D01*
X0165226Y0230024D01*
X0165993Y0229257D01*
X0165993Y0227722D01*
X0165226Y0226955D01*
X0163691Y0228489D02*
X0163691Y0229257D01*
X0138600Y0227941D02*
X0135531Y0231010D01*
X0134763Y0231010D01*
X0133996Y0230243D01*
X0133996Y0228708D01*
X0134763Y0227941D01*
X0134763Y0226406D02*
X0133996Y0225639D01*
X0133996Y0224104D01*
X0134763Y0223337D01*
X0137833Y0223337D01*
X0138600Y0224104D01*
X0138600Y0225639D01*
X0137833Y0226406D01*
X0138600Y0227941D02*
X0138600Y0231010D01*
X0138600Y0221802D02*
X0138600Y0220267D01*
X0138600Y0221035D02*
X0133996Y0221035D01*
X0133996Y0221802D02*
X0133996Y0220267D01*
X0240209Y0267984D02*
X0243278Y0272588D01*
X0244813Y0271053D02*
X0246347Y0272588D01*
X0246347Y0267984D01*
X0244813Y0267984D02*
X0247882Y0267984D01*
X0243278Y0267984D02*
X0240209Y0272588D01*
X0340209Y0272588D02*
X0343278Y0267984D01*
X0344813Y0267984D02*
X0347882Y0271053D01*
X0347882Y0271821D01*
X0347115Y0272588D01*
X0345580Y0272588D01*
X0344813Y0271821D01*
X0343278Y0272588D02*
X0340209Y0267984D01*
X0344813Y0267984D02*
X0347882Y0267984D01*
X0305533Y0187545D02*
X0306300Y0186777D01*
X0306300Y0185243D01*
X0305533Y0184475D01*
X0304765Y0184475D01*
X0303998Y0185243D01*
X0303998Y0186777D01*
X0304765Y0187545D01*
X0305533Y0187545D01*
X0303998Y0186777D02*
X0303231Y0187545D01*
X0302463Y0187545D01*
X0301696Y0186777D01*
X0301696Y0185243D01*
X0302463Y0184475D01*
X0303231Y0184475D01*
X0303998Y0185243D01*
X0303231Y0182941D02*
X0302463Y0182941D01*
X0301696Y0182173D01*
X0301696Y0180639D01*
X0302463Y0179871D01*
X0302463Y0178337D02*
X0301696Y0177569D01*
X0301696Y0176035D01*
X0302463Y0175267D01*
X0305533Y0175267D01*
X0306300Y0176035D01*
X0306300Y0177569D01*
X0305533Y0178337D01*
X0306300Y0179871D02*
X0303231Y0182941D01*
X0306300Y0182941D02*
X0306300Y0179871D01*
X0307463Y0167545D02*
X0306696Y0166777D01*
X0306696Y0165243D01*
X0307463Y0164475D01*
X0308231Y0164475D01*
X0308998Y0165243D01*
X0308998Y0167545D01*
X0310533Y0167545D02*
X0307463Y0167545D01*
X0310533Y0167545D02*
X0311300Y0166777D01*
X0311300Y0165243D01*
X0310533Y0164475D01*
X0311300Y0162941D02*
X0311300Y0159871D01*
X0308231Y0162941D01*
X0307463Y0162941D01*
X0306696Y0162173D01*
X0306696Y0160639D01*
X0307463Y0159871D01*
X0307463Y0158337D02*
X0306696Y0157569D01*
X0306696Y0156035D01*
X0307463Y0155267D01*
X0310533Y0155267D01*
X0311300Y0156035D01*
X0311300Y0157569D01*
X0310533Y0158337D01*
X0305533Y0147545D02*
X0306300Y0146777D01*
X0306300Y0145243D01*
X0305533Y0144475D01*
X0302463Y0147545D01*
X0305533Y0147545D01*
X0302463Y0147545D02*
X0301696Y0146777D01*
X0301696Y0145243D01*
X0302463Y0144475D01*
X0305533Y0144475D01*
X0305533Y0142941D02*
X0306300Y0142173D01*
X0306300Y0140639D01*
X0305533Y0139871D01*
X0305533Y0138337D02*
X0306300Y0137569D01*
X0306300Y0136035D01*
X0305533Y0135267D01*
X0302463Y0135267D01*
X0301696Y0136035D01*
X0301696Y0137569D01*
X0302463Y0138337D01*
X0302463Y0139871D02*
X0301696Y0140639D01*
X0301696Y0142173D01*
X0302463Y0142941D01*
X0303231Y0142941D01*
X0303998Y0142173D01*
X0304765Y0142941D01*
X0305533Y0142941D01*
X0303998Y0142173D02*
X0303998Y0141406D01*
X0311300Y0127545D02*
X0311300Y0124475D01*
X0311300Y0126010D02*
X0306696Y0126010D01*
X0308231Y0124475D01*
X0308231Y0122941D02*
X0308998Y0122173D01*
X0309765Y0122941D01*
X0310533Y0122941D01*
X0311300Y0122173D01*
X0311300Y0120639D01*
X0310533Y0119871D01*
X0310533Y0118337D02*
X0311300Y0117569D01*
X0311300Y0116035D01*
X0310533Y0115267D01*
X0307463Y0115267D01*
X0306696Y0116035D01*
X0306696Y0117569D01*
X0307463Y0118337D01*
X0307463Y0119871D02*
X0306696Y0120639D01*
X0306696Y0122173D01*
X0307463Y0122941D01*
X0308231Y0122941D01*
X0308998Y0122173D02*
X0308998Y0121406D01*
X0306300Y0107545D02*
X0306300Y0104475D01*
X0303231Y0107545D01*
X0302463Y0107545D01*
X0301696Y0106777D01*
X0301696Y0105243D01*
X0302463Y0104475D01*
X0302463Y0102941D02*
X0303231Y0102941D01*
X0303998Y0102173D01*
X0304765Y0102941D01*
X0305533Y0102941D01*
X0306300Y0102173D01*
X0306300Y0100639D01*
X0305533Y0099871D01*
X0305533Y0098337D02*
X0306300Y0097569D01*
X0306300Y0096035D01*
X0305533Y0095267D01*
X0302463Y0095267D01*
X0301696Y0096035D01*
X0301696Y0097569D01*
X0302463Y0098337D01*
X0302463Y0099871D02*
X0301696Y0100639D01*
X0301696Y0102173D01*
X0302463Y0102941D01*
X0303998Y0102173D02*
X0303998Y0101406D01*
X0307463Y0087545D02*
X0308231Y0087545D01*
X0308998Y0086777D01*
X0309765Y0087545D01*
X0310533Y0087545D01*
X0311300Y0086777D01*
X0311300Y0085243D01*
X0310533Y0084475D01*
X0310533Y0082941D02*
X0311300Y0082173D01*
X0311300Y0080639D01*
X0310533Y0079871D01*
X0310533Y0078337D02*
X0311300Y0077569D01*
X0311300Y0076035D01*
X0310533Y0075267D01*
X0307463Y0075267D01*
X0306696Y0076035D01*
X0306696Y0077569D01*
X0307463Y0078337D01*
X0307463Y0079871D02*
X0306696Y0080639D01*
X0306696Y0082173D01*
X0307463Y0082941D01*
X0308231Y0082941D01*
X0308998Y0082173D01*
X0309765Y0082941D01*
X0310533Y0082941D01*
X0308998Y0082173D02*
X0308998Y0081406D01*
X0307463Y0084475D02*
X0306696Y0085243D01*
X0306696Y0086777D01*
X0307463Y0087545D01*
X0308998Y0086777D02*
X0308998Y0086010D01*
X0286873Y0086604D02*
X0283804Y0083535D01*
X0283804Y0082767D01*
X0282269Y0082767D02*
X0280735Y0084302D01*
X0282269Y0083535D02*
X0281502Y0082767D01*
X0279967Y0082767D01*
X0279200Y0083535D01*
X0279200Y0086604D01*
X0279967Y0087371D01*
X0281502Y0087371D01*
X0282269Y0086604D01*
X0282269Y0083535D01*
X0278800Y0083993D02*
X0278800Y0085527D01*
X0278033Y0086295D01*
X0277265Y0086295D01*
X0276498Y0085527D01*
X0276498Y0083225D01*
X0278033Y0083225D01*
X0278800Y0083993D01*
X0278800Y0084810D02*
X0274196Y0084810D01*
X0274196Y0087112D01*
X0274963Y0087879D01*
X0276498Y0087879D01*
X0277265Y0087112D01*
X0277265Y0084810D01*
X0277265Y0086344D02*
X0278800Y0087879D01*
X0278033Y0089413D02*
X0278800Y0090181D01*
X0278800Y0091715D01*
X0278033Y0092483D01*
X0277265Y0092483D01*
X0276498Y0091715D01*
X0276498Y0089413D01*
X0278033Y0089413D01*
X0276498Y0089413D02*
X0274963Y0090948D01*
X0274196Y0092483D01*
X0274196Y0094017D02*
X0274196Y0096319D01*
X0274963Y0097087D01*
X0276498Y0097087D01*
X0277265Y0096319D01*
X0277265Y0094017D01*
X0278800Y0094017D02*
X0274196Y0094017D01*
X0277265Y0095552D02*
X0278800Y0097087D01*
X0278800Y0098621D02*
X0275731Y0101691D01*
X0274963Y0101691D01*
X0274196Y0100923D01*
X0274196Y0099389D01*
X0274963Y0098621D01*
X0278800Y0098621D02*
X0278800Y0101691D01*
X0279967Y0102767D02*
X0279200Y0103535D01*
X0279200Y0106604D01*
X0279967Y0107371D01*
X0281502Y0107371D01*
X0282269Y0106604D01*
X0282269Y0103535D01*
X0281502Y0102767D01*
X0279967Y0102767D01*
X0278800Y0103993D02*
X0278033Y0103225D01*
X0278800Y0103993D02*
X0278800Y0105527D01*
X0278033Y0106295D01*
X0276498Y0106295D01*
X0275731Y0105527D01*
X0275731Y0104760D01*
X0276498Y0103225D01*
X0274196Y0103225D01*
X0274196Y0106295D01*
X0274196Y0107112D02*
X0274963Y0107879D01*
X0276498Y0107879D01*
X0277265Y0107112D01*
X0277265Y0104810D01*
X0277265Y0106344D02*
X0278800Y0107879D01*
X0278033Y0109413D02*
X0278800Y0110181D01*
X0278800Y0111715D01*
X0278033Y0112483D01*
X0276498Y0112483D01*
X0275731Y0111715D01*
X0275731Y0110948D01*
X0276498Y0109413D01*
X0274196Y0109413D01*
X0274196Y0112483D01*
X0274196Y0114017D02*
X0274196Y0116319D01*
X0274963Y0117087D01*
X0276498Y0117087D01*
X0277265Y0116319D01*
X0277265Y0114017D01*
X0278800Y0114017D02*
X0274196Y0114017D01*
X0277265Y0115552D02*
X0278800Y0117087D01*
X0278800Y0118621D02*
X0275731Y0121691D01*
X0274963Y0121691D01*
X0274196Y0120923D01*
X0274196Y0119389D01*
X0274963Y0118621D01*
X0278800Y0118621D02*
X0278800Y0121691D01*
X0279967Y0122767D02*
X0279200Y0123535D01*
X0279200Y0126604D01*
X0279967Y0127371D01*
X0281502Y0127371D01*
X0282269Y0126604D01*
X0282269Y0123535D01*
X0281502Y0122767D01*
X0279967Y0122767D01*
X0280735Y0124302D02*
X0282269Y0122767D01*
X0283804Y0123535D02*
X0284571Y0122767D01*
X0286106Y0122767D01*
X0286873Y0123535D01*
X0286873Y0125069D01*
X0286106Y0125837D01*
X0285339Y0125837D01*
X0283804Y0125069D01*
X0283804Y0127371D01*
X0286873Y0127371D01*
X0278800Y0127879D02*
X0277265Y0126344D01*
X0277265Y0127112D02*
X0277265Y0124810D01*
X0278800Y0124810D02*
X0274196Y0124810D01*
X0274196Y0127112D01*
X0274963Y0127879D01*
X0276498Y0127879D01*
X0277265Y0127112D01*
X0276498Y0126295D02*
X0276498Y0123225D01*
X0274196Y0125527D01*
X0278800Y0125527D01*
X0276498Y0129413D02*
X0276498Y0132483D01*
X0277265Y0134017D02*
X0277265Y0136319D01*
X0276498Y0137087D01*
X0274963Y0137087D01*
X0274196Y0136319D01*
X0274196Y0134017D01*
X0278800Y0134017D01*
X0277265Y0135552D02*
X0278800Y0137087D01*
X0278800Y0138621D02*
X0275731Y0141691D01*
X0274963Y0141691D01*
X0274196Y0140923D01*
X0274196Y0139389D01*
X0274963Y0138621D01*
X0278800Y0138621D02*
X0278800Y0141691D01*
X0279967Y0142767D02*
X0279200Y0143535D01*
X0279200Y0146604D01*
X0279967Y0147371D01*
X0281502Y0147371D01*
X0282269Y0146604D01*
X0282269Y0143535D01*
X0281502Y0142767D01*
X0279967Y0142767D01*
X0278800Y0143993D02*
X0278033Y0143225D01*
X0278800Y0143993D02*
X0278800Y0145527D01*
X0278033Y0146295D01*
X0277265Y0146295D01*
X0276498Y0145527D01*
X0276498Y0144760D01*
X0276498Y0145527D02*
X0275731Y0146295D01*
X0274963Y0146295D01*
X0274196Y0145527D01*
X0274196Y0143993D01*
X0274963Y0143225D01*
X0274196Y0144810D02*
X0274196Y0147112D01*
X0274963Y0147879D01*
X0276498Y0147879D01*
X0277265Y0147112D01*
X0277265Y0144810D01*
X0277265Y0146344D02*
X0278800Y0147879D01*
X0278033Y0149413D02*
X0278800Y0150181D01*
X0278800Y0151715D01*
X0278033Y0152483D01*
X0277265Y0152483D01*
X0276498Y0151715D01*
X0276498Y0150948D01*
X0276498Y0151715D02*
X0275731Y0152483D01*
X0274963Y0152483D01*
X0274196Y0151715D01*
X0274196Y0150181D01*
X0274963Y0149413D01*
X0274196Y0144810D02*
X0278800Y0144810D01*
X0280735Y0144302D02*
X0282269Y0142767D01*
X0283804Y0145069D02*
X0286873Y0145069D01*
X0286106Y0142767D02*
X0286106Y0147371D01*
X0283804Y0145069D01*
X0278800Y0155267D02*
X0274196Y0155267D01*
X0274196Y0157569D01*
X0274963Y0158337D01*
X0276498Y0158337D01*
X0277265Y0157569D01*
X0277265Y0155267D01*
X0277265Y0156802D02*
X0278800Y0158337D01*
X0278800Y0159871D02*
X0275731Y0162941D01*
X0274963Y0162941D01*
X0274196Y0162173D01*
X0274196Y0160639D01*
X0274963Y0159871D01*
X0278800Y0159871D02*
X0278800Y0162941D01*
X0279200Y0163535D02*
X0279967Y0162767D01*
X0281502Y0162767D01*
X0282269Y0163535D01*
X0282269Y0166604D01*
X0281502Y0167371D01*
X0279967Y0167371D01*
X0279200Y0166604D01*
X0279200Y0163535D01*
X0278800Y0164475D02*
X0275731Y0167545D01*
X0274963Y0167545D01*
X0274196Y0166777D01*
X0274196Y0165243D01*
X0274963Y0164475D01*
X0274196Y0164810D02*
X0274196Y0167112D01*
X0274963Y0167879D01*
X0276498Y0167879D01*
X0277265Y0167112D01*
X0277265Y0164810D01*
X0277265Y0166344D02*
X0278800Y0167879D01*
X0278800Y0167545D02*
X0278800Y0164475D01*
X0278800Y0164810D02*
X0274196Y0164810D01*
X0274963Y0169413D02*
X0274196Y0170181D01*
X0274196Y0171715D01*
X0274963Y0172483D01*
X0275731Y0172483D01*
X0278800Y0169413D01*
X0278800Y0172483D01*
X0278800Y0175267D02*
X0274196Y0175267D01*
X0274196Y0177569D01*
X0274963Y0178337D01*
X0276498Y0178337D01*
X0277265Y0177569D01*
X0277265Y0175267D01*
X0277265Y0176802D02*
X0278800Y0178337D01*
X0278800Y0179871D02*
X0275731Y0182941D01*
X0274963Y0182941D01*
X0274196Y0182173D01*
X0274196Y0180639D01*
X0274963Y0179871D01*
X0278800Y0179871D02*
X0278800Y0182941D01*
X0279200Y0183535D02*
X0279967Y0182767D01*
X0281502Y0182767D01*
X0282269Y0183535D01*
X0282269Y0186604D01*
X0281502Y0187371D01*
X0279967Y0187371D01*
X0279200Y0186604D01*
X0279200Y0183535D01*
X0278800Y0184475D02*
X0278800Y0187545D01*
X0278800Y0186010D02*
X0274196Y0186010D01*
X0275731Y0184475D01*
X0280735Y0184302D02*
X0282269Y0182767D01*
X0283804Y0182767D02*
X0286873Y0185837D01*
X0286873Y0186604D01*
X0286106Y0187371D01*
X0284571Y0187371D01*
X0283804Y0186604D01*
X0283804Y0182767D02*
X0286873Y0182767D01*
X0286106Y0167371D02*
X0286873Y0166604D01*
X0286873Y0165837D01*
X0286106Y0165069D01*
X0286873Y0164302D01*
X0286873Y0163535D01*
X0286106Y0162767D01*
X0284571Y0162767D01*
X0283804Y0163535D01*
X0282269Y0162767D02*
X0280735Y0164302D01*
X0283804Y0166604D02*
X0284571Y0167371D01*
X0286106Y0167371D01*
X0286106Y0165069D02*
X0285339Y0165069D01*
X0278800Y0131715D02*
X0274196Y0131715D01*
X0276498Y0129413D01*
X0274196Y0107112D02*
X0274196Y0104810D01*
X0278800Y0104810D01*
X0280735Y0104302D02*
X0282269Y0102767D01*
X0283804Y0103535D02*
X0283804Y0105069D01*
X0286106Y0105069D01*
X0286873Y0104302D01*
X0286873Y0103535D01*
X0286106Y0102767D01*
X0284571Y0102767D01*
X0283804Y0103535D01*
X0283804Y0105069D02*
X0285339Y0106604D01*
X0286873Y0107371D01*
X0286873Y0087371D02*
X0286873Y0086604D01*
X0286873Y0087371D02*
X0283804Y0087371D01*
X0278800Y0081691D02*
X0278800Y0078621D01*
X0275731Y0081691D01*
X0274963Y0081691D01*
X0274196Y0080923D01*
X0274196Y0079389D01*
X0274963Y0078621D01*
X0274963Y0077087D02*
X0276498Y0077087D01*
X0277265Y0076319D01*
X0277265Y0074017D01*
X0278800Y0074017D02*
X0274196Y0074017D01*
X0274196Y0076319D01*
X0274963Y0077087D01*
X0277265Y0075552D02*
X0278800Y0077087D01*
X0274963Y0072483D02*
X0278033Y0069413D01*
X0278800Y0069413D01*
X0278800Y0067879D02*
X0277265Y0066344D01*
X0277265Y0067112D02*
X0277265Y0064810D01*
X0278800Y0064810D02*
X0274196Y0064810D01*
X0274196Y0067112D01*
X0274963Y0067879D01*
X0276498Y0067879D01*
X0277265Y0067112D01*
X0279200Y0066604D02*
X0279967Y0067371D01*
X0281502Y0067371D01*
X0282269Y0066604D01*
X0282269Y0063535D01*
X0281502Y0062767D01*
X0279967Y0062767D01*
X0279200Y0063535D01*
X0279200Y0066604D01*
X0280735Y0064302D02*
X0282269Y0062767D01*
X0283804Y0063535D02*
X0283804Y0064302D01*
X0284571Y0065069D01*
X0286106Y0065069D01*
X0286873Y0064302D01*
X0286873Y0063535D01*
X0286106Y0062767D01*
X0284571Y0062767D01*
X0283804Y0063535D01*
X0284571Y0065069D02*
X0283804Y0065837D01*
X0283804Y0066604D01*
X0284571Y0067371D01*
X0286106Y0067371D01*
X0286873Y0066604D01*
X0286873Y0065837D01*
X0286106Y0065069D01*
X0278800Y0063225D02*
X0278033Y0063225D01*
X0274963Y0066295D01*
X0274196Y0066295D01*
X0274196Y0063225D01*
X0274963Y0061691D02*
X0274196Y0060923D01*
X0274196Y0059389D01*
X0274963Y0058621D01*
X0274963Y0057087D02*
X0276498Y0057087D01*
X0277265Y0056319D01*
X0277265Y0054017D01*
X0277265Y0052483D02*
X0278033Y0052483D01*
X0278800Y0051715D01*
X0278800Y0050181D01*
X0278033Y0049413D01*
X0277265Y0049413D01*
X0276498Y0050181D01*
X0276498Y0051715D01*
X0277265Y0052483D01*
X0276498Y0051715D02*
X0275731Y0052483D01*
X0274963Y0052483D01*
X0274196Y0051715D01*
X0274196Y0050181D01*
X0274963Y0049413D01*
X0275731Y0049413D01*
X0276498Y0050181D01*
X0276498Y0047879D02*
X0274963Y0047879D01*
X0274196Y0047112D01*
X0274196Y0044810D01*
X0278800Y0044810D01*
X0278800Y0045527D02*
X0278800Y0043993D01*
X0278033Y0043225D01*
X0277265Y0043225D01*
X0276498Y0043993D01*
X0276498Y0045527D01*
X0277265Y0046295D01*
X0278033Y0046295D01*
X0278800Y0045527D01*
X0277265Y0044810D02*
X0277265Y0047112D01*
X0276498Y0047879D01*
X0277265Y0046344D02*
X0278800Y0047879D01*
X0276498Y0045527D02*
X0275731Y0046295D01*
X0274963Y0046295D01*
X0274196Y0045527D01*
X0274196Y0043993D01*
X0274963Y0043225D01*
X0275731Y0043225D01*
X0276498Y0043993D01*
X0275731Y0041691D02*
X0278800Y0038621D01*
X0278800Y0041691D01*
X0279200Y0041604D02*
X0279967Y0042371D01*
X0281502Y0042371D01*
X0282269Y0041604D01*
X0282269Y0038535D01*
X0281502Y0037767D01*
X0279967Y0037767D01*
X0279200Y0038535D01*
X0279200Y0041604D01*
X0280735Y0039302D02*
X0282269Y0037767D01*
X0283804Y0038535D02*
X0284571Y0037767D01*
X0286106Y0037767D01*
X0286873Y0038535D01*
X0286873Y0041604D01*
X0286106Y0042371D01*
X0284571Y0042371D01*
X0283804Y0041604D01*
X0283804Y0040837D01*
X0284571Y0040069D01*
X0286873Y0040069D01*
X0278800Y0037087D02*
X0277265Y0035552D01*
X0277265Y0036319D02*
X0277265Y0034017D01*
X0278800Y0034017D02*
X0274196Y0034017D01*
X0274196Y0036319D01*
X0274963Y0037087D01*
X0276498Y0037087D01*
X0277265Y0036319D01*
X0274963Y0038621D02*
X0274196Y0039389D01*
X0274196Y0040923D01*
X0274963Y0041691D01*
X0275731Y0041691D01*
X0276498Y0032483D02*
X0276498Y0030181D01*
X0275731Y0029413D01*
X0274963Y0029413D01*
X0274196Y0030181D01*
X0274196Y0031715D01*
X0274963Y0032483D01*
X0278033Y0032483D01*
X0278800Y0031715D01*
X0278800Y0030181D01*
X0278033Y0029413D01*
X0278800Y0027879D02*
X0278800Y0024810D01*
X0278800Y0026344D02*
X0274196Y0026344D01*
X0275731Y0024810D01*
X0276498Y0023275D02*
X0274963Y0023275D01*
X0274196Y0022508D01*
X0274196Y0020206D01*
X0278800Y0020206D01*
X0277265Y0020206D02*
X0277265Y0022508D01*
X0276498Y0023275D01*
X0277265Y0021740D02*
X0278800Y0023275D01*
X0305446Y0034785D02*
X0306213Y0034017D01*
X0309283Y0034017D01*
X0310050Y0034785D01*
X0310050Y0036319D01*
X0309283Y0037087D01*
X0309283Y0038621D02*
X0310050Y0039389D01*
X0310050Y0040923D01*
X0309283Y0041691D01*
X0308515Y0041691D01*
X0307748Y0040923D01*
X0307748Y0040156D01*
X0307748Y0040923D02*
X0306981Y0041691D01*
X0306213Y0041691D01*
X0305446Y0040923D01*
X0305446Y0039389D01*
X0306213Y0038621D01*
X0306213Y0037087D02*
X0305446Y0036319D01*
X0305446Y0034785D01*
X0305446Y0043225D02*
X0307748Y0043225D01*
X0306981Y0044760D01*
X0306981Y0045527D01*
X0307748Y0046295D01*
X0309283Y0046295D01*
X0310050Y0045527D01*
X0310050Y0043993D01*
X0309283Y0043225D01*
X0305446Y0043225D02*
X0305446Y0046295D01*
X0305533Y0055267D02*
X0306300Y0056035D01*
X0306300Y0057569D01*
X0305533Y0058337D01*
X0305533Y0059871D02*
X0306300Y0060639D01*
X0306300Y0062173D01*
X0305533Y0062941D01*
X0304765Y0062941D01*
X0303998Y0062173D01*
X0303998Y0061406D01*
X0303998Y0062173D02*
X0303231Y0062941D01*
X0302463Y0062941D01*
X0301696Y0062173D01*
X0301696Y0060639D01*
X0302463Y0059871D01*
X0302463Y0058337D02*
X0301696Y0057569D01*
X0301696Y0056035D01*
X0302463Y0055267D01*
X0305533Y0055267D01*
X0303998Y0064475D02*
X0303998Y0067545D01*
X0301696Y0066777D02*
X0303998Y0064475D01*
X0306300Y0066777D02*
X0301696Y0066777D01*
X0278800Y0061691D02*
X0278800Y0058621D01*
X0275731Y0061691D01*
X0274963Y0061691D01*
X0274963Y0057087D02*
X0274196Y0056319D01*
X0274196Y0054017D01*
X0278800Y0054017D01*
X0277265Y0055552D02*
X0278800Y0057087D01*
X0274196Y0069413D02*
X0274196Y0072483D01*
X0274963Y0072483D01*
X0276498Y0083225D02*
X0274963Y0084760D01*
X0274196Y0086295D01*
X0341196Y0084733D02*
X0341963Y0083198D01*
X0343498Y0081663D01*
X0343498Y0083965D01*
X0344265Y0084733D01*
X0345033Y0084733D01*
X0345800Y0083965D01*
X0345800Y0082431D01*
X0345033Y0081663D01*
X0343498Y0081663D01*
X0345033Y0080129D02*
X0341963Y0080129D01*
X0341196Y0079362D01*
X0341196Y0077060D01*
X0345800Y0077060D01*
X0345800Y0079362D01*
X0345033Y0080129D01*
X0351196Y0064733D02*
X0351963Y0064733D01*
X0355033Y0061663D01*
X0355800Y0061663D01*
X0355033Y0060129D02*
X0351963Y0060129D01*
X0351196Y0059362D01*
X0351196Y0057060D01*
X0355800Y0057060D01*
X0355800Y0059362D01*
X0355033Y0060129D01*
X0351196Y0061663D02*
X0351196Y0064733D01*
X0345033Y0044733D02*
X0345800Y0043965D01*
X0345800Y0042431D01*
X0345033Y0041663D01*
X0344265Y0041663D01*
X0343498Y0042431D01*
X0343498Y0043965D01*
X0344265Y0044733D01*
X0345033Y0044733D01*
X0343498Y0043965D02*
X0342731Y0044733D01*
X0341963Y0044733D01*
X0341196Y0043965D01*
X0341196Y0042431D01*
X0341963Y0041663D01*
X0342731Y0041663D01*
X0343498Y0042431D01*
X0341963Y0040129D02*
X0341196Y0039362D01*
X0341196Y0037060D01*
X0345800Y0037060D01*
X0345800Y0039362D01*
X0345033Y0040129D01*
X0341963Y0040129D01*
X0351196Y0097060D02*
X0351196Y0099362D01*
X0351963Y0100129D01*
X0355033Y0100129D01*
X0355800Y0099362D01*
X0355800Y0097060D01*
X0351196Y0097060D01*
X0351196Y0101663D02*
X0353498Y0101663D01*
X0352731Y0103198D01*
X0352731Y0103965D01*
X0353498Y0104733D01*
X0355033Y0104733D01*
X0355800Y0103965D01*
X0355800Y0102431D01*
X0355033Y0101663D01*
X0351196Y0101663D02*
X0351196Y0104733D01*
X0345300Y0117060D02*
X0340696Y0117060D01*
X0340696Y0119362D01*
X0341463Y0120129D01*
X0344533Y0120129D01*
X0345300Y0119362D01*
X0345300Y0117060D01*
X0342998Y0121663D02*
X0342998Y0124733D01*
X0340696Y0123965D02*
X0342998Y0121663D01*
X0345300Y0123965D02*
X0340696Y0123965D01*
X0351196Y0137060D02*
X0351196Y0139362D01*
X0351963Y0140129D01*
X0355033Y0140129D01*
X0355800Y0139362D01*
X0355800Y0137060D01*
X0351196Y0137060D01*
X0351963Y0141663D02*
X0351196Y0142431D01*
X0351196Y0143965D01*
X0351963Y0144733D01*
X0352731Y0144733D01*
X0353498Y0143965D01*
X0354265Y0144733D01*
X0355033Y0144733D01*
X0355800Y0143965D01*
X0355800Y0142431D01*
X0355033Y0141663D01*
X0353498Y0143198D02*
X0353498Y0143965D01*
X0345300Y0157060D02*
X0340696Y0157060D01*
X0340696Y0159362D01*
X0341463Y0160129D01*
X0344533Y0160129D01*
X0345300Y0159362D01*
X0345300Y0157060D01*
X0345300Y0161663D02*
X0342231Y0164733D01*
X0341463Y0164733D01*
X0340696Y0163965D01*
X0340696Y0162431D01*
X0341463Y0161663D01*
X0345300Y0161663D02*
X0345300Y0164733D01*
X0351196Y0177060D02*
X0351196Y0179362D01*
X0351963Y0180129D01*
X0355033Y0180129D01*
X0355800Y0179362D01*
X0355800Y0177060D01*
X0351196Y0177060D01*
X0352731Y0181663D02*
X0351196Y0183198D01*
X0355800Y0183198D01*
X0355800Y0181663D02*
X0355800Y0184733D01*
D13*
X0110689Y0103965D02*
X0110691Y0104004D01*
X0110697Y0104043D01*
X0110707Y0104081D01*
X0110720Y0104118D01*
X0110737Y0104153D01*
X0110757Y0104187D01*
X0110781Y0104218D01*
X0110808Y0104247D01*
X0110837Y0104273D01*
X0110869Y0104296D01*
X0110903Y0104316D01*
X0110939Y0104332D01*
X0110976Y0104344D01*
X0111015Y0104353D01*
X0111054Y0104358D01*
X0111093Y0104359D01*
X0111132Y0104356D01*
X0111171Y0104349D01*
X0111208Y0104338D01*
X0111245Y0104324D01*
X0111280Y0104306D01*
X0111313Y0104285D01*
X0111344Y0104260D01*
X0111372Y0104233D01*
X0111397Y0104203D01*
X0111419Y0104170D01*
X0111438Y0104136D01*
X0111453Y0104100D01*
X0111465Y0104062D01*
X0111473Y0104024D01*
X0111477Y0103985D01*
X0111477Y0103945D01*
X0111473Y0103906D01*
X0111465Y0103868D01*
X0111453Y0103830D01*
X0111438Y0103794D01*
X0111419Y0103760D01*
X0111397Y0103727D01*
X0111372Y0103697D01*
X0111344Y0103670D01*
X0111313Y0103645D01*
X0111280Y0103624D01*
X0111245Y0103606D01*
X0111208Y0103592D01*
X0111171Y0103581D01*
X0111132Y0103574D01*
X0111093Y0103571D01*
X0111054Y0103572D01*
X0111015Y0103577D01*
X0110976Y0103586D01*
X0110939Y0103598D01*
X0110903Y0103614D01*
X0110869Y0103634D01*
X0110837Y0103657D01*
X0110808Y0103683D01*
X0110781Y0103712D01*
X0110757Y0103743D01*
X0110737Y0103777D01*
X0110720Y0103812D01*
X0110707Y0103849D01*
X0110697Y0103887D01*
X0110691Y0103926D01*
X0110689Y0103965D01*
D14*
X0104965Y0094516D02*
X0104967Y0094572D01*
X0104973Y0094627D01*
X0104983Y0094681D01*
X0104996Y0094735D01*
X0105014Y0094788D01*
X0105035Y0094839D01*
X0105059Y0094889D01*
X0105087Y0094937D01*
X0105119Y0094983D01*
X0105153Y0095027D01*
X0105191Y0095068D01*
X0105231Y0095106D01*
X0105274Y0095141D01*
X0105319Y0095173D01*
X0105367Y0095202D01*
X0105416Y0095228D01*
X0105467Y0095250D01*
X0105519Y0095268D01*
X0105573Y0095282D01*
X0105628Y0095293D01*
X0105683Y0095300D01*
X0105738Y0095303D01*
X0105794Y0095302D01*
X0105849Y0095297D01*
X0105904Y0095288D01*
X0105958Y0095276D01*
X0106011Y0095259D01*
X0106063Y0095239D01*
X0106113Y0095215D01*
X0106161Y0095188D01*
X0106208Y0095158D01*
X0106252Y0095124D01*
X0106294Y0095087D01*
X0106332Y0095047D01*
X0106369Y0095005D01*
X0106402Y0094960D01*
X0106431Y0094914D01*
X0106458Y0094865D01*
X0106480Y0094814D01*
X0106500Y0094762D01*
X0106515Y0094708D01*
X0106527Y0094654D01*
X0106535Y0094599D01*
X0106539Y0094544D01*
X0106539Y0094488D01*
X0106535Y0094433D01*
X0106527Y0094378D01*
X0106515Y0094324D01*
X0106500Y0094270D01*
X0106480Y0094218D01*
X0106458Y0094167D01*
X0106431Y0094118D01*
X0106402Y0094072D01*
X0106369Y0094027D01*
X0106332Y0093985D01*
X0106294Y0093945D01*
X0106252Y0093908D01*
X0106208Y0093874D01*
X0106161Y0093844D01*
X0106113Y0093817D01*
X0106063Y0093793D01*
X0106011Y0093773D01*
X0105958Y0093756D01*
X0105904Y0093744D01*
X0105849Y0093735D01*
X0105794Y0093730D01*
X0105738Y0093729D01*
X0105683Y0093732D01*
X0105628Y0093739D01*
X0105573Y0093750D01*
X0105519Y0093764D01*
X0105467Y0093782D01*
X0105416Y0093804D01*
X0105367Y0093830D01*
X0105319Y0093859D01*
X0105274Y0093891D01*
X0105231Y0093926D01*
X0105191Y0093964D01*
X0105153Y0094005D01*
X0105119Y0094049D01*
X0105087Y0094095D01*
X0105059Y0094143D01*
X0105035Y0094193D01*
X0105014Y0094244D01*
X0104996Y0094297D01*
X0104983Y0094351D01*
X0104973Y0094405D01*
X0104967Y0094460D01*
X0104965Y0094516D01*
D15*
X0214177Y0207193D02*
X0214177Y0214477D01*
X0214177Y0207193D02*
X0225594Y0207193D01*
X0225594Y0208965D01*
X0236421Y0208965D01*
X0236421Y0210934D01*
X0248823Y0210934D01*
X0248823Y0214477D01*
X0248823Y0228650D02*
X0248823Y0238099D01*
X0248823Y0252272D02*
X0248823Y0264674D01*
X0214177Y0264674D01*
X0214177Y0254437D01*
X0214177Y0238099D02*
X0214177Y0227863D01*
X0143500Y0237969D02*
X0143500Y0212166D01*
X0129500Y0212166D01*
X0129500Y0237969D01*
X0143500Y0237969D01*
X0311776Y0168335D02*
X0311776Y0164004D01*
X0311776Y0168335D02*
X0313350Y0169910D01*
X0319650Y0169910D01*
X0321224Y0168335D01*
X0321224Y0164004D01*
X0321776Y0170225D02*
X0321776Y0176130D01*
X0321776Y0170225D02*
X0331224Y0170225D01*
X0331224Y0176130D01*
X0331224Y0184004D02*
X0331224Y0188335D01*
X0329650Y0189910D01*
X0323350Y0189910D01*
X0321776Y0188335D01*
X0321776Y0184004D01*
X0344138Y0177599D02*
X0348862Y0177599D01*
X0346500Y0181536D01*
X0344138Y0177599D01*
X0336000Y0161536D02*
X0333638Y0157599D01*
X0338362Y0157599D01*
X0336000Y0161536D01*
X0329650Y0149910D02*
X0323350Y0149910D01*
X0321776Y0148335D01*
X0321776Y0144004D01*
X0321224Y0150225D02*
X0311776Y0150225D01*
X0311776Y0156130D01*
X0321224Y0156130D02*
X0321224Y0150225D01*
X0329650Y0149910D02*
X0331224Y0148335D01*
X0331224Y0144004D01*
X0331224Y0136130D02*
X0331224Y0130225D01*
X0321776Y0130225D01*
X0321776Y0136130D01*
X0319650Y0129910D02*
X0313350Y0129910D01*
X0311776Y0128335D01*
X0311776Y0124004D01*
X0311776Y0116130D02*
X0311776Y0110225D01*
X0321224Y0110225D01*
X0321224Y0116130D01*
X0321224Y0124004D02*
X0321224Y0128335D01*
X0319650Y0129910D01*
X0336000Y0121536D02*
X0333638Y0117599D01*
X0338362Y0117599D01*
X0336000Y0121536D01*
X0329650Y0109910D02*
X0323350Y0109910D01*
X0321776Y0108335D01*
X0321776Y0104004D01*
X0331224Y0104004D02*
X0331224Y0108335D01*
X0329650Y0109910D01*
X0346500Y0101536D02*
X0344138Y0097599D01*
X0348862Y0097599D01*
X0346500Y0101536D01*
X0331224Y0096130D02*
X0331224Y0090225D01*
X0321776Y0090225D01*
X0321776Y0096130D01*
X0319650Y0089910D02*
X0313350Y0089910D01*
X0311776Y0088335D01*
X0311776Y0084004D01*
X0319650Y0089910D02*
X0321224Y0088335D01*
X0321224Y0084004D01*
X0321224Y0076130D02*
X0321224Y0070225D01*
X0311776Y0070225D01*
X0311776Y0076130D01*
X0321776Y0068335D02*
X0321776Y0064004D01*
X0321776Y0068335D02*
X0323350Y0069910D01*
X0329650Y0069910D01*
X0331224Y0068335D01*
X0331224Y0064004D01*
X0331224Y0056130D02*
X0331224Y0050225D01*
X0321776Y0050225D01*
X0321776Y0056130D01*
X0319650Y0049910D02*
X0313350Y0049910D01*
X0311776Y0048335D01*
X0311776Y0044004D01*
X0311776Y0036130D02*
X0311776Y0030225D01*
X0321224Y0030225D01*
X0321224Y0036130D01*
X0321224Y0044004D02*
X0321224Y0048335D01*
X0319650Y0049910D01*
X0336500Y0041536D02*
X0334138Y0037599D01*
X0338862Y0037599D01*
X0336500Y0041536D01*
X0344138Y0057599D02*
X0348862Y0057599D01*
X0346500Y0061536D01*
X0344138Y0057599D01*
X0338862Y0077599D02*
X0334138Y0077599D01*
X0336500Y0081536D01*
X0338862Y0077599D01*
X0344138Y0137599D02*
X0348862Y0137599D01*
X0346500Y0141536D01*
X0344138Y0137599D01*
X0336421Y0208965D02*
X0325594Y0208965D01*
X0325594Y0207193D01*
X0314177Y0207193D01*
X0314177Y0214477D01*
X0314177Y0227863D02*
X0314177Y0238099D01*
X0314177Y0254437D02*
X0314177Y0264674D01*
X0348823Y0264674D01*
X0348823Y0252272D01*
X0348823Y0238099D02*
X0348823Y0228650D01*
X0348823Y0214477D02*
X0348823Y0210934D01*
X0336421Y0210934D01*
X0336421Y0208965D01*
D16*
X0289100Y0180667D02*
X0289100Y0177667D01*
X0289100Y0180667D02*
X0285500Y0180667D01*
X0283900Y0176267D02*
X0283900Y0173867D01*
X0289100Y0172467D02*
X0289100Y0169467D01*
X0285500Y0169467D01*
X0285500Y0160667D02*
X0289100Y0160667D01*
X0289100Y0157667D01*
X0283900Y0156267D02*
X0283900Y0153867D01*
X0285500Y0149467D02*
X0289100Y0149467D01*
X0289100Y0152467D01*
X0289100Y0140667D02*
X0285500Y0140667D01*
X0289100Y0140667D02*
X0289100Y0137667D01*
X0289100Y0132467D02*
X0289100Y0129467D01*
X0285500Y0129467D01*
X0283900Y0133867D02*
X0283900Y0136267D01*
X0285500Y0120667D02*
X0289100Y0120667D01*
X0289100Y0117667D01*
X0283900Y0116267D02*
X0283900Y0113867D01*
X0289100Y0112467D02*
X0289100Y0109467D01*
X0285500Y0109467D01*
X0285500Y0100667D02*
X0289100Y0100667D01*
X0289100Y0097667D01*
X0283900Y0096267D02*
X0283900Y0093867D01*
X0289100Y0092467D02*
X0289100Y0089467D01*
X0285500Y0089467D01*
X0285500Y0080667D02*
X0289100Y0080667D01*
X0289100Y0077667D01*
X0283900Y0076267D02*
X0283900Y0073867D01*
X0285500Y0069467D02*
X0289100Y0069467D01*
X0289100Y0072467D01*
X0289100Y0060667D02*
X0285500Y0060667D01*
X0289100Y0060667D02*
X0289100Y0057667D01*
X0289100Y0052467D02*
X0289100Y0049467D01*
X0285500Y0049467D01*
X0283900Y0053867D02*
X0283900Y0056267D01*
X0285500Y0040667D02*
X0289100Y0040667D01*
X0289100Y0037667D01*
X0283900Y0036267D02*
X0283900Y0033867D01*
X0289100Y0032467D02*
X0289100Y0029467D01*
X0285500Y0029467D01*
D17*
X0336500Y0042267D03*
X0346500Y0062267D03*
X0336500Y0082267D03*
X0346500Y0102267D03*
X0336000Y0122267D03*
X0346500Y0142267D03*
X0336000Y0162267D03*
X0346500Y0182267D03*
D18*
X0081500Y0049674D03*
D19*
X0309512Y0033815D02*
X0310262Y0033064D01*
X0310262Y0034065D01*
X0309512Y0033815D02*
X0311013Y0033815D01*
X0311013Y0032592D02*
X0311013Y0031591D01*
X0310012Y0032592D01*
X0309762Y0032592D01*
X0309512Y0032341D01*
X0309512Y0031841D01*
X0309762Y0031591D01*
X0309762Y0031118D02*
X0309512Y0030868D01*
X0309512Y0030368D01*
X0309762Y0030117D01*
X0310763Y0030117D01*
X0311013Y0030368D01*
X0311013Y0030868D01*
X0310763Y0031118D01*
X0319762Y0050117D02*
X0320763Y0050117D01*
X0321013Y0050368D01*
X0321013Y0050868D01*
X0320763Y0051118D01*
X0321013Y0051591D02*
X0320012Y0052592D01*
X0319762Y0052592D01*
X0319512Y0052341D01*
X0319512Y0051841D01*
X0319762Y0051591D01*
X0319762Y0051118D02*
X0319512Y0050868D01*
X0319512Y0050368D01*
X0319762Y0050117D01*
X0321013Y0051591D02*
X0321013Y0052592D01*
X0320763Y0053064D02*
X0321013Y0053314D01*
X0321013Y0053815D01*
X0320763Y0054065D01*
X0320513Y0054065D01*
X0320262Y0053815D01*
X0320262Y0053564D01*
X0320262Y0053815D02*
X0320012Y0054065D01*
X0319762Y0054065D01*
X0319512Y0053815D01*
X0319512Y0053314D01*
X0319762Y0053064D01*
X0310763Y0070117D02*
X0309762Y0070117D01*
X0309512Y0070368D01*
X0309512Y0070868D01*
X0309762Y0071118D01*
X0309762Y0071591D02*
X0309512Y0071841D01*
X0309512Y0072341D01*
X0309762Y0072592D01*
X0310012Y0072592D01*
X0311013Y0071591D01*
X0311013Y0072592D01*
X0311013Y0073064D02*
X0310012Y0074065D01*
X0309762Y0074065D01*
X0309512Y0073815D01*
X0309512Y0073314D01*
X0309762Y0073064D01*
X0311013Y0073064D02*
X0311013Y0074065D01*
X0310763Y0071118D02*
X0311013Y0070868D01*
X0311013Y0070368D01*
X0310763Y0070117D01*
X0319762Y0090117D02*
X0320763Y0090117D01*
X0321013Y0090368D01*
X0321013Y0090868D01*
X0320763Y0091118D01*
X0321013Y0091591D02*
X0320012Y0092592D01*
X0319762Y0092592D01*
X0319512Y0092341D01*
X0319512Y0091841D01*
X0319762Y0091591D01*
X0319762Y0091118D02*
X0319512Y0090868D01*
X0319512Y0090368D01*
X0319762Y0090117D01*
X0321013Y0091591D02*
X0321013Y0092592D01*
X0321013Y0093064D02*
X0321013Y0094065D01*
X0321013Y0093564D02*
X0319512Y0093564D01*
X0320012Y0093064D01*
X0310763Y0110117D02*
X0309762Y0110117D01*
X0309512Y0110368D01*
X0309512Y0110868D01*
X0309762Y0111118D01*
X0309762Y0111591D02*
X0309512Y0111841D01*
X0309512Y0112341D01*
X0309762Y0112592D01*
X0310012Y0112592D01*
X0311013Y0111591D01*
X0311013Y0112592D01*
X0310763Y0113064D02*
X0309762Y0114065D01*
X0310763Y0114065D01*
X0311013Y0113815D01*
X0311013Y0113314D01*
X0310763Y0113064D01*
X0309762Y0113064D01*
X0309512Y0113314D01*
X0309512Y0113815D01*
X0309762Y0114065D01*
X0310763Y0111118D02*
X0311013Y0110868D01*
X0311013Y0110368D01*
X0310763Y0110117D01*
X0319762Y0130117D02*
X0320763Y0130117D01*
X0321013Y0130368D01*
X0321013Y0130868D01*
X0320763Y0131118D01*
X0321013Y0131591D02*
X0321013Y0132592D01*
X0321013Y0132091D02*
X0319512Y0132091D01*
X0320012Y0131591D01*
X0319762Y0131118D02*
X0319512Y0130868D01*
X0319512Y0130368D01*
X0319762Y0130117D01*
X0319762Y0133064D02*
X0320012Y0133064D01*
X0320262Y0133314D01*
X0320262Y0134065D01*
X0319762Y0134065D02*
X0319512Y0133815D01*
X0319512Y0133314D01*
X0319762Y0133064D01*
X0319762Y0134065D02*
X0320763Y0134065D01*
X0321013Y0133815D01*
X0321013Y0133314D01*
X0320763Y0133064D01*
X0310763Y0150117D02*
X0309762Y0150117D01*
X0309512Y0150368D01*
X0309512Y0150868D01*
X0309762Y0151118D01*
X0310012Y0151591D02*
X0309512Y0152091D01*
X0311013Y0152091D01*
X0311013Y0151591D02*
X0311013Y0152592D01*
X0310763Y0153064D02*
X0310513Y0153064D01*
X0310262Y0153314D01*
X0310262Y0153815D01*
X0310513Y0154065D01*
X0310763Y0154065D01*
X0311013Y0153815D01*
X0311013Y0153314D01*
X0310763Y0153064D01*
X0310262Y0153314D02*
X0310012Y0153064D01*
X0309762Y0153064D01*
X0309512Y0153314D01*
X0309512Y0153815D01*
X0309762Y0154065D01*
X0310012Y0154065D01*
X0310262Y0153815D01*
X0310763Y0151118D02*
X0311013Y0150868D01*
X0311013Y0150368D01*
X0310763Y0150117D01*
X0319762Y0170117D02*
X0320763Y0170117D01*
X0321013Y0170368D01*
X0321013Y0170868D01*
X0320763Y0171118D01*
X0321013Y0171591D02*
X0320012Y0172592D01*
X0319762Y0172592D01*
X0319512Y0172341D01*
X0319512Y0171841D01*
X0319762Y0171591D01*
X0319762Y0171118D02*
X0319512Y0170868D01*
X0319512Y0170368D01*
X0319762Y0170117D01*
X0321013Y0171591D02*
X0321013Y0172592D01*
X0320763Y0173064D02*
X0321013Y0173314D01*
X0321013Y0173815D01*
X0320763Y0174065D01*
X0320262Y0174065D01*
X0320012Y0173815D01*
X0320012Y0173564D01*
X0320262Y0173064D01*
X0319512Y0173064D01*
X0319512Y0174065D01*
D20*
X0138634Y0190875D02*
X0135693Y0187934D01*
X0127307Y0187934D01*
X0124366Y0190875D01*
X0124366Y0199260D01*
X0127307Y0202201D01*
X0135693Y0202201D01*
X0138634Y0199260D01*
X0138634Y0190875D01*
X0137976Y0191147D02*
X0135420Y0188591D01*
X0127580Y0188591D01*
X0125024Y0191147D01*
X0125024Y0198988D01*
X0127580Y0201544D01*
X0135420Y0201544D01*
X0137976Y0198988D01*
X0137976Y0191147D01*
X0128094Y0195067D02*
X0128096Y0195183D01*
X0128102Y0195299D01*
X0128112Y0195415D01*
X0128126Y0195531D01*
X0128144Y0195646D01*
X0128165Y0195760D01*
X0128191Y0195873D01*
X0128220Y0195986D01*
X0128254Y0196097D01*
X0128291Y0196208D01*
X0128331Y0196317D01*
X0128376Y0196424D01*
X0128424Y0196530D01*
X0128476Y0196634D01*
X0128531Y0196736D01*
X0128590Y0196837D01*
X0128652Y0196935D01*
X0128717Y0197031D01*
X0128786Y0197125D01*
X0128858Y0197216D01*
X0128933Y0197305D01*
X0129011Y0197392D01*
X0129092Y0197475D01*
X0129175Y0197556D01*
X0129262Y0197634D01*
X0129351Y0197709D01*
X0129442Y0197781D01*
X0129536Y0197850D01*
X0129632Y0197915D01*
X0129730Y0197977D01*
X0129831Y0198036D01*
X0129933Y0198091D01*
X0130037Y0198143D01*
X0130143Y0198191D01*
X0130250Y0198236D01*
X0130359Y0198276D01*
X0130470Y0198313D01*
X0130581Y0198347D01*
X0130694Y0198376D01*
X0130807Y0198402D01*
X0130921Y0198423D01*
X0131036Y0198441D01*
X0131152Y0198455D01*
X0131268Y0198465D01*
X0131384Y0198471D01*
X0131500Y0198473D01*
X0131616Y0198471D01*
X0131732Y0198465D01*
X0131848Y0198455D01*
X0131964Y0198441D01*
X0132079Y0198423D01*
X0132193Y0198402D01*
X0132306Y0198376D01*
X0132419Y0198347D01*
X0132530Y0198313D01*
X0132641Y0198276D01*
X0132750Y0198236D01*
X0132857Y0198191D01*
X0132963Y0198143D01*
X0133067Y0198091D01*
X0133169Y0198036D01*
X0133270Y0197977D01*
X0133368Y0197915D01*
X0133464Y0197850D01*
X0133558Y0197781D01*
X0133649Y0197709D01*
X0133738Y0197634D01*
X0133825Y0197556D01*
X0133908Y0197475D01*
X0133989Y0197392D01*
X0134067Y0197305D01*
X0134142Y0197216D01*
X0134214Y0197125D01*
X0134283Y0197031D01*
X0134348Y0196935D01*
X0134410Y0196837D01*
X0134469Y0196736D01*
X0134524Y0196634D01*
X0134576Y0196530D01*
X0134624Y0196424D01*
X0134669Y0196317D01*
X0134709Y0196208D01*
X0134746Y0196097D01*
X0134780Y0195986D01*
X0134809Y0195873D01*
X0134835Y0195760D01*
X0134856Y0195646D01*
X0134874Y0195531D01*
X0134888Y0195415D01*
X0134898Y0195299D01*
X0134904Y0195183D01*
X0134906Y0195067D01*
X0134904Y0194951D01*
X0134898Y0194835D01*
X0134888Y0194719D01*
X0134874Y0194603D01*
X0134856Y0194488D01*
X0134835Y0194374D01*
X0134809Y0194261D01*
X0134780Y0194148D01*
X0134746Y0194037D01*
X0134709Y0193926D01*
X0134669Y0193817D01*
X0134624Y0193710D01*
X0134576Y0193604D01*
X0134524Y0193500D01*
X0134469Y0193398D01*
X0134410Y0193297D01*
X0134348Y0193199D01*
X0134283Y0193103D01*
X0134214Y0193009D01*
X0134142Y0192918D01*
X0134067Y0192829D01*
X0133989Y0192742D01*
X0133908Y0192659D01*
X0133825Y0192578D01*
X0133738Y0192500D01*
X0133649Y0192425D01*
X0133558Y0192353D01*
X0133464Y0192284D01*
X0133368Y0192219D01*
X0133270Y0192157D01*
X0133169Y0192098D01*
X0133067Y0192043D01*
X0132963Y0191991D01*
X0132857Y0191943D01*
X0132750Y0191898D01*
X0132641Y0191858D01*
X0132530Y0191821D01*
X0132419Y0191787D01*
X0132306Y0191758D01*
X0132193Y0191732D01*
X0132079Y0191711D01*
X0131964Y0191693D01*
X0131848Y0191679D01*
X0131732Y0191669D01*
X0131616Y0191663D01*
X0131500Y0191661D01*
X0131384Y0191663D01*
X0131268Y0191669D01*
X0131152Y0191679D01*
X0131036Y0191693D01*
X0130921Y0191711D01*
X0130807Y0191732D01*
X0130694Y0191758D01*
X0130581Y0191787D01*
X0130470Y0191821D01*
X0130359Y0191858D01*
X0130250Y0191898D01*
X0130143Y0191943D01*
X0130037Y0191991D01*
X0129933Y0192043D01*
X0129831Y0192098D01*
X0129730Y0192157D01*
X0129632Y0192219D01*
X0129536Y0192284D01*
X0129442Y0192353D01*
X0129351Y0192425D01*
X0129262Y0192500D01*
X0129175Y0192578D01*
X0129092Y0192659D01*
X0129011Y0192742D01*
X0128933Y0192829D01*
X0128858Y0192918D01*
X0128786Y0193009D01*
X0128717Y0193103D01*
X0128652Y0193199D01*
X0128590Y0193297D01*
X0128531Y0193398D01*
X0128476Y0193500D01*
X0128424Y0193604D01*
X0128376Y0193710D01*
X0128331Y0193817D01*
X0128291Y0193926D01*
X0128254Y0194037D01*
X0128220Y0194148D01*
X0128191Y0194261D01*
X0128165Y0194374D01*
X0128144Y0194488D01*
X0128126Y0194603D01*
X0128112Y0194719D01*
X0128102Y0194835D01*
X0128096Y0194951D01*
X0128094Y0195067D01*
X0127563Y0195067D02*
X0127565Y0195192D01*
X0127571Y0195317D01*
X0127581Y0195441D01*
X0127595Y0195565D01*
X0127612Y0195689D01*
X0127634Y0195812D01*
X0127660Y0195934D01*
X0127689Y0196056D01*
X0127722Y0196176D01*
X0127760Y0196295D01*
X0127800Y0196414D01*
X0127845Y0196530D01*
X0127893Y0196645D01*
X0127945Y0196759D01*
X0128001Y0196871D01*
X0128060Y0196981D01*
X0128122Y0197089D01*
X0128188Y0197196D01*
X0128257Y0197300D01*
X0128330Y0197401D01*
X0128405Y0197501D01*
X0128484Y0197598D01*
X0128566Y0197692D01*
X0128651Y0197784D01*
X0128738Y0197873D01*
X0128829Y0197959D01*
X0128922Y0198042D01*
X0129018Y0198123D01*
X0129116Y0198200D01*
X0129216Y0198274D01*
X0129319Y0198345D01*
X0129424Y0198412D01*
X0129532Y0198477D01*
X0129641Y0198537D01*
X0129752Y0198595D01*
X0129865Y0198648D01*
X0129979Y0198698D01*
X0130095Y0198745D01*
X0130212Y0198787D01*
X0130331Y0198826D01*
X0130451Y0198862D01*
X0130572Y0198893D01*
X0130694Y0198921D01*
X0130816Y0198944D01*
X0130940Y0198964D01*
X0131064Y0198980D01*
X0131188Y0198992D01*
X0131313Y0199000D01*
X0131438Y0199004D01*
X0131562Y0199004D01*
X0131687Y0199000D01*
X0131812Y0198992D01*
X0131936Y0198980D01*
X0132060Y0198964D01*
X0132184Y0198944D01*
X0132306Y0198921D01*
X0132428Y0198893D01*
X0132549Y0198862D01*
X0132669Y0198826D01*
X0132788Y0198787D01*
X0132905Y0198745D01*
X0133021Y0198698D01*
X0133135Y0198648D01*
X0133248Y0198595D01*
X0133359Y0198537D01*
X0133469Y0198477D01*
X0133576Y0198412D01*
X0133681Y0198345D01*
X0133784Y0198274D01*
X0133884Y0198200D01*
X0133982Y0198123D01*
X0134078Y0198042D01*
X0134171Y0197959D01*
X0134262Y0197873D01*
X0134349Y0197784D01*
X0134434Y0197692D01*
X0134516Y0197598D01*
X0134595Y0197501D01*
X0134670Y0197401D01*
X0134743Y0197300D01*
X0134812Y0197196D01*
X0134878Y0197089D01*
X0134940Y0196981D01*
X0134999Y0196871D01*
X0135055Y0196759D01*
X0135107Y0196645D01*
X0135155Y0196530D01*
X0135200Y0196414D01*
X0135240Y0196295D01*
X0135278Y0196176D01*
X0135311Y0196056D01*
X0135340Y0195934D01*
X0135366Y0195812D01*
X0135388Y0195689D01*
X0135405Y0195565D01*
X0135419Y0195441D01*
X0135429Y0195317D01*
X0135435Y0195192D01*
X0135437Y0195067D01*
X0135435Y0194942D01*
X0135429Y0194817D01*
X0135419Y0194693D01*
X0135405Y0194569D01*
X0135388Y0194445D01*
X0135366Y0194322D01*
X0135340Y0194200D01*
X0135311Y0194078D01*
X0135278Y0193958D01*
X0135240Y0193839D01*
X0135200Y0193720D01*
X0135155Y0193604D01*
X0135107Y0193489D01*
X0135055Y0193375D01*
X0134999Y0193263D01*
X0134940Y0193153D01*
X0134878Y0193045D01*
X0134812Y0192938D01*
X0134743Y0192834D01*
X0134670Y0192733D01*
X0134595Y0192633D01*
X0134516Y0192536D01*
X0134434Y0192442D01*
X0134349Y0192350D01*
X0134262Y0192261D01*
X0134171Y0192175D01*
X0134078Y0192092D01*
X0133982Y0192011D01*
X0133884Y0191934D01*
X0133784Y0191860D01*
X0133681Y0191789D01*
X0133576Y0191722D01*
X0133468Y0191657D01*
X0133359Y0191597D01*
X0133248Y0191539D01*
X0133135Y0191486D01*
X0133021Y0191436D01*
X0132905Y0191389D01*
X0132788Y0191347D01*
X0132669Y0191308D01*
X0132549Y0191272D01*
X0132428Y0191241D01*
X0132306Y0191213D01*
X0132184Y0191190D01*
X0132060Y0191170D01*
X0131936Y0191154D01*
X0131812Y0191142D01*
X0131687Y0191134D01*
X0131562Y0191130D01*
X0131438Y0191130D01*
X0131313Y0191134D01*
X0131188Y0191142D01*
X0131064Y0191154D01*
X0130940Y0191170D01*
X0130816Y0191190D01*
X0130694Y0191213D01*
X0130572Y0191241D01*
X0130451Y0191272D01*
X0130331Y0191308D01*
X0130212Y0191347D01*
X0130095Y0191389D01*
X0129979Y0191436D01*
X0129865Y0191486D01*
X0129752Y0191539D01*
X0129641Y0191597D01*
X0129531Y0191657D01*
X0129424Y0191722D01*
X0129319Y0191789D01*
X0129216Y0191860D01*
X0129116Y0191934D01*
X0129018Y0192011D01*
X0128922Y0192092D01*
X0128829Y0192175D01*
X0128738Y0192261D01*
X0128651Y0192350D01*
X0128566Y0192442D01*
X0128484Y0192536D01*
X0128405Y0192633D01*
X0128330Y0192733D01*
X0128257Y0192834D01*
X0128188Y0192938D01*
X0128122Y0193045D01*
X0128060Y0193153D01*
X0128001Y0193263D01*
X0127945Y0193375D01*
X0127893Y0193489D01*
X0127845Y0193604D01*
X0127800Y0193720D01*
X0127760Y0193839D01*
X0127722Y0193958D01*
X0127689Y0194078D01*
X0127660Y0194200D01*
X0127634Y0194322D01*
X0127612Y0194445D01*
X0127595Y0194569D01*
X0127581Y0194693D01*
X0127571Y0194817D01*
X0127565Y0194942D01*
X0127563Y0195067D01*
M02*
