G75*
%MOIN*%
%OFA0B0*%
%FSLAX25Y25*%
%IPPOS*%
%LPD*%
%AMOC8*
5,1,8,0,0,1.08239X$1,22.5*
%
%ADD10C,0.06000*%
%ADD11OC8,0.06300*%
%ADD12C,0.06300*%
%ADD13OC8,0.06000*%
%ADD14R,0.03962X0.03962*%
%ADD15C,0.01600*%
%ADD16C,0.02400*%
%ADD17C,0.01200*%
%ADD18C,0.03200*%
%ADD19C,0.05000*%
%ADD20C,0.01000*%
D10*
X0008500Y0035067D02*
X0014500Y0035067D01*
X0014500Y0045067D02*
X0008500Y0045067D01*
X0008500Y0055067D02*
X0014500Y0055067D01*
X0014500Y0065067D02*
X0008500Y0065067D01*
X0008500Y0075067D02*
X0014500Y0075067D01*
X0014500Y0085067D02*
X0008500Y0085067D01*
X0008500Y0095067D02*
X0014500Y0095067D01*
X0014500Y0105067D02*
X0008500Y0105067D01*
X0008500Y0115067D02*
X0014500Y0115067D01*
X0014500Y0125067D02*
X0008500Y0125067D01*
X0008500Y0135067D02*
X0014500Y0135067D01*
X0014500Y0145067D02*
X0008500Y0145067D01*
X0008500Y0155067D02*
X0014500Y0155067D01*
X0014500Y0165067D02*
X0008500Y0165067D01*
X0008500Y0175067D02*
X0014500Y0175067D01*
X0014500Y0185067D02*
X0008500Y0185067D01*
X0123500Y0070067D02*
X0129500Y0070067D01*
X0129500Y0060067D02*
X0123500Y0060067D01*
X0143500Y0060067D02*
X0149500Y0060067D01*
X0149500Y0070067D02*
X0143500Y0070067D01*
X0081500Y0033067D02*
X0081500Y0027067D01*
X0071500Y0027067D02*
X0071500Y0033067D01*
X0271500Y0217067D02*
X0271500Y0223067D01*
X0281500Y0223067D02*
X0281500Y0217067D01*
X0291500Y0217067D02*
X0291500Y0223067D01*
X0358500Y0185067D02*
X0364500Y0185067D01*
X0364500Y0175067D02*
X0358500Y0175067D01*
X0358500Y0165067D02*
X0364500Y0165067D01*
X0364500Y0155067D02*
X0358500Y0155067D01*
X0358500Y0145067D02*
X0364500Y0145067D01*
X0364500Y0135067D02*
X0358500Y0135067D01*
X0358500Y0125067D02*
X0364500Y0125067D01*
X0364500Y0115067D02*
X0358500Y0115067D01*
X0358500Y0105067D02*
X0364500Y0105067D01*
X0364500Y0095067D02*
X0358500Y0095067D01*
X0358500Y0085067D02*
X0364500Y0085067D01*
X0364500Y0075067D02*
X0358500Y0075067D01*
X0358500Y0065067D02*
X0364500Y0065067D01*
X0364500Y0055067D02*
X0358500Y0055067D01*
X0358500Y0045067D02*
X0364500Y0045067D01*
X0364500Y0035067D02*
X0358500Y0035067D01*
D11*
X0291500Y0200067D03*
X0191500Y0220067D03*
X0101500Y0220067D03*
D12*
X0101500Y0230067D03*
X0191500Y0230067D03*
X0281500Y0200067D03*
D13*
X0109500Y0145067D03*
D14*
X0096500Y0145067D03*
X0096500Y0150067D03*
X0096500Y0155067D03*
X0116500Y0170067D03*
X0105250Y0180697D03*
X0105250Y0184437D03*
X0105250Y0196317D03*
X0105250Y0200067D03*
X0051500Y0200067D03*
X0051500Y0195067D03*
X0051500Y0190067D03*
X0031500Y0205067D03*
X0031500Y0210067D03*
X0036500Y0210067D03*
X0036500Y0215067D03*
X0046500Y0170067D03*
X0051500Y0170067D03*
X0051500Y0150067D03*
X0046500Y0150067D03*
X0046500Y0130067D03*
X0051500Y0130067D03*
X0051500Y0110067D03*
X0046500Y0110067D03*
X0046500Y0090067D03*
X0051500Y0090067D03*
X0051500Y0070067D03*
X0046500Y0070067D03*
X0046500Y0050067D03*
X0051500Y0050067D03*
X0061500Y0035067D03*
X0071500Y0066317D03*
X0075250Y0066317D03*
X0075250Y0070067D03*
X0120750Y0100067D03*
X0109500Y0114067D03*
X0109500Y0114067D03*
X0105500Y0114067D03*
X0109500Y0120067D03*
X0150250Y0100067D03*
X0150250Y0092567D03*
X0150250Y0085067D03*
X0159000Y0085067D03*
X0162750Y0095067D03*
X0141500Y0086317D03*
X0135250Y0087567D03*
X0156500Y0055067D03*
X0281500Y0045067D03*
X0281776Y0045067D03*
X0286500Y0045067D03*
X0291500Y0045067D03*
X0291500Y0025067D03*
X0286500Y0025067D03*
X0281500Y0025067D03*
X0281500Y0065067D03*
X0286500Y0065067D03*
X0291500Y0065067D03*
X0291500Y0085067D03*
X0286500Y0085067D03*
X0281500Y0085067D03*
X0281500Y0105067D03*
X0286500Y0105067D03*
X0291500Y0105067D03*
X0291500Y0125067D03*
X0286500Y0125067D03*
X0281776Y0125067D03*
X0281500Y0125067D03*
X0281500Y0145067D03*
X0286500Y0145067D03*
X0291500Y0145067D03*
X0291500Y0165067D03*
X0286500Y0165067D03*
X0281776Y0165067D03*
X0281500Y0165067D03*
X0301500Y0205067D03*
X0306500Y0205067D03*
X0306500Y0210067D03*
X0301500Y0245067D03*
X0296500Y0245067D03*
X0291500Y0245067D03*
X0286500Y0245067D03*
X0201500Y0245067D03*
X0196500Y0245067D03*
X0191500Y0245067D03*
X0186500Y0245067D03*
D15*
X0241500Y0245458D02*
X0325747Y0245458D01*
X0325747Y0246527D02*
X0325747Y0244238D01*
X0326623Y0242124D01*
X0328241Y0240505D01*
X0330356Y0239630D01*
X0332644Y0239630D01*
X0334759Y0240505D01*
X0336377Y0242124D01*
X0337253Y0244238D01*
X0337253Y0246527D01*
X0336377Y0248641D01*
X0334759Y0250259D01*
X0332644Y0251135D01*
X0330356Y0251135D01*
X0328241Y0250259D01*
X0326623Y0248641D01*
X0325747Y0246527D01*
X0325967Y0247056D02*
X0241500Y0247056D01*
X0241500Y0248655D02*
X0326637Y0248655D01*
X0328235Y0250253D02*
X0241500Y0250253D01*
X0241500Y0251852D02*
X0367401Y0251852D01*
X0367401Y0253450D02*
X0241500Y0253450D01*
X0241500Y0255049D02*
X0367401Y0255049D01*
X0367401Y0256647D02*
X0241500Y0256647D01*
X0241500Y0257228D02*
X0367401Y0257228D01*
X0367401Y0207035D01*
X0366654Y0207781D01*
X0363310Y0209167D01*
X0359690Y0209167D01*
X0356346Y0207781D01*
X0353786Y0205222D01*
X0352401Y0201877D01*
X0352401Y0198257D01*
X0353786Y0194913D01*
X0356346Y0192353D01*
X0359690Y0190968D01*
X0363310Y0190968D01*
X0366654Y0192353D01*
X0367401Y0193100D01*
X0367401Y0189711D01*
X0365574Y0190467D01*
X0357426Y0190467D01*
X0356219Y0189967D01*
X0302118Y0189967D01*
X0301772Y0190056D01*
X0301152Y0189967D01*
X0300525Y0189967D01*
X0300301Y0189875D01*
X0299379Y0189795D01*
X0296528Y0190031D01*
X0293800Y0190896D01*
X0291333Y0192345D01*
X0289251Y0194308D01*
X0287657Y0196684D01*
X0287517Y0197050D01*
X0289450Y0195117D01*
X0291500Y0195117D01*
X0293550Y0195117D01*
X0296450Y0198017D01*
X0296450Y0200067D01*
X0291500Y0200067D01*
X0291500Y0195117D01*
X0291500Y0200067D01*
X0291500Y0200067D01*
X0291500Y0200067D01*
X0296450Y0200067D01*
X0296450Y0202118D01*
X0293550Y0205017D01*
X0291500Y0205017D01*
X0291500Y0200068D01*
X0291500Y0205017D01*
X0289450Y0205017D01*
X0286626Y0202194D01*
X0286400Y0202741D01*
X0286400Y0214786D01*
X0286500Y0215028D01*
X0286922Y0214009D01*
X0288441Y0212490D01*
X0290426Y0211667D01*
X0292574Y0211667D01*
X0294559Y0212490D01*
X0296078Y0214009D01*
X0296900Y0215993D01*
X0296900Y0224142D01*
X0296078Y0226126D01*
X0294559Y0227645D01*
X0292574Y0228467D01*
X0290426Y0228467D01*
X0288441Y0227645D01*
X0286922Y0226126D01*
X0286500Y0225107D01*
X0286078Y0226126D01*
X0284559Y0227645D01*
X0282574Y0228467D01*
X0280426Y0228467D01*
X0278441Y0227645D01*
X0276922Y0226126D01*
X0276500Y0225107D01*
X0276078Y0226126D01*
X0274559Y0227645D01*
X0272574Y0228467D01*
X0270426Y0228467D01*
X0268441Y0227645D01*
X0266922Y0226126D01*
X0266100Y0224142D01*
X0266100Y0215993D01*
X0266922Y0214009D01*
X0268441Y0212490D01*
X0270426Y0211667D01*
X0272574Y0211667D01*
X0274559Y0212490D01*
X0276078Y0214009D01*
X0276500Y0215028D01*
X0276600Y0214786D01*
X0276600Y0202741D01*
X0275950Y0201171D01*
X0275950Y0198963D01*
X0276795Y0196924D01*
X0277100Y0196618D01*
X0278831Y0192106D01*
X0281665Y0187880D01*
X0285368Y0184391D01*
X0289754Y0181813D01*
X0289754Y0181813D01*
X0294604Y0180276D01*
X0299675Y0179857D01*
X0301848Y0180167D01*
X0336600Y0180167D01*
X0336600Y0044093D01*
X0337346Y0042292D01*
X0338724Y0040913D01*
X0340525Y0040167D01*
X0356219Y0040167D01*
X0356460Y0040067D01*
X0355441Y0039645D01*
X0353922Y0038126D01*
X0353100Y0036142D01*
X0353100Y0033993D01*
X0353922Y0032009D01*
X0355441Y0030490D01*
X0357426Y0029667D01*
X0365574Y0029667D01*
X0367401Y0030424D01*
X0367401Y0022867D01*
X0241500Y0022867D01*
X0241500Y0257228D01*
X0241500Y0243859D02*
X0325904Y0243859D01*
X0326566Y0242260D02*
X0241500Y0242260D01*
X0241500Y0240662D02*
X0328085Y0240662D01*
X0334915Y0240662D02*
X0367401Y0240662D01*
X0367401Y0242260D02*
X0336434Y0242260D01*
X0337096Y0243859D02*
X0367401Y0243859D01*
X0367401Y0245458D02*
X0337253Y0245458D01*
X0337033Y0247056D02*
X0367401Y0247056D01*
X0367401Y0248655D02*
X0336363Y0248655D01*
X0334765Y0250253D02*
X0367401Y0250253D01*
X0367401Y0239063D02*
X0241500Y0239063D01*
X0241500Y0237465D02*
X0367401Y0237465D01*
X0367401Y0235866D02*
X0241500Y0235866D01*
X0241500Y0234268D02*
X0367401Y0234268D01*
X0367401Y0232669D02*
X0335467Y0232669D01*
X0335093Y0233043D02*
X0332762Y0234009D01*
X0330238Y0234009D01*
X0327907Y0233043D01*
X0326122Y0231259D01*
X0325157Y0228928D01*
X0325157Y0226404D01*
X0326122Y0224073D01*
X0327907Y0222288D01*
X0330238Y0221323D01*
X0332762Y0221323D01*
X0335093Y0222288D01*
X0336878Y0224073D01*
X0337843Y0226404D01*
X0337843Y0228928D01*
X0336878Y0231259D01*
X0335093Y0233043D01*
X0336956Y0231071D02*
X0367401Y0231071D01*
X0367401Y0229472D02*
X0337618Y0229472D01*
X0337843Y0227874D02*
X0367401Y0227874D01*
X0367401Y0226275D02*
X0337790Y0226275D01*
X0337128Y0224677D02*
X0367401Y0224677D01*
X0367401Y0223078D02*
X0335883Y0223078D01*
X0333142Y0221480D02*
X0367401Y0221480D01*
X0367401Y0219881D02*
X0296900Y0219881D01*
X0296900Y0218283D02*
X0367401Y0218283D01*
X0367401Y0216684D02*
X0296900Y0216684D01*
X0296524Y0215086D02*
X0367401Y0215086D01*
X0367401Y0213487D02*
X0295557Y0213487D01*
X0293109Y0211889D02*
X0367401Y0211889D01*
X0367401Y0210290D02*
X0286400Y0210290D01*
X0286400Y0208692D02*
X0358544Y0208692D01*
X0355658Y0207093D02*
X0286400Y0207093D01*
X0286400Y0205495D02*
X0354059Y0205495D01*
X0353237Y0203896D02*
X0294672Y0203896D01*
X0296270Y0202298D02*
X0352575Y0202298D01*
X0352401Y0200699D02*
X0296450Y0200699D01*
X0296450Y0199101D02*
X0352401Y0199101D01*
X0352714Y0197502D02*
X0295935Y0197502D01*
X0294337Y0195904D02*
X0353376Y0195904D01*
X0354394Y0194305D02*
X0289254Y0194305D01*
X0288663Y0195904D02*
X0288181Y0195904D01*
X0291500Y0195904D02*
X0291500Y0195904D01*
X0291500Y0197502D02*
X0291500Y0197502D01*
X0291500Y0199101D02*
X0291500Y0199101D01*
X0291500Y0200068D02*
X0291500Y0200068D01*
X0291500Y0200699D02*
X0291500Y0200699D01*
X0291500Y0202298D02*
X0291500Y0202298D01*
X0291500Y0203896D02*
X0291500Y0203896D01*
X0288328Y0203896D02*
X0286400Y0203896D01*
X0286583Y0202298D02*
X0286730Y0202298D01*
X0276600Y0203896D02*
X0241500Y0203896D01*
X0241500Y0202298D02*
X0276417Y0202298D01*
X0275950Y0200699D02*
X0241500Y0200699D01*
X0241500Y0199101D02*
X0275950Y0199101D01*
X0276555Y0197502D02*
X0241500Y0197502D01*
X0241500Y0195904D02*
X0277374Y0195904D01*
X0277988Y0194305D02*
X0241500Y0194305D01*
X0241500Y0192707D02*
X0278601Y0192707D01*
X0278831Y0192106D02*
X0278831Y0192106D01*
X0279500Y0191108D02*
X0241500Y0191108D01*
X0241500Y0189510D02*
X0280572Y0189510D01*
X0281644Y0187911D02*
X0241500Y0187911D01*
X0241500Y0186313D02*
X0283328Y0186313D01*
X0281665Y0187880D02*
X0281665Y0187880D01*
X0285025Y0184714D02*
X0241500Y0184714D01*
X0241500Y0183116D02*
X0287538Y0183116D01*
X0285368Y0184391D02*
X0285368Y0184391D01*
X0290689Y0181517D02*
X0241500Y0181517D01*
X0241500Y0179919D02*
X0298929Y0179919D01*
X0299675Y0179857D02*
X0299675Y0179857D01*
X0300106Y0179919D02*
X0336600Y0179919D01*
X0336600Y0178320D02*
X0241500Y0178320D01*
X0241500Y0176722D02*
X0336600Y0176722D01*
X0336600Y0175123D02*
X0241500Y0175123D01*
X0241500Y0173525D02*
X0336600Y0173525D01*
X0336600Y0171926D02*
X0241500Y0171926D01*
X0241500Y0170327D02*
X0336600Y0170327D01*
X0336600Y0168729D02*
X0241500Y0168729D01*
X0241500Y0167130D02*
X0336600Y0167130D01*
X0336600Y0165532D02*
X0241500Y0165532D01*
X0241500Y0163933D02*
X0336600Y0163933D01*
X0336600Y0162335D02*
X0241500Y0162335D01*
X0241500Y0160736D02*
X0336600Y0160736D01*
X0336600Y0159138D02*
X0241500Y0159138D01*
X0241500Y0157539D02*
X0336600Y0157539D01*
X0336600Y0155941D02*
X0241500Y0155941D01*
X0241500Y0154342D02*
X0336600Y0154342D01*
X0336600Y0152744D02*
X0241500Y0152744D01*
X0241500Y0151145D02*
X0336600Y0151145D01*
X0336600Y0149547D02*
X0241500Y0149547D01*
X0241500Y0147948D02*
X0336600Y0147948D01*
X0336600Y0146350D02*
X0241500Y0146350D01*
X0241500Y0144751D02*
X0336600Y0144751D01*
X0336600Y0143153D02*
X0241500Y0143153D01*
X0241500Y0141554D02*
X0336600Y0141554D01*
X0336600Y0139956D02*
X0241500Y0139956D01*
X0241500Y0138357D02*
X0336600Y0138357D01*
X0336600Y0136759D02*
X0241500Y0136759D01*
X0241500Y0135160D02*
X0336600Y0135160D01*
X0336600Y0133562D02*
X0241500Y0133562D01*
X0241500Y0131963D02*
X0336600Y0131963D01*
X0336600Y0130365D02*
X0241500Y0130365D01*
X0241500Y0128766D02*
X0336600Y0128766D01*
X0336600Y0127168D02*
X0241500Y0127168D01*
X0241500Y0125569D02*
X0336600Y0125569D01*
X0336600Y0123971D02*
X0241500Y0123971D01*
X0241500Y0122372D02*
X0336600Y0122372D01*
X0336600Y0120774D02*
X0241500Y0120774D01*
X0241500Y0119175D02*
X0336600Y0119175D01*
X0336600Y0117577D02*
X0241500Y0117577D01*
X0241500Y0115978D02*
X0336600Y0115978D01*
X0336600Y0114380D02*
X0241500Y0114380D01*
X0241500Y0112781D02*
X0336600Y0112781D01*
X0336600Y0111183D02*
X0241500Y0111183D01*
X0241500Y0109584D02*
X0336600Y0109584D01*
X0336600Y0107986D02*
X0241500Y0107986D01*
X0241500Y0106387D02*
X0336600Y0106387D01*
X0336600Y0104789D02*
X0241500Y0104789D01*
X0241500Y0103190D02*
X0336600Y0103190D01*
X0336600Y0101591D02*
X0241500Y0101591D01*
X0241500Y0099993D02*
X0336600Y0099993D01*
X0336600Y0098394D02*
X0241500Y0098394D01*
X0241500Y0096796D02*
X0336600Y0096796D01*
X0336600Y0095197D02*
X0241500Y0095197D01*
X0241500Y0093599D02*
X0336600Y0093599D01*
X0336600Y0092000D02*
X0241500Y0092000D01*
X0241500Y0090402D02*
X0336600Y0090402D01*
X0336600Y0088803D02*
X0241500Y0088803D01*
X0241500Y0087205D02*
X0336600Y0087205D01*
X0336600Y0085606D02*
X0241500Y0085606D01*
X0241500Y0084008D02*
X0336600Y0084008D01*
X0336600Y0082409D02*
X0241500Y0082409D01*
X0241500Y0080811D02*
X0336600Y0080811D01*
X0336600Y0079212D02*
X0241500Y0079212D01*
X0241500Y0077614D02*
X0336600Y0077614D01*
X0336600Y0076015D02*
X0241500Y0076015D01*
X0241500Y0074417D02*
X0336600Y0074417D01*
X0336600Y0072818D02*
X0241500Y0072818D01*
X0241500Y0071220D02*
X0336600Y0071220D01*
X0336600Y0069621D02*
X0241500Y0069621D01*
X0241500Y0068023D02*
X0336600Y0068023D01*
X0336600Y0066424D02*
X0241500Y0066424D01*
X0241500Y0064826D02*
X0336600Y0064826D01*
X0336600Y0063227D02*
X0241500Y0063227D01*
X0241500Y0061629D02*
X0336600Y0061629D01*
X0336600Y0060030D02*
X0241500Y0060030D01*
X0241500Y0058432D02*
X0336600Y0058432D01*
X0336600Y0056833D02*
X0241500Y0056833D01*
X0241500Y0055235D02*
X0336600Y0055235D01*
X0336600Y0053636D02*
X0241500Y0053636D01*
X0241500Y0052038D02*
X0336600Y0052038D01*
X0336600Y0050439D02*
X0241500Y0050439D01*
X0241500Y0048841D02*
X0336600Y0048841D01*
X0336600Y0047242D02*
X0241500Y0047242D01*
X0241500Y0045644D02*
X0336600Y0045644D01*
X0336620Y0044045D02*
X0241500Y0044045D01*
X0241500Y0042447D02*
X0337282Y0042447D01*
X0338882Y0040848D02*
X0241500Y0040848D01*
X0241500Y0039250D02*
X0355045Y0039250D01*
X0353725Y0037651D02*
X0241500Y0037651D01*
X0241500Y0036053D02*
X0353100Y0036053D01*
X0353100Y0034454D02*
X0241500Y0034454D01*
X0241500Y0032856D02*
X0353571Y0032856D01*
X0354674Y0031257D02*
X0241500Y0031257D01*
X0241500Y0029658D02*
X0367401Y0029658D01*
X0367401Y0028060D02*
X0241500Y0028060D01*
X0241500Y0026461D02*
X0367401Y0026461D01*
X0367401Y0024863D02*
X0241500Y0024863D01*
X0241500Y0023264D02*
X0367401Y0023264D01*
X0294604Y0180276D02*
X0294604Y0180276D01*
X0293439Y0191108D02*
X0359352Y0191108D01*
X0355993Y0192707D02*
X0290950Y0192707D01*
X0276600Y0205495D02*
X0241500Y0205495D01*
X0241500Y0207093D02*
X0276600Y0207093D01*
X0276600Y0208692D02*
X0241500Y0208692D01*
X0241500Y0210290D02*
X0276600Y0210290D01*
X0276600Y0211889D02*
X0273109Y0211889D01*
X0275557Y0213487D02*
X0276600Y0213487D01*
X0269891Y0211889D02*
X0241500Y0211889D01*
X0241500Y0213487D02*
X0267443Y0213487D01*
X0266476Y0215086D02*
X0241500Y0215086D01*
X0241500Y0216684D02*
X0266100Y0216684D01*
X0266100Y0218283D02*
X0241500Y0218283D01*
X0241500Y0219881D02*
X0266100Y0219881D01*
X0266100Y0221480D02*
X0241500Y0221480D01*
X0241500Y0223078D02*
X0266100Y0223078D01*
X0266322Y0224677D02*
X0241500Y0224677D01*
X0241500Y0226275D02*
X0267071Y0226275D01*
X0268993Y0227874D02*
X0241500Y0227874D01*
X0241500Y0229472D02*
X0325382Y0229472D01*
X0325157Y0227874D02*
X0294007Y0227874D01*
X0295929Y0226275D02*
X0325210Y0226275D01*
X0325872Y0224677D02*
X0296678Y0224677D01*
X0296900Y0223078D02*
X0327117Y0223078D01*
X0329858Y0221480D02*
X0296900Y0221480D01*
X0288993Y0227874D02*
X0284007Y0227874D01*
X0285929Y0226275D02*
X0287071Y0226275D01*
X0278993Y0227874D02*
X0274007Y0227874D01*
X0275929Y0226275D02*
X0277071Y0226275D01*
X0286400Y0213487D02*
X0287443Y0213487D01*
X0286400Y0211889D02*
X0289891Y0211889D01*
X0326044Y0231071D02*
X0241500Y0231071D01*
X0241500Y0232669D02*
X0327533Y0232669D01*
X0364456Y0208692D02*
X0367401Y0208692D01*
X0367401Y0207093D02*
X0367342Y0207093D01*
X0367401Y0192707D02*
X0367007Y0192707D01*
X0367401Y0191108D02*
X0363648Y0191108D01*
D16*
X0109500Y0114067D02*
X0105500Y0114067D01*
X0105374Y0114065D01*
X0105249Y0114059D01*
X0105124Y0114049D01*
X0104999Y0114035D01*
X0104874Y0114018D01*
X0104750Y0113996D01*
X0104627Y0113971D01*
X0104505Y0113941D01*
X0104384Y0113908D01*
X0104264Y0113871D01*
X0104145Y0113831D01*
X0104028Y0113786D01*
X0103911Y0113738D01*
X0103797Y0113686D01*
X0103684Y0113631D01*
X0103573Y0113572D01*
X0103464Y0113510D01*
X0103357Y0113444D01*
X0103252Y0113375D01*
X0103149Y0113303D01*
X0103048Y0113228D01*
X0102950Y0113149D01*
X0102855Y0113067D01*
X0102762Y0112983D01*
X0102672Y0112895D01*
X0102584Y0112805D01*
X0102500Y0112712D01*
X0102418Y0112617D01*
X0102339Y0112519D01*
X0102264Y0112418D01*
X0102192Y0112315D01*
X0102123Y0112210D01*
X0102057Y0112103D01*
X0101995Y0111994D01*
X0101936Y0111883D01*
X0101881Y0111770D01*
X0101829Y0111656D01*
X0101781Y0111539D01*
X0101736Y0111422D01*
X0101696Y0111303D01*
X0101659Y0111183D01*
X0101626Y0111062D01*
X0101596Y0110940D01*
X0101571Y0110817D01*
X0101549Y0110693D01*
X0101532Y0110568D01*
X0101518Y0110443D01*
X0101508Y0110318D01*
X0101502Y0110193D01*
X0101500Y0110067D01*
X0101500Y0060067D01*
X0101497Y0059825D01*
X0101488Y0059584D01*
X0101474Y0059343D01*
X0101453Y0059102D01*
X0101427Y0058862D01*
X0101395Y0058622D01*
X0101357Y0058383D01*
X0101314Y0058146D01*
X0101264Y0057909D01*
X0101209Y0057674D01*
X0101149Y0057440D01*
X0101082Y0057208D01*
X0101011Y0056977D01*
X0100933Y0056748D01*
X0100850Y0056521D01*
X0100762Y0056296D01*
X0100668Y0056073D01*
X0100569Y0055853D01*
X0100464Y0055635D01*
X0100355Y0055420D01*
X0100240Y0055207D01*
X0100120Y0054997D01*
X0099995Y0054791D01*
X0099865Y0054587D01*
X0099730Y0054386D01*
X0099590Y0054189D01*
X0099446Y0053995D01*
X0099297Y0053805D01*
X0099143Y0053619D01*
X0098985Y0053436D01*
X0098823Y0053257D01*
X0098656Y0053082D01*
X0098485Y0052911D01*
X0098310Y0052744D01*
X0098131Y0052582D01*
X0097948Y0052424D01*
X0097762Y0052270D01*
X0097572Y0052121D01*
X0097378Y0051977D01*
X0097181Y0051837D01*
X0096980Y0051702D01*
X0096776Y0051572D01*
X0096570Y0051447D01*
X0096360Y0051327D01*
X0096147Y0051212D01*
X0095932Y0051103D01*
X0095714Y0050998D01*
X0095494Y0050899D01*
X0095271Y0050805D01*
X0095046Y0050717D01*
X0094819Y0050634D01*
X0094590Y0050556D01*
X0094359Y0050485D01*
X0094127Y0050418D01*
X0093893Y0050358D01*
X0093658Y0050303D01*
X0093421Y0050253D01*
X0093184Y0050210D01*
X0092945Y0050172D01*
X0092705Y0050140D01*
X0092465Y0050114D01*
X0092224Y0050093D01*
X0091983Y0050079D01*
X0091742Y0050070D01*
X0091500Y0050067D01*
X0071500Y0050067D01*
X0071258Y0050064D01*
X0071017Y0050055D01*
X0070776Y0050041D01*
X0070535Y0050020D01*
X0070295Y0049994D01*
X0070055Y0049962D01*
X0069816Y0049924D01*
X0069579Y0049881D01*
X0069342Y0049831D01*
X0069107Y0049776D01*
X0068873Y0049716D01*
X0068641Y0049649D01*
X0068410Y0049578D01*
X0068181Y0049500D01*
X0067954Y0049417D01*
X0067729Y0049329D01*
X0067506Y0049235D01*
X0067286Y0049136D01*
X0067068Y0049031D01*
X0066853Y0048922D01*
X0066640Y0048807D01*
X0066430Y0048687D01*
X0066224Y0048562D01*
X0066020Y0048432D01*
X0065819Y0048297D01*
X0065622Y0048157D01*
X0065428Y0048013D01*
X0065238Y0047864D01*
X0065052Y0047710D01*
X0064869Y0047552D01*
X0064690Y0047390D01*
X0064515Y0047223D01*
X0064344Y0047052D01*
X0064177Y0046877D01*
X0064015Y0046698D01*
X0063857Y0046515D01*
X0063703Y0046329D01*
X0063554Y0046139D01*
X0063410Y0045945D01*
X0063270Y0045748D01*
X0063135Y0045547D01*
X0063005Y0045343D01*
X0062880Y0045137D01*
X0062760Y0044927D01*
X0062645Y0044714D01*
X0062536Y0044499D01*
X0062431Y0044281D01*
X0062332Y0044061D01*
X0062238Y0043838D01*
X0062150Y0043613D01*
X0062067Y0043386D01*
X0061989Y0043157D01*
X0061918Y0042926D01*
X0061851Y0042694D01*
X0061791Y0042460D01*
X0061736Y0042225D01*
X0061686Y0041988D01*
X0061643Y0041751D01*
X0061605Y0041512D01*
X0061573Y0041272D01*
X0061547Y0041032D01*
X0061526Y0040791D01*
X0061512Y0040550D01*
X0061503Y0040309D01*
X0061500Y0040067D01*
X0061500Y0035067D01*
D17*
X0109500Y0145067D02*
X0109500Y0163067D01*
X0109502Y0163236D01*
X0109508Y0163405D01*
X0109518Y0163574D01*
X0109533Y0163743D01*
X0109551Y0163911D01*
X0109573Y0164078D01*
X0109600Y0164245D01*
X0109630Y0164412D01*
X0109665Y0164577D01*
X0109703Y0164742D01*
X0109746Y0164906D01*
X0109792Y0165069D01*
X0109843Y0165230D01*
X0109897Y0165390D01*
X0109955Y0165549D01*
X0110017Y0165707D01*
X0110082Y0165863D01*
X0110152Y0166017D01*
X0110225Y0166169D01*
X0110302Y0166320D01*
X0110382Y0166469D01*
X0110466Y0166616D01*
X0110554Y0166760D01*
X0110645Y0166903D01*
X0110739Y0167043D01*
X0110837Y0167181D01*
X0110938Y0167317D01*
X0111042Y0167450D01*
X0111150Y0167581D01*
X0111260Y0167709D01*
X0111374Y0167834D01*
X0111491Y0167957D01*
X0111610Y0168076D01*
X0111733Y0168193D01*
X0111858Y0168307D01*
X0111986Y0168417D01*
X0112117Y0168525D01*
X0112250Y0168629D01*
X0112386Y0168730D01*
X0112524Y0168828D01*
X0112664Y0168922D01*
X0112807Y0169013D01*
X0112951Y0169101D01*
X0113098Y0169185D01*
X0113247Y0169265D01*
X0113398Y0169342D01*
X0113550Y0169415D01*
X0113704Y0169485D01*
X0113860Y0169550D01*
X0114018Y0169612D01*
X0114177Y0169670D01*
X0114337Y0169724D01*
X0114498Y0169775D01*
X0114661Y0169821D01*
X0114825Y0169864D01*
X0114990Y0169902D01*
X0115155Y0169937D01*
X0115322Y0169967D01*
X0115489Y0169994D01*
X0115656Y0170016D01*
X0115824Y0170034D01*
X0115993Y0170049D01*
X0116162Y0170059D01*
X0116331Y0170065D01*
X0116500Y0170067D01*
D18*
X0051500Y0170067D02*
X0051500Y0150067D01*
X0046500Y0150067D01*
X0051500Y0150067D02*
X0051500Y0130067D01*
X0046500Y0130067D01*
X0051500Y0130067D02*
X0051500Y0110067D01*
X0046500Y0110067D01*
X0051500Y0110067D02*
X0051500Y0090067D01*
X0046500Y0090067D01*
X0051500Y0090067D02*
X0051500Y0070067D01*
X0046500Y0070067D01*
X0051500Y0070067D02*
X0051500Y0050067D01*
X0046500Y0050067D01*
X0046500Y0170067D02*
X0051500Y0170067D01*
X0051500Y0190067D01*
X0051500Y0195067D01*
X0051500Y0200067D01*
D19*
X0281500Y0200067D02*
X0281500Y0220067D01*
X0281500Y0200067D02*
X0281565Y0199645D01*
X0281641Y0199224D01*
X0281727Y0198806D01*
X0281823Y0198390D01*
X0281929Y0197976D01*
X0282045Y0197565D01*
X0282170Y0197156D01*
X0282306Y0196751D01*
X0282451Y0196350D01*
X0282607Y0195951D01*
X0282771Y0195557D01*
X0282945Y0195167D01*
X0283129Y0194781D01*
X0283322Y0194400D01*
X0283523Y0194024D01*
X0283734Y0193652D01*
X0283954Y0193286D01*
X0284183Y0192925D01*
X0284420Y0192570D01*
X0284666Y0192221D01*
X0284920Y0191877D01*
X0285183Y0191540D01*
X0285453Y0191209D01*
X0285732Y0190885D01*
X0286018Y0190568D01*
X0286311Y0190258D01*
X0286613Y0189955D01*
X0286921Y0189659D01*
X0287236Y0189371D01*
X0287559Y0189091D01*
X0287888Y0188818D01*
X0288223Y0188554D01*
X0288565Y0188297D01*
X0288913Y0188049D01*
X0289266Y0187810D01*
X0289626Y0187579D01*
X0289991Y0187357D01*
X0290361Y0187144D01*
X0290736Y0186939D01*
X0291116Y0186744D01*
X0291501Y0186558D01*
X0291890Y0186382D01*
X0292283Y0186215D01*
X0292680Y0186057D01*
X0293081Y0185909D01*
X0293485Y0185771D01*
X0293893Y0185643D01*
X0294303Y0185524D01*
X0294716Y0185416D01*
X0295132Y0185317D01*
X0295550Y0185229D01*
X0295970Y0185151D01*
X0296392Y0185083D01*
X0296815Y0185025D01*
X0297239Y0184977D01*
X0297665Y0184939D01*
X0298091Y0184912D01*
X0298518Y0184896D01*
X0298945Y0184889D01*
X0299372Y0184893D01*
X0299799Y0184907D01*
X0300226Y0184932D01*
X0300652Y0184966D01*
X0301076Y0185011D01*
X0301500Y0185067D01*
X0341500Y0185067D01*
X0361500Y0185067D01*
X0341500Y0185067D02*
X0341500Y0165067D01*
X0361500Y0165067D01*
X0341500Y0165067D02*
X0341500Y0145067D01*
X0361500Y0145067D01*
X0341500Y0145067D02*
X0341500Y0125067D01*
X0361500Y0125067D01*
X0341500Y0125067D02*
X0341500Y0105067D01*
X0361500Y0105067D01*
X0341500Y0105067D02*
X0341500Y0085067D01*
X0361500Y0085067D01*
X0341500Y0085067D02*
X0341500Y0065067D01*
X0361500Y0065067D01*
X0341500Y0065067D02*
X0341500Y0045067D01*
X0361500Y0045067D01*
D20*
X0004400Y0030824D02*
X0004400Y0022967D01*
X0067256Y0022967D01*
X0066498Y0023725D01*
X0065600Y0025894D01*
X0065600Y0031104D01*
X0065124Y0030628D01*
X0064058Y0030186D01*
X0058942Y0030186D01*
X0057876Y0030628D01*
X0057060Y0031444D01*
X0056619Y0032509D01*
X0056619Y0037625D01*
X0057060Y0038691D01*
X0057400Y0039031D01*
X0057400Y0042301D01*
X0058780Y0046548D01*
X0061406Y0050162D01*
X0061406Y0050162D01*
X0065019Y0052787D01*
X0069267Y0054167D01*
X0069267Y0054167D01*
X0072316Y0054167D01*
X0081500Y0054167D01*
X0081500Y0155067D01*
X0081271Y0156872D01*
X0081302Y0158690D01*
X0081591Y0160486D01*
X0082133Y0162222D01*
X0082916Y0163864D01*
X0083925Y0165377D01*
X0085139Y0166731D01*
X0086533Y0167899D01*
X0088080Y0168857D01*
X0089747Y0169584D01*
X0091500Y0170067D01*
X0108607Y0170067D01*
X0108983Y0170585D01*
X0108983Y0170585D01*
X0108983Y0170585D01*
X0111619Y0172500D01*
X0111619Y0172625D01*
X0112060Y0173691D01*
X0112876Y0174507D01*
X0113942Y0174949D01*
X0119058Y0174949D01*
X0119875Y0174610D01*
X0119913Y0174661D01*
X0120596Y0175913D01*
X0121095Y0177250D01*
X0121398Y0178644D01*
X0121500Y0180067D01*
X0121500Y0257128D01*
X0004400Y0257128D01*
X0004400Y0186933D01*
X0004651Y0187426D01*
X0005068Y0187999D01*
X0005568Y0188500D01*
X0006141Y0188916D01*
X0006773Y0189238D01*
X0007446Y0189457D01*
X0008146Y0189567D01*
X0011000Y0189567D01*
X0011000Y0185567D01*
X0012000Y0185567D01*
X0018977Y0185567D01*
X0018889Y0186121D01*
X0018670Y0186795D01*
X0018349Y0187426D01*
X0017932Y0187999D01*
X0017432Y0188500D01*
X0016859Y0188916D01*
X0016227Y0189238D01*
X0015554Y0189457D01*
X0014854Y0189567D01*
X0012000Y0189567D01*
X0012000Y0185567D01*
X0012000Y0184567D01*
X0018977Y0184567D01*
X0018889Y0184014D01*
X0018670Y0183340D01*
X0018349Y0182709D01*
X0017932Y0182136D01*
X0017432Y0181635D01*
X0016859Y0181219D01*
X0016227Y0180897D01*
X0016012Y0180827D01*
X0017842Y0180069D01*
X0019502Y0178409D01*
X0020400Y0176241D01*
X0020400Y0173894D01*
X0019502Y0171725D01*
X0017842Y0170066D01*
X0016012Y0169308D01*
X0016227Y0169238D01*
X0016859Y0168916D01*
X0017432Y0168500D01*
X0017932Y0167999D01*
X0018349Y0167426D01*
X0018670Y0166795D01*
X0018889Y0166121D01*
X0018977Y0165567D01*
X0012000Y0165567D01*
X0012000Y0164567D01*
X0018977Y0164567D01*
X0018889Y0164014D01*
X0018670Y0163340D01*
X0018349Y0162709D01*
X0017932Y0162136D01*
X0017432Y0161635D01*
X0016859Y0161219D01*
X0016227Y0160897D01*
X0016012Y0160827D01*
X0017842Y0160069D01*
X0019502Y0158409D01*
X0020400Y0156241D01*
X0020400Y0153894D01*
X0019502Y0151725D01*
X0017842Y0150066D01*
X0016012Y0149308D01*
X0016227Y0149238D01*
X0016859Y0148916D01*
X0017432Y0148500D01*
X0017932Y0147999D01*
X0018349Y0147426D01*
X0018670Y0146795D01*
X0018889Y0146121D01*
X0018977Y0145567D01*
X0012000Y0145567D01*
X0012000Y0144567D01*
X0018977Y0144567D01*
X0018889Y0144014D01*
X0018670Y0143340D01*
X0018349Y0142709D01*
X0017932Y0142136D01*
X0017432Y0141635D01*
X0016859Y0141219D01*
X0016227Y0140897D01*
X0016012Y0140827D01*
X0017842Y0140069D01*
X0019502Y0138409D01*
X0020400Y0136241D01*
X0020400Y0133894D01*
X0019502Y0131725D01*
X0017842Y0130066D01*
X0016012Y0129308D01*
X0016227Y0129238D01*
X0016859Y0128916D01*
X0017432Y0128500D01*
X0017932Y0127999D01*
X0018349Y0127426D01*
X0018670Y0126795D01*
X0018889Y0126121D01*
X0018977Y0125567D01*
X0012000Y0125567D01*
X0012000Y0124567D01*
X0018977Y0124567D01*
X0018889Y0124014D01*
X0018670Y0123340D01*
X0018349Y0122709D01*
X0017932Y0122136D01*
X0017432Y0121635D01*
X0016859Y0121219D01*
X0016227Y0120897D01*
X0016012Y0120827D01*
X0017842Y0120069D01*
X0019502Y0118409D01*
X0020400Y0116241D01*
X0020400Y0113894D01*
X0019502Y0111725D01*
X0017842Y0110066D01*
X0016012Y0109308D01*
X0016227Y0109238D01*
X0016859Y0108916D01*
X0017432Y0108500D01*
X0017932Y0107999D01*
X0018349Y0107426D01*
X0018670Y0106795D01*
X0018889Y0106121D01*
X0018977Y0105567D01*
X0012000Y0105567D01*
X0012000Y0104567D01*
X0018977Y0104567D01*
X0018889Y0104014D01*
X0018670Y0103340D01*
X0018349Y0102709D01*
X0017932Y0102136D01*
X0017432Y0101635D01*
X0016859Y0101219D01*
X0016227Y0100897D01*
X0016012Y0100827D01*
X0017842Y0100069D01*
X0019502Y0098409D01*
X0020400Y0096241D01*
X0020400Y0093894D01*
X0019502Y0091725D01*
X0017842Y0090066D01*
X0016012Y0089308D01*
X0016227Y0089238D01*
X0016859Y0088916D01*
X0017432Y0088500D01*
X0017932Y0087999D01*
X0018349Y0087426D01*
X0018670Y0086795D01*
X0018889Y0086121D01*
X0018977Y0085567D01*
X0012000Y0085567D01*
X0012000Y0084567D01*
X0018977Y0084567D01*
X0018889Y0084014D01*
X0018670Y0083340D01*
X0018349Y0082709D01*
X0017932Y0082136D01*
X0017432Y0081635D01*
X0016859Y0081219D01*
X0016227Y0080897D01*
X0016012Y0080827D01*
X0017842Y0080069D01*
X0019502Y0078409D01*
X0020400Y0076241D01*
X0020400Y0073894D01*
X0019502Y0071725D01*
X0017842Y0070066D01*
X0016012Y0069308D01*
X0016227Y0069238D01*
X0016859Y0068916D01*
X0017432Y0068500D01*
X0017932Y0067999D01*
X0018349Y0067426D01*
X0018670Y0066795D01*
X0018889Y0066121D01*
X0018977Y0065567D01*
X0012000Y0065567D01*
X0012000Y0064567D01*
X0018977Y0064567D01*
X0018889Y0064014D01*
X0018670Y0063340D01*
X0018349Y0062709D01*
X0017932Y0062136D01*
X0017432Y0061635D01*
X0016859Y0061219D01*
X0016227Y0060897D01*
X0016012Y0060827D01*
X0017842Y0060069D01*
X0019502Y0058409D01*
X0020400Y0056241D01*
X0020400Y0053894D01*
X0019502Y0051725D01*
X0017842Y0050066D01*
X0016012Y0049308D01*
X0016227Y0049238D01*
X0016859Y0048916D01*
X0017432Y0048500D01*
X0017932Y0047999D01*
X0018349Y0047426D01*
X0018670Y0046795D01*
X0018889Y0046121D01*
X0018977Y0045567D01*
X0012000Y0045567D01*
X0012000Y0044567D01*
X0018977Y0044567D01*
X0018889Y0044014D01*
X0018670Y0043340D01*
X0018349Y0042709D01*
X0017932Y0042136D01*
X0017432Y0041635D01*
X0016859Y0041219D01*
X0016227Y0040897D01*
X0016012Y0040827D01*
X0017842Y0040069D01*
X0019502Y0038409D01*
X0020400Y0036241D01*
X0020400Y0033894D01*
X0019502Y0031725D01*
X0017842Y0030066D01*
X0015674Y0029167D01*
X0007326Y0029167D01*
X0005158Y0030066D01*
X0004400Y0030824D01*
X0004400Y0030053D02*
X0005190Y0030053D01*
X0004400Y0029054D02*
X0065600Y0029054D01*
X0065600Y0028056D02*
X0004400Y0028056D01*
X0004400Y0027057D02*
X0065600Y0027057D01*
X0065600Y0026058D02*
X0004400Y0026058D01*
X0004400Y0025060D02*
X0065945Y0025060D01*
X0066359Y0024061D02*
X0004400Y0024061D01*
X0004400Y0023063D02*
X0067161Y0023063D01*
X0065600Y0030053D02*
X0017810Y0030053D01*
X0018827Y0031051D02*
X0057453Y0031051D01*
X0056809Y0032050D02*
X0019636Y0032050D01*
X0020050Y0033048D02*
X0056619Y0033048D01*
X0056619Y0034047D02*
X0020400Y0034047D01*
X0020400Y0035045D02*
X0056619Y0035045D01*
X0056619Y0036044D02*
X0020400Y0036044D01*
X0020068Y0037042D02*
X0056619Y0037042D01*
X0056791Y0038041D02*
X0019655Y0038041D01*
X0018872Y0039039D02*
X0057400Y0039039D01*
X0057400Y0040038D02*
X0017874Y0040038D01*
X0016500Y0041036D02*
X0057400Y0041036D01*
X0057400Y0042035D02*
X0017831Y0042035D01*
X0018514Y0043033D02*
X0057638Y0043033D01*
X0057962Y0044032D02*
X0018892Y0044032D01*
X0018904Y0046029D02*
X0042475Y0046029D01*
X0042876Y0045628D02*
X0043942Y0045186D01*
X0054058Y0045186D01*
X0055124Y0045628D01*
X0055940Y0046444D01*
X0056381Y0047509D01*
X0056381Y0052625D01*
X0056000Y0053545D01*
X0056000Y0066589D01*
X0056381Y0067509D01*
X0056381Y0072625D01*
X0056000Y0073545D01*
X0056000Y0086589D01*
X0056381Y0087509D01*
X0056381Y0092625D01*
X0056000Y0093545D01*
X0056000Y0106589D01*
X0056381Y0107509D01*
X0056381Y0112625D01*
X0056000Y0113545D01*
X0056000Y0126589D01*
X0056381Y0127509D01*
X0056381Y0132625D01*
X0056000Y0133545D01*
X0056000Y0146589D01*
X0056381Y0147509D01*
X0056381Y0152625D01*
X0056000Y0153545D01*
X0056000Y0166589D01*
X0056381Y0167509D01*
X0056381Y0172625D01*
X0056000Y0173545D01*
X0056000Y0186589D01*
X0056381Y0187509D01*
X0056381Y0202625D01*
X0055940Y0203691D01*
X0055124Y0204507D01*
X0054058Y0204949D01*
X0048942Y0204949D01*
X0047876Y0204507D01*
X0047060Y0203691D01*
X0046619Y0202625D01*
X0046619Y0187509D01*
X0047000Y0186589D01*
X0047000Y0174949D01*
X0043942Y0174949D01*
X0042876Y0174507D01*
X0042060Y0173691D01*
X0041619Y0172625D01*
X0041619Y0167509D01*
X0042060Y0166444D01*
X0042876Y0165628D01*
X0043942Y0165186D01*
X0047000Y0165186D01*
X0047000Y0154949D01*
X0043942Y0154949D01*
X0042876Y0154507D01*
X0042060Y0153691D01*
X0041619Y0152625D01*
X0041619Y0147509D01*
X0042060Y0146444D01*
X0042876Y0145628D01*
X0043942Y0145186D01*
X0047000Y0145186D01*
X0047000Y0134949D01*
X0043942Y0134949D01*
X0042876Y0134507D01*
X0042060Y0133691D01*
X0041619Y0132625D01*
X0041619Y0127509D01*
X0042060Y0126444D01*
X0042876Y0125628D01*
X0043942Y0125186D01*
X0047000Y0125186D01*
X0047000Y0114949D01*
X0043942Y0114949D01*
X0042876Y0114507D01*
X0042060Y0113691D01*
X0041619Y0112625D01*
X0041619Y0107509D01*
X0042060Y0106444D01*
X0042876Y0105628D01*
X0043942Y0105186D01*
X0047000Y0105186D01*
X0047000Y0094949D01*
X0043942Y0094949D01*
X0042876Y0094507D01*
X0042060Y0093691D01*
X0041619Y0092625D01*
X0041619Y0087509D01*
X0042060Y0086444D01*
X0042876Y0085628D01*
X0043942Y0085186D01*
X0047000Y0085186D01*
X0047000Y0074949D01*
X0043942Y0074949D01*
X0042876Y0074507D01*
X0042060Y0073691D01*
X0041619Y0072625D01*
X0041619Y0067509D01*
X0042060Y0066444D01*
X0042876Y0065628D01*
X0043942Y0065186D01*
X0047000Y0065186D01*
X0047000Y0054949D01*
X0043942Y0054949D01*
X0042876Y0054507D01*
X0042060Y0053691D01*
X0041619Y0052625D01*
X0041619Y0047509D01*
X0042060Y0046444D01*
X0042876Y0045628D01*
X0041819Y0047027D02*
X0018552Y0047027D01*
X0017906Y0048026D02*
X0041619Y0048026D01*
X0041619Y0049024D02*
X0016646Y0049024D01*
X0017739Y0050023D02*
X0041619Y0050023D01*
X0041619Y0051021D02*
X0018798Y0051021D01*
X0019624Y0052020D02*
X0041619Y0052020D01*
X0041782Y0053018D02*
X0020037Y0053018D01*
X0020400Y0054017D02*
X0042386Y0054017D01*
X0047000Y0055015D02*
X0020400Y0055015D01*
X0020400Y0056014D02*
X0047000Y0056014D01*
X0047000Y0057012D02*
X0020080Y0057012D01*
X0019667Y0058011D02*
X0047000Y0058011D01*
X0047000Y0059009D02*
X0018902Y0059009D01*
X0017903Y0060008D02*
X0047000Y0060008D01*
X0047000Y0061006D02*
X0016442Y0061006D01*
X0017801Y0062005D02*
X0047000Y0062005D01*
X0047000Y0063003D02*
X0018499Y0063003D01*
X0018885Y0064002D02*
X0047000Y0064002D01*
X0047000Y0065000D02*
X0012000Y0065000D01*
X0017935Y0067996D02*
X0041619Y0067996D01*
X0041619Y0068994D02*
X0016705Y0068994D01*
X0017667Y0069993D02*
X0041619Y0069993D01*
X0041619Y0070991D02*
X0018768Y0070991D01*
X0019611Y0071990D02*
X0041619Y0071990D01*
X0041769Y0072989D02*
X0020025Y0072989D01*
X0020400Y0073987D02*
X0042356Y0073987D01*
X0047000Y0074986D02*
X0020400Y0074986D01*
X0020400Y0075984D02*
X0047000Y0075984D01*
X0047000Y0076983D02*
X0020093Y0076983D01*
X0019679Y0077981D02*
X0047000Y0077981D01*
X0047000Y0078980D02*
X0018932Y0078980D01*
X0017933Y0079978D02*
X0047000Y0079978D01*
X0047000Y0080977D02*
X0016383Y0080977D01*
X0017772Y0081975D02*
X0047000Y0081975D01*
X0047000Y0082974D02*
X0018484Y0082974D01*
X0018876Y0083972D02*
X0047000Y0083972D01*
X0047000Y0084971D02*
X0012000Y0084971D01*
X0017956Y0087966D02*
X0041619Y0087966D01*
X0041619Y0088965D02*
X0016763Y0088965D01*
X0017595Y0089963D02*
X0041619Y0089963D01*
X0041619Y0090962D02*
X0018738Y0090962D01*
X0019599Y0091960D02*
X0041619Y0091960D01*
X0041757Y0092959D02*
X0020013Y0092959D01*
X0020400Y0093957D02*
X0042326Y0093957D01*
X0047000Y0094956D02*
X0020400Y0094956D01*
X0020400Y0095954D02*
X0047000Y0095954D01*
X0047000Y0096953D02*
X0020105Y0096953D01*
X0019692Y0097951D02*
X0047000Y0097951D01*
X0047000Y0098950D02*
X0018961Y0098950D01*
X0017963Y0099948D02*
X0047000Y0099948D01*
X0047000Y0100947D02*
X0016325Y0100947D01*
X0017742Y0101945D02*
X0047000Y0101945D01*
X0047000Y0102944D02*
X0018468Y0102944D01*
X0018866Y0103942D02*
X0047000Y0103942D01*
X0047000Y0104941D02*
X0012000Y0104941D01*
X0016822Y0108935D02*
X0041619Y0108935D01*
X0041619Y0109933D02*
X0017523Y0109933D01*
X0018708Y0110932D02*
X0041619Y0110932D01*
X0041619Y0111930D02*
X0019587Y0111930D01*
X0020000Y0112929D02*
X0041745Y0112929D01*
X0042297Y0113927D02*
X0020400Y0113927D01*
X0020400Y0114926D02*
X0043888Y0114926D01*
X0047000Y0115925D02*
X0020400Y0115925D01*
X0020117Y0116923D02*
X0047000Y0116923D01*
X0047000Y0117922D02*
X0019704Y0117922D01*
X0018991Y0118920D02*
X0047000Y0118920D01*
X0047000Y0119919D02*
X0017993Y0119919D01*
X0016267Y0120917D02*
X0047000Y0120917D01*
X0047000Y0121916D02*
X0017712Y0121916D01*
X0018453Y0122914D02*
X0047000Y0122914D01*
X0047000Y0123913D02*
X0018856Y0123913D01*
X0018923Y0125910D02*
X0042594Y0125910D01*
X0041868Y0126908D02*
X0018613Y0126908D01*
X0017999Y0127907D02*
X0041619Y0127907D01*
X0041619Y0128905D02*
X0016874Y0128905D01*
X0017451Y0129904D02*
X0041619Y0129904D01*
X0041619Y0130902D02*
X0018679Y0130902D01*
X0019574Y0131901D02*
X0041619Y0131901D01*
X0041732Y0132899D02*
X0019988Y0132899D01*
X0020400Y0133898D02*
X0042267Y0133898D01*
X0043816Y0134896D02*
X0020400Y0134896D01*
X0020400Y0135895D02*
X0047000Y0135895D01*
X0047000Y0136893D02*
X0020130Y0136893D01*
X0019716Y0137892D02*
X0047000Y0137892D01*
X0047000Y0138890D02*
X0019021Y0138890D01*
X0018022Y0139889D02*
X0047000Y0139889D01*
X0047000Y0140887D02*
X0016197Y0140887D01*
X0017682Y0141886D02*
X0047000Y0141886D01*
X0047000Y0142884D02*
X0018438Y0142884D01*
X0018847Y0143883D02*
X0047000Y0143883D01*
X0047000Y0144881D02*
X0012000Y0144881D01*
X0016915Y0148875D02*
X0041619Y0148875D01*
X0041619Y0147877D02*
X0018021Y0147877D01*
X0018628Y0146878D02*
X0041880Y0146878D01*
X0042624Y0145880D02*
X0018927Y0145880D01*
X0017379Y0149874D02*
X0041619Y0149874D01*
X0041619Y0150872D02*
X0018649Y0150872D01*
X0019562Y0151871D02*
X0041619Y0151871D01*
X0041720Y0152869D02*
X0019976Y0152869D01*
X0020389Y0153868D02*
X0042237Y0153868D01*
X0043744Y0154866D02*
X0020400Y0154866D01*
X0020400Y0155865D02*
X0047000Y0155865D01*
X0047000Y0156863D02*
X0020142Y0156863D01*
X0019729Y0157862D02*
X0047000Y0157862D01*
X0047000Y0158860D02*
X0019051Y0158860D01*
X0018052Y0159859D02*
X0047000Y0159859D01*
X0047000Y0160858D02*
X0016106Y0160858D01*
X0017653Y0161856D02*
X0047000Y0161856D01*
X0047000Y0162855D02*
X0018423Y0162855D01*
X0018837Y0163853D02*
X0047000Y0163853D01*
X0047000Y0164852D02*
X0012000Y0164852D01*
X0018043Y0167847D02*
X0041619Y0167847D01*
X0041619Y0168846D02*
X0016956Y0168846D01*
X0017307Y0169844D02*
X0041619Y0169844D01*
X0041619Y0170843D02*
X0018619Y0170843D01*
X0019550Y0171841D02*
X0041619Y0171841D01*
X0041708Y0172840D02*
X0019963Y0172840D01*
X0020377Y0173838D02*
X0042207Y0173838D01*
X0043672Y0174837D02*
X0020400Y0174837D01*
X0020400Y0175835D02*
X0047000Y0175835D01*
X0047000Y0176834D02*
X0020154Y0176834D01*
X0019741Y0177832D02*
X0047000Y0177832D01*
X0047000Y0178831D02*
X0019081Y0178831D01*
X0018082Y0179829D02*
X0047000Y0179829D01*
X0047000Y0180828D02*
X0016014Y0180828D01*
X0017623Y0181826D02*
X0047000Y0181826D01*
X0047000Y0182825D02*
X0018408Y0182825D01*
X0018827Y0183823D02*
X0047000Y0183823D01*
X0047000Y0184822D02*
X0012000Y0184822D01*
X0012000Y0185820D02*
X0011000Y0185820D01*
X0011000Y0186819D02*
X0012000Y0186819D01*
X0012000Y0187817D02*
X0011000Y0187817D01*
X0011000Y0188816D02*
X0012000Y0188816D01*
X0016997Y0188816D02*
X0046619Y0188816D01*
X0046619Y0189814D02*
X0004400Y0189814D01*
X0004400Y0188816D02*
X0006003Y0188816D01*
X0004936Y0187817D02*
X0004400Y0187817D01*
X0004400Y0190813D02*
X0046619Y0190813D01*
X0046619Y0191811D02*
X0004400Y0191811D01*
X0004400Y0192810D02*
X0046619Y0192810D01*
X0046619Y0193808D02*
X0004400Y0193808D01*
X0004400Y0194807D02*
X0046619Y0194807D01*
X0046619Y0195805D02*
X0004400Y0195805D01*
X0004400Y0196804D02*
X0046619Y0196804D01*
X0046619Y0197802D02*
X0004400Y0197802D01*
X0004400Y0198801D02*
X0046619Y0198801D01*
X0046619Y0199799D02*
X0004400Y0199799D01*
X0004400Y0200798D02*
X0046619Y0200798D01*
X0046619Y0201796D02*
X0004400Y0201796D01*
X0004400Y0202795D02*
X0046689Y0202795D01*
X0047163Y0203794D02*
X0004400Y0203794D01*
X0004400Y0204792D02*
X0048564Y0204792D01*
X0054436Y0204792D02*
X0121500Y0204792D01*
X0121500Y0203794D02*
X0055837Y0203794D01*
X0056311Y0202795D02*
X0121500Y0202795D01*
X0121500Y0201796D02*
X0056381Y0201796D01*
X0056381Y0200798D02*
X0121500Y0200798D01*
X0121500Y0199799D02*
X0056381Y0199799D01*
X0056381Y0198801D02*
X0121500Y0198801D01*
X0121500Y0197802D02*
X0056381Y0197802D01*
X0056381Y0196804D02*
X0121500Y0196804D01*
X0121500Y0195805D02*
X0056381Y0195805D01*
X0056381Y0194807D02*
X0121500Y0194807D01*
X0121500Y0193808D02*
X0056381Y0193808D01*
X0056381Y0192810D02*
X0121500Y0192810D01*
X0121500Y0191811D02*
X0056381Y0191811D01*
X0056381Y0190813D02*
X0121500Y0190813D01*
X0121500Y0189814D02*
X0056381Y0189814D01*
X0056381Y0188816D02*
X0121500Y0188816D01*
X0121500Y0187817D02*
X0056381Y0187817D01*
X0056095Y0186819D02*
X0121500Y0186819D01*
X0121500Y0185820D02*
X0056000Y0185820D01*
X0056000Y0184822D02*
X0121500Y0184822D01*
X0121500Y0183823D02*
X0056000Y0183823D01*
X0056000Y0182825D02*
X0121500Y0182825D01*
X0121500Y0181826D02*
X0056000Y0181826D01*
X0056000Y0180828D02*
X0121500Y0180828D01*
X0121483Y0179829D02*
X0056000Y0179829D01*
X0056000Y0178831D02*
X0121412Y0178831D01*
X0121222Y0177832D02*
X0056000Y0177832D01*
X0056000Y0176834D02*
X0120940Y0176834D01*
X0120554Y0175835D02*
X0056000Y0175835D01*
X0056000Y0174837D02*
X0113672Y0174837D01*
X0113649Y0174149D02*
X0112419Y0172918D01*
X0112419Y0171941D01*
X0112041Y0171818D01*
X0109556Y0170012D01*
X0109556Y0170012D01*
X0109556Y0170012D01*
X0107750Y0167526D01*
X0106800Y0164604D01*
X0106800Y0149580D01*
X0104400Y0147180D01*
X0104400Y0142955D01*
X0107388Y0139967D01*
X0111612Y0139967D01*
X0114600Y0142955D01*
X0114600Y0147180D01*
X0112200Y0149580D01*
X0112200Y0163067D01*
X0112253Y0163740D01*
X0112669Y0165020D01*
X0113459Y0166108D01*
X0113499Y0166137D01*
X0113649Y0165986D01*
X0119351Y0165986D01*
X0120581Y0167216D01*
X0120581Y0172918D01*
X0119351Y0174149D01*
X0113649Y0174149D01*
X0113339Y0173838D02*
X0081500Y0173838D01*
X0081500Y0172840D02*
X0112419Y0172840D01*
X0111708Y0172840D02*
X0056292Y0172840D01*
X0056381Y0171841D02*
X0110712Y0171841D01*
X0110699Y0170843D02*
X0081500Y0170843D01*
X0081500Y0171841D02*
X0112113Y0171841D01*
X0112041Y0171818D02*
X0112041Y0171818D01*
X0112207Y0173838D02*
X0056000Y0173838D01*
X0056381Y0170843D02*
X0109338Y0170843D01*
X0109434Y0169844D02*
X0081500Y0169844D01*
X0081500Y0168846D02*
X0108708Y0168846D01*
X0107983Y0167847D02*
X0081500Y0167847D01*
X0081500Y0166849D02*
X0107529Y0166849D01*
X0107750Y0167526D02*
X0107750Y0167526D01*
X0107205Y0165850D02*
X0081500Y0165850D01*
X0081500Y0164852D02*
X0106881Y0164852D01*
X0106800Y0163853D02*
X0081500Y0163853D01*
X0081500Y0162855D02*
X0106800Y0162855D01*
X0106800Y0161856D02*
X0081500Y0161856D01*
X0082018Y0161856D02*
X0056000Y0161856D01*
X0056000Y0160858D02*
X0081707Y0160858D01*
X0081500Y0160858D02*
X0106800Y0160858D01*
X0106800Y0159859D02*
X0081500Y0159859D01*
X0081490Y0159859D02*
X0056000Y0159859D01*
X0056000Y0158860D02*
X0081329Y0158860D01*
X0081500Y0158860D02*
X0106800Y0158860D01*
X0106800Y0157862D02*
X0081500Y0157862D01*
X0081288Y0157862D02*
X0056000Y0157862D01*
X0056000Y0156863D02*
X0081272Y0156863D01*
X0081500Y0156863D02*
X0106800Y0156863D01*
X0106800Y0155865D02*
X0081500Y0155865D01*
X0081399Y0155865D02*
X0056000Y0155865D01*
X0056000Y0154866D02*
X0081500Y0154866D01*
X0106800Y0154866D01*
X0106800Y0153868D02*
X0081500Y0153868D01*
X0056000Y0153868D01*
X0056280Y0152869D02*
X0081500Y0152869D01*
X0106800Y0152869D01*
X0106800Y0151871D02*
X0081500Y0151871D01*
X0056381Y0151871D01*
X0056381Y0150872D02*
X0081500Y0150872D01*
X0106800Y0150872D01*
X0106800Y0149874D02*
X0081500Y0149874D01*
X0056381Y0149874D01*
X0056381Y0148875D02*
X0081500Y0148875D01*
X0106095Y0148875D01*
X0105097Y0147877D02*
X0081500Y0147877D01*
X0056381Y0147877D01*
X0056120Y0146878D02*
X0081500Y0146878D01*
X0104400Y0146878D01*
X0104400Y0145880D02*
X0081500Y0145880D01*
X0056000Y0145880D01*
X0056000Y0144881D02*
X0081500Y0144881D01*
X0104400Y0144881D01*
X0104400Y0143883D02*
X0081500Y0143883D01*
X0056000Y0143883D01*
X0056000Y0142884D02*
X0081500Y0142884D01*
X0104471Y0142884D01*
X0105469Y0141886D02*
X0081500Y0141886D01*
X0056000Y0141886D01*
X0056000Y0140887D02*
X0081500Y0140887D01*
X0106468Y0140887D01*
X0112532Y0140887D02*
X0233500Y0140887D01*
X0233500Y0139889D02*
X0081500Y0139889D01*
X0056000Y0139889D01*
X0056000Y0138890D02*
X0081500Y0138890D01*
X0233500Y0138890D01*
X0233500Y0137892D02*
X0081500Y0137892D01*
X0056000Y0137892D01*
X0056000Y0136893D02*
X0081500Y0136893D01*
X0233500Y0136893D01*
X0233500Y0135895D02*
X0081500Y0135895D01*
X0056000Y0135895D01*
X0056000Y0134896D02*
X0081500Y0134896D01*
X0233500Y0134896D01*
X0233500Y0133898D02*
X0081500Y0133898D01*
X0056000Y0133898D01*
X0056268Y0132899D02*
X0081500Y0132899D01*
X0233500Y0132899D01*
X0233500Y0131901D02*
X0081500Y0131901D01*
X0056381Y0131901D01*
X0056381Y0130902D02*
X0081500Y0130902D01*
X0233500Y0130902D01*
X0233500Y0129904D02*
X0081500Y0129904D01*
X0056381Y0129904D01*
X0056381Y0128905D02*
X0081500Y0128905D01*
X0233500Y0128905D01*
X0233500Y0127907D02*
X0081500Y0127907D01*
X0056381Y0127907D01*
X0056132Y0126908D02*
X0081500Y0126908D01*
X0233500Y0126908D01*
X0233500Y0125910D02*
X0081500Y0125910D01*
X0056000Y0125910D01*
X0056000Y0124911D02*
X0081500Y0124911D01*
X0233500Y0124911D01*
X0233500Y0123913D02*
X0081500Y0123913D01*
X0056000Y0123913D01*
X0056000Y0122914D02*
X0081500Y0122914D01*
X0233500Y0122914D01*
X0233500Y0121916D02*
X0081500Y0121916D01*
X0056000Y0121916D01*
X0056000Y0120917D02*
X0081500Y0120917D01*
X0233500Y0120917D01*
X0233500Y0119919D02*
X0081500Y0119919D01*
X0056000Y0119919D01*
X0056000Y0118920D02*
X0081500Y0118920D01*
X0233500Y0118920D01*
X0233500Y0117922D02*
X0112578Y0117922D01*
X0112351Y0118149D02*
X0102649Y0118149D01*
X0101419Y0116918D01*
X0101419Y0116278D01*
X0101365Y0116256D01*
X0101365Y0116256D01*
X0099311Y0114203D01*
X0099311Y0114203D01*
X0098200Y0111519D01*
X0098200Y0060067D01*
X0098118Y0059019D01*
X0097470Y0057026D01*
X0096238Y0055330D01*
X0094542Y0054098D01*
X0092548Y0053450D01*
X0091500Y0053367D01*
X0081500Y0053367D01*
X0081500Y0257528D01*
X0233500Y0257528D01*
X0233500Y0250456D01*
X0232585Y0250835D01*
X0230415Y0250835D01*
X0228411Y0250005D01*
X0226877Y0248471D01*
X0226047Y0246467D01*
X0226047Y0244298D01*
X0226877Y0242294D01*
X0228411Y0240760D01*
X0230415Y0239930D01*
X0232585Y0239930D01*
X0233500Y0240309D01*
X0233500Y0233379D01*
X0232702Y0233709D01*
X0230298Y0233709D01*
X0228077Y0232789D01*
X0226377Y0231089D01*
X0225457Y0228868D01*
X0225457Y0226464D01*
X0226377Y0224243D01*
X0228077Y0222543D01*
X0230298Y0221623D01*
X0232702Y0221623D01*
X0233500Y0221953D01*
X0233500Y0022567D01*
X0081500Y0022567D01*
X0081500Y0029567D01*
X0082000Y0029567D01*
X0082000Y0022591D01*
X0082554Y0022678D01*
X0083227Y0022897D01*
X0083859Y0023219D01*
X0084432Y0023635D01*
X0084932Y0024136D01*
X0085349Y0024709D01*
X0085670Y0025340D01*
X0085889Y0026014D01*
X0086000Y0026713D01*
X0086000Y0029567D01*
X0082000Y0029567D01*
X0082000Y0030567D01*
X0086000Y0030567D01*
X0086000Y0033422D01*
X0085889Y0034121D01*
X0085670Y0034795D01*
X0085349Y0035426D01*
X0084932Y0035999D01*
X0084432Y0036500D01*
X0083859Y0036916D01*
X0083227Y0037238D01*
X0082554Y0037457D01*
X0082000Y0037544D01*
X0082000Y0030567D01*
X0081500Y0030567D01*
X0081500Y0046767D01*
X0093607Y0046767D01*
X0097613Y0048069D01*
X0097613Y0048069D01*
X0101022Y0050546D01*
X0103498Y0053954D01*
X0104800Y0057961D01*
X0104800Y0109986D01*
X0112351Y0109986D01*
X0113581Y0111216D01*
X0113581Y0116918D01*
X0112351Y0118149D01*
X0113576Y0116923D02*
X0233500Y0116923D01*
X0233500Y0115925D02*
X0113581Y0115925D01*
X0113581Y0114926D02*
X0233500Y0114926D01*
X0233500Y0113927D02*
X0113581Y0113927D01*
X0113581Y0112929D02*
X0233500Y0112929D01*
X0233500Y0111930D02*
X0113581Y0111930D01*
X0113297Y0110932D02*
X0233500Y0110932D01*
X0233500Y0109933D02*
X0104800Y0109933D01*
X0104800Y0108935D02*
X0233500Y0108935D01*
X0233500Y0107936D02*
X0104800Y0107936D01*
X0104800Y0106938D02*
X0233500Y0106938D01*
X0233500Y0105939D02*
X0104800Y0105939D01*
X0104800Y0104941D02*
X0233500Y0104941D01*
X0233500Y0103942D02*
X0153307Y0103942D01*
X0153101Y0104149D02*
X0147399Y0104149D01*
X0146169Y0102918D01*
X0146169Y0101603D01*
X0145945Y0101510D01*
X0143807Y0099372D01*
X0142650Y0096579D01*
X0142650Y0090399D01*
X0139331Y0090399D01*
X0139331Y0090418D01*
X0138101Y0091649D01*
X0132399Y0091649D01*
X0131169Y0090418D01*
X0131169Y0084716D01*
X0132399Y0083486D01*
X0132650Y0083486D01*
X0132650Y0074130D01*
X0132389Y0074391D01*
X0130514Y0075167D01*
X0122486Y0075167D01*
X0120611Y0074391D01*
X0119176Y0072956D01*
X0118400Y0071082D01*
X0118400Y0069053D01*
X0119176Y0067178D01*
X0120611Y0065744D01*
X0122244Y0065067D01*
X0120611Y0064391D01*
X0119176Y0062956D01*
X0118400Y0061082D01*
X0118400Y0059053D01*
X0119176Y0057178D01*
X0120611Y0055744D01*
X0122486Y0054967D01*
X0130514Y0054967D01*
X0132389Y0055744D01*
X0133824Y0057178D01*
X0134600Y0059053D01*
X0134600Y0060135D01*
X0136998Y0058216D01*
X0136998Y0058216D01*
X0138985Y0057641D01*
X0139176Y0057178D01*
X0140611Y0055744D01*
X0142486Y0054967D01*
X0150514Y0054967D01*
X0152389Y0055744D01*
X0152419Y0055774D01*
X0152419Y0052216D01*
X0153649Y0050986D01*
X0159351Y0050986D01*
X0160581Y0052216D01*
X0160581Y0057918D01*
X0159351Y0059149D01*
X0159100Y0059149D01*
X0159100Y0071667D01*
X0158111Y0074710D01*
X0156231Y0077298D01*
X0156231Y0077298D01*
X0156231Y0077298D01*
X0153642Y0079179D01*
X0150600Y0080167D01*
X0149000Y0080167D01*
X0148776Y0080190D01*
X0148361Y0080361D01*
X0148044Y0080679D01*
X0147916Y0080986D01*
X0153101Y0080986D01*
X0154331Y0082216D01*
X0154331Y0082467D01*
X0154919Y0082467D01*
X0154919Y0082216D01*
X0156149Y0080986D01*
X0161851Y0080986D01*
X0163081Y0082216D01*
X0163081Y0087918D01*
X0161851Y0089149D01*
X0156149Y0089149D01*
X0154919Y0087918D01*
X0154919Y0087667D01*
X0154331Y0087667D01*
X0154331Y0087918D01*
X0153432Y0088817D01*
X0154331Y0089716D01*
X0154331Y0089967D01*
X0161264Y0089967D01*
X0163139Y0090744D01*
X0163381Y0090986D01*
X0165601Y0090986D01*
X0166831Y0092216D01*
X0166831Y0097918D01*
X0165601Y0099149D01*
X0159899Y0099149D01*
X0158669Y0097918D01*
X0158669Y0095167D01*
X0154331Y0095167D01*
X0154331Y0095418D01*
X0153432Y0096317D01*
X0154331Y0097216D01*
X0154331Y0102918D01*
X0153101Y0104149D01*
X0154306Y0102944D02*
X0233500Y0102944D01*
X0233500Y0101945D02*
X0154331Y0101945D01*
X0154331Y0100947D02*
X0233500Y0100947D01*
X0233500Y0099948D02*
X0154331Y0099948D01*
X0154331Y0098950D02*
X0159700Y0098950D01*
X0158702Y0097951D02*
X0154331Y0097951D01*
X0154067Y0096953D02*
X0158669Y0096953D01*
X0158669Y0095954D02*
X0153795Y0095954D01*
X0150250Y0100067D02*
X0150110Y0100065D01*
X0149970Y0100059D01*
X0149830Y0100049D01*
X0149690Y0100036D01*
X0149551Y0100018D01*
X0149412Y0099996D01*
X0149275Y0099971D01*
X0149137Y0099942D01*
X0149001Y0099909D01*
X0148866Y0099872D01*
X0148732Y0099831D01*
X0148599Y0099786D01*
X0148467Y0099738D01*
X0148337Y0099686D01*
X0148208Y0099631D01*
X0148081Y0099572D01*
X0147955Y0099509D01*
X0147831Y0099443D01*
X0147710Y0099374D01*
X0147590Y0099301D01*
X0147472Y0099224D01*
X0147357Y0099145D01*
X0147243Y0099062D01*
X0147133Y0098976D01*
X0147024Y0098887D01*
X0146918Y0098795D01*
X0146815Y0098700D01*
X0146714Y0098603D01*
X0146617Y0098502D01*
X0146522Y0098399D01*
X0146430Y0098293D01*
X0146341Y0098184D01*
X0146255Y0098074D01*
X0146172Y0097960D01*
X0146093Y0097845D01*
X0146016Y0097727D01*
X0145943Y0097607D01*
X0145874Y0097486D01*
X0145808Y0097362D01*
X0145745Y0097236D01*
X0145686Y0097109D01*
X0145631Y0096980D01*
X0145579Y0096850D01*
X0145531Y0096718D01*
X0145486Y0096585D01*
X0145445Y0096451D01*
X0145408Y0096316D01*
X0145375Y0096180D01*
X0145346Y0096042D01*
X0145321Y0095905D01*
X0145299Y0095766D01*
X0145281Y0095627D01*
X0145268Y0095487D01*
X0145258Y0095347D01*
X0145252Y0095207D01*
X0145250Y0095067D01*
X0145250Y0081317D01*
X0147920Y0080977D02*
X0233500Y0080977D01*
X0233500Y0081975D02*
X0162840Y0081975D01*
X0163081Y0082974D02*
X0233500Y0082974D01*
X0233500Y0083972D02*
X0163081Y0083972D01*
X0163081Y0084971D02*
X0233500Y0084971D01*
X0233500Y0085969D02*
X0163081Y0085969D01*
X0163081Y0086968D02*
X0233500Y0086968D01*
X0233500Y0087966D02*
X0163033Y0087966D01*
X0162035Y0088965D02*
X0233500Y0088965D01*
X0233500Y0089963D02*
X0154331Y0089963D01*
X0153579Y0088965D02*
X0155965Y0088965D01*
X0154967Y0087966D02*
X0154283Y0087966D01*
X0150250Y0085067D02*
X0159000Y0085067D01*
X0155160Y0081975D02*
X0154090Y0081975D01*
X0153642Y0079179D02*
X0153642Y0079179D01*
X0153917Y0078980D02*
X0233500Y0078980D01*
X0233500Y0079978D02*
X0151182Y0079978D01*
X0149000Y0077567D02*
X0148880Y0077569D01*
X0148760Y0077575D01*
X0148640Y0077584D01*
X0148520Y0077598D01*
X0148402Y0077615D01*
X0148283Y0077636D01*
X0148166Y0077661D01*
X0148049Y0077690D01*
X0147933Y0077722D01*
X0147818Y0077758D01*
X0147705Y0077798D01*
X0147593Y0077841D01*
X0147482Y0077888D01*
X0147373Y0077938D01*
X0147265Y0077992D01*
X0147160Y0078050D01*
X0147056Y0078110D01*
X0146954Y0078174D01*
X0146855Y0078241D01*
X0146757Y0078312D01*
X0146662Y0078385D01*
X0146569Y0078462D01*
X0146479Y0078541D01*
X0146391Y0078623D01*
X0146306Y0078708D01*
X0146224Y0078796D01*
X0146145Y0078886D01*
X0146068Y0078979D01*
X0145995Y0079074D01*
X0145924Y0079172D01*
X0145857Y0079271D01*
X0145793Y0079373D01*
X0145733Y0079477D01*
X0145675Y0079582D01*
X0145621Y0079690D01*
X0145571Y0079799D01*
X0145524Y0079910D01*
X0145481Y0080022D01*
X0145441Y0080135D01*
X0145405Y0080250D01*
X0145373Y0080366D01*
X0145344Y0080483D01*
X0145319Y0080600D01*
X0145298Y0080719D01*
X0145281Y0080837D01*
X0145267Y0080957D01*
X0145258Y0081077D01*
X0145252Y0081197D01*
X0145250Y0081317D01*
X0141500Y0086317D02*
X0141500Y0075067D01*
X0141502Y0074927D01*
X0141508Y0074787D01*
X0141518Y0074647D01*
X0141531Y0074507D01*
X0141549Y0074368D01*
X0141571Y0074229D01*
X0141596Y0074092D01*
X0141625Y0073954D01*
X0141658Y0073818D01*
X0141695Y0073683D01*
X0141736Y0073549D01*
X0141781Y0073416D01*
X0141829Y0073284D01*
X0141881Y0073154D01*
X0141936Y0073025D01*
X0141995Y0072898D01*
X0142058Y0072772D01*
X0142124Y0072648D01*
X0142193Y0072527D01*
X0142266Y0072407D01*
X0142343Y0072289D01*
X0142422Y0072174D01*
X0142505Y0072060D01*
X0142591Y0071950D01*
X0142680Y0071841D01*
X0142772Y0071735D01*
X0142867Y0071632D01*
X0142964Y0071531D01*
X0143065Y0071434D01*
X0143168Y0071339D01*
X0143274Y0071247D01*
X0143383Y0071158D01*
X0143493Y0071072D01*
X0143607Y0070989D01*
X0143722Y0070910D01*
X0143840Y0070833D01*
X0143960Y0070760D01*
X0144081Y0070691D01*
X0144205Y0070625D01*
X0144331Y0070562D01*
X0144458Y0070503D01*
X0144587Y0070448D01*
X0144717Y0070396D01*
X0144849Y0070348D01*
X0144982Y0070303D01*
X0145116Y0070262D01*
X0145251Y0070225D01*
X0145387Y0070192D01*
X0145525Y0070163D01*
X0145662Y0070138D01*
X0145801Y0070116D01*
X0145940Y0070098D01*
X0146080Y0070085D01*
X0146220Y0070075D01*
X0146360Y0070069D01*
X0146500Y0070067D01*
X0149000Y0077567D02*
X0149181Y0077565D01*
X0149362Y0077558D01*
X0149543Y0077547D01*
X0149724Y0077532D01*
X0149904Y0077512D01*
X0150084Y0077488D01*
X0150263Y0077460D01*
X0150441Y0077427D01*
X0150618Y0077390D01*
X0150795Y0077349D01*
X0150970Y0077304D01*
X0151145Y0077254D01*
X0151318Y0077200D01*
X0151489Y0077142D01*
X0151660Y0077080D01*
X0151828Y0077013D01*
X0151995Y0076943D01*
X0152161Y0076869D01*
X0152324Y0076790D01*
X0152485Y0076708D01*
X0152645Y0076622D01*
X0152802Y0076532D01*
X0152957Y0076438D01*
X0153110Y0076341D01*
X0153260Y0076239D01*
X0153408Y0076135D01*
X0153554Y0076026D01*
X0153696Y0075915D01*
X0153836Y0075799D01*
X0153973Y0075681D01*
X0154108Y0075559D01*
X0154239Y0075434D01*
X0154367Y0075306D01*
X0154492Y0075175D01*
X0154614Y0075040D01*
X0154732Y0074903D01*
X0154848Y0074763D01*
X0154959Y0074621D01*
X0155068Y0074475D01*
X0155172Y0074327D01*
X0155274Y0074177D01*
X0155371Y0074024D01*
X0155465Y0073869D01*
X0155555Y0073712D01*
X0155641Y0073552D01*
X0155723Y0073391D01*
X0155802Y0073228D01*
X0155876Y0073062D01*
X0155946Y0072895D01*
X0156013Y0072727D01*
X0156075Y0072556D01*
X0156133Y0072385D01*
X0156187Y0072212D01*
X0156237Y0072037D01*
X0156282Y0071862D01*
X0156323Y0071685D01*
X0156360Y0071508D01*
X0156393Y0071330D01*
X0156421Y0071151D01*
X0156445Y0070971D01*
X0156465Y0070791D01*
X0156480Y0070610D01*
X0156491Y0070429D01*
X0156498Y0070248D01*
X0156500Y0070067D01*
X0156500Y0055067D01*
X0152419Y0055015D02*
X0150630Y0055015D01*
X0152419Y0054017D02*
X0103518Y0054017D01*
X0103498Y0053954D02*
X0103498Y0053954D01*
X0103843Y0055015D02*
X0122370Y0055015D01*
X0120341Y0056014D02*
X0104167Y0056014D01*
X0104492Y0057012D02*
X0119343Y0057012D01*
X0118832Y0058011D02*
X0104800Y0058011D01*
X0104800Y0059009D02*
X0118418Y0059009D01*
X0118400Y0060008D02*
X0104800Y0060008D01*
X0104800Y0061006D02*
X0118400Y0061006D01*
X0118782Y0062005D02*
X0104800Y0062005D01*
X0104800Y0063003D02*
X0119223Y0063003D01*
X0120222Y0064002D02*
X0104800Y0064002D01*
X0104800Y0065000D02*
X0122082Y0065000D01*
X0120356Y0065999D02*
X0104800Y0065999D01*
X0104800Y0066997D02*
X0119357Y0066997D01*
X0118838Y0067996D02*
X0104800Y0067996D01*
X0104800Y0068994D02*
X0118424Y0068994D01*
X0118400Y0069993D02*
X0104800Y0069993D01*
X0104800Y0070991D02*
X0118400Y0070991D01*
X0118776Y0071990D02*
X0104800Y0071990D01*
X0104800Y0072989D02*
X0119209Y0072989D01*
X0120207Y0073987D02*
X0104800Y0073987D01*
X0104800Y0074986D02*
X0122046Y0074986D01*
X0130954Y0074986D02*
X0132650Y0074986D01*
X0132650Y0075984D02*
X0104800Y0075984D01*
X0104800Y0076983D02*
X0132650Y0076983D01*
X0132650Y0077981D02*
X0104800Y0077981D01*
X0104800Y0078980D02*
X0132650Y0078980D01*
X0132650Y0079978D02*
X0104800Y0079978D01*
X0104800Y0080977D02*
X0132650Y0080977D01*
X0132650Y0081975D02*
X0104800Y0081975D01*
X0104800Y0082974D02*
X0132650Y0082974D01*
X0131913Y0083972D02*
X0104800Y0083972D01*
X0104800Y0084971D02*
X0131169Y0084971D01*
X0131169Y0085969D02*
X0104800Y0085969D01*
X0104800Y0086968D02*
X0131169Y0086968D01*
X0131169Y0087966D02*
X0104800Y0087966D01*
X0104800Y0088965D02*
X0131169Y0088965D01*
X0131169Y0089963D02*
X0104800Y0089963D01*
X0104800Y0090962D02*
X0131712Y0090962D01*
X0135250Y0087567D02*
X0135290Y0087525D01*
X0135326Y0087480D01*
X0135360Y0087433D01*
X0135391Y0087384D01*
X0135418Y0087333D01*
X0135442Y0087280D01*
X0135462Y0087226D01*
X0135479Y0087171D01*
X0135492Y0087114D01*
X0135501Y0087057D01*
X0135507Y0087000D01*
X0135509Y0086942D01*
X0135507Y0086884D01*
X0135501Y0086827D01*
X0135492Y0086770D01*
X0135479Y0086713D01*
X0135462Y0086658D01*
X0135442Y0086604D01*
X0135418Y0086551D01*
X0135391Y0086500D01*
X0135360Y0086451D01*
X0135326Y0086404D01*
X0135290Y0086359D01*
X0135250Y0086317D01*
X0135250Y0065067D01*
X0135268Y0064920D01*
X0135290Y0064773D01*
X0135316Y0064628D01*
X0135346Y0064482D01*
X0135379Y0064338D01*
X0135417Y0064195D01*
X0135458Y0064052D01*
X0135502Y0063911D01*
X0135551Y0063771D01*
X0135603Y0063632D01*
X0135659Y0063495D01*
X0135718Y0063359D01*
X0135781Y0063225D01*
X0135847Y0063093D01*
X0135917Y0062962D01*
X0135990Y0062833D01*
X0136067Y0062706D01*
X0136147Y0062581D01*
X0136230Y0062459D01*
X0136316Y0062338D01*
X0136405Y0062220D01*
X0136498Y0062104D01*
X0136593Y0061991D01*
X0136691Y0061880D01*
X0136793Y0061772D01*
X0136897Y0061666D01*
X0137003Y0061563D01*
X0137113Y0061463D01*
X0137225Y0061366D01*
X0137339Y0061272D01*
X0137456Y0061181D01*
X0137575Y0061093D01*
X0137697Y0061008D01*
X0137821Y0060927D01*
X0137946Y0060849D01*
X0138074Y0060774D01*
X0138204Y0060702D01*
X0138335Y0060634D01*
X0138469Y0060569D01*
X0138604Y0060508D01*
X0138740Y0060450D01*
X0138878Y0060396D01*
X0139017Y0060346D01*
X0139158Y0060299D01*
X0139300Y0060256D01*
X0139443Y0060216D01*
X0139586Y0060181D01*
X0139731Y0060149D01*
X0139877Y0060121D01*
X0140023Y0060097D01*
X0140170Y0060076D01*
X0140317Y0060060D01*
X0140464Y0060047D01*
X0140612Y0060038D01*
X0140760Y0060033D01*
X0140909Y0060032D01*
X0141057Y0060035D01*
X0141205Y0060042D01*
X0141353Y0060052D01*
X0141500Y0060067D01*
X0146500Y0060067D01*
X0142370Y0055015D02*
X0130630Y0055015D01*
X0132659Y0056014D02*
X0140341Y0056014D01*
X0139343Y0057012D02*
X0133657Y0057012D01*
X0134168Y0058011D02*
X0137708Y0058011D01*
X0136007Y0059009D02*
X0134582Y0059009D01*
X0134600Y0060008D02*
X0134759Y0060008D01*
X0152419Y0053018D02*
X0102818Y0053018D01*
X0102093Y0052020D02*
X0152616Y0052020D01*
X0153614Y0051021D02*
X0101367Y0051021D01*
X0101022Y0050546D02*
X0101022Y0050546D01*
X0101022Y0050546D01*
X0100302Y0050023D02*
X0233500Y0050023D01*
X0233500Y0051021D02*
X0159386Y0051021D01*
X0160384Y0052020D02*
X0233500Y0052020D01*
X0233500Y0053018D02*
X0160581Y0053018D01*
X0160581Y0054017D02*
X0233500Y0054017D01*
X0233500Y0055015D02*
X0160581Y0055015D01*
X0160581Y0056014D02*
X0233500Y0056014D01*
X0233500Y0057012D02*
X0160581Y0057012D01*
X0160489Y0058011D02*
X0233500Y0058011D01*
X0233500Y0059009D02*
X0159490Y0059009D01*
X0159100Y0060008D02*
X0233500Y0060008D01*
X0233500Y0061006D02*
X0159100Y0061006D01*
X0159100Y0062005D02*
X0233500Y0062005D01*
X0233500Y0063003D02*
X0159100Y0063003D01*
X0159100Y0064002D02*
X0233500Y0064002D01*
X0233500Y0065000D02*
X0159100Y0065000D01*
X0159100Y0065999D02*
X0233500Y0065999D01*
X0233500Y0066997D02*
X0159100Y0066997D01*
X0159100Y0067996D02*
X0233500Y0067996D01*
X0233500Y0068994D02*
X0159100Y0068994D01*
X0159100Y0069993D02*
X0233500Y0069993D01*
X0233500Y0070991D02*
X0159100Y0070991D01*
X0158995Y0071990D02*
X0233500Y0071990D01*
X0233500Y0072989D02*
X0158671Y0072989D01*
X0158346Y0073987D02*
X0233500Y0073987D01*
X0233500Y0074986D02*
X0157911Y0074986D01*
X0158111Y0074710D02*
X0158111Y0074710D01*
X0157186Y0075984D02*
X0233500Y0075984D01*
X0233500Y0076983D02*
X0156460Y0076983D01*
X0155291Y0077981D02*
X0233500Y0077981D01*
X0233500Y0090962D02*
X0163357Y0090962D01*
X0163139Y0090744D02*
X0163139Y0090744D01*
X0160250Y0092567D02*
X0150250Y0092567D01*
X0142650Y0092959D02*
X0104800Y0092959D01*
X0104800Y0093957D02*
X0142650Y0093957D01*
X0142650Y0094956D02*
X0104800Y0094956D01*
X0104800Y0095954D02*
X0142650Y0095954D01*
X0142805Y0096953D02*
X0104800Y0096953D01*
X0104800Y0097951D02*
X0143218Y0097951D01*
X0143632Y0098950D02*
X0104800Y0098950D01*
X0104800Y0099948D02*
X0144383Y0099948D01*
X0143807Y0099372D02*
X0143807Y0099372D01*
X0145381Y0100947D02*
X0104800Y0100947D01*
X0104800Y0101945D02*
X0146169Y0101945D01*
X0145945Y0101510D02*
X0145945Y0101510D01*
X0146194Y0102944D02*
X0104800Y0102944D01*
X0104800Y0103942D02*
X0147193Y0103942D01*
X0160250Y0092567D02*
X0160348Y0092569D01*
X0160446Y0092575D01*
X0160544Y0092584D01*
X0160641Y0092598D01*
X0160738Y0092615D01*
X0160834Y0092636D01*
X0160929Y0092661D01*
X0161023Y0092689D01*
X0161115Y0092722D01*
X0161207Y0092757D01*
X0161297Y0092797D01*
X0161385Y0092839D01*
X0161472Y0092886D01*
X0161556Y0092935D01*
X0161639Y0092988D01*
X0161719Y0093044D01*
X0161798Y0093104D01*
X0161874Y0093166D01*
X0161947Y0093231D01*
X0162018Y0093299D01*
X0162086Y0093370D01*
X0162151Y0093443D01*
X0162213Y0093519D01*
X0162273Y0093598D01*
X0162329Y0093678D01*
X0162382Y0093761D01*
X0162431Y0093845D01*
X0162478Y0093932D01*
X0162520Y0094020D01*
X0162560Y0094110D01*
X0162595Y0094202D01*
X0162628Y0094294D01*
X0162656Y0094388D01*
X0162681Y0094483D01*
X0162702Y0094579D01*
X0162719Y0094676D01*
X0162733Y0094773D01*
X0162742Y0094871D01*
X0162748Y0094969D01*
X0162750Y0095067D01*
X0166831Y0094956D02*
X0233500Y0094956D01*
X0233500Y0095954D02*
X0166831Y0095954D01*
X0166831Y0096953D02*
X0233500Y0096953D01*
X0233500Y0097951D02*
X0166798Y0097951D01*
X0165800Y0098950D02*
X0233500Y0098950D01*
X0233500Y0093957D02*
X0166831Y0093957D01*
X0166831Y0092959D02*
X0233500Y0092959D01*
X0233500Y0091960D02*
X0166575Y0091960D01*
X0142650Y0091960D02*
X0104800Y0091960D01*
X0098200Y0091960D02*
X0081500Y0091960D01*
X0056381Y0091960D01*
X0056381Y0090962D02*
X0081500Y0090962D01*
X0098200Y0090962D01*
X0098200Y0089963D02*
X0081500Y0089963D01*
X0056381Y0089963D01*
X0056381Y0088965D02*
X0081500Y0088965D01*
X0098200Y0088965D01*
X0098200Y0087966D02*
X0081500Y0087966D01*
X0056381Y0087966D01*
X0056157Y0086968D02*
X0081500Y0086968D01*
X0098200Y0086968D01*
X0098200Y0085969D02*
X0081500Y0085969D01*
X0056000Y0085969D01*
X0056000Y0084971D02*
X0081500Y0084971D01*
X0098200Y0084971D01*
X0098200Y0083972D02*
X0081500Y0083972D01*
X0056000Y0083972D01*
X0056000Y0082974D02*
X0081500Y0082974D01*
X0098200Y0082974D01*
X0098200Y0081975D02*
X0081500Y0081975D01*
X0056000Y0081975D01*
X0056000Y0080977D02*
X0081500Y0080977D01*
X0098200Y0080977D01*
X0098200Y0079978D02*
X0081500Y0079978D01*
X0056000Y0079978D01*
X0056000Y0078980D02*
X0081500Y0078980D01*
X0098200Y0078980D01*
X0098200Y0077981D02*
X0081500Y0077981D01*
X0056000Y0077981D01*
X0056000Y0076983D02*
X0081500Y0076983D01*
X0098200Y0076983D01*
X0098200Y0075984D02*
X0081500Y0075984D01*
X0056000Y0075984D01*
X0056000Y0074986D02*
X0081500Y0074986D01*
X0098200Y0074986D01*
X0098200Y0073987D02*
X0081500Y0073987D01*
X0056000Y0073987D01*
X0056231Y0072989D02*
X0081500Y0072989D01*
X0098200Y0072989D01*
X0098200Y0071990D02*
X0081500Y0071990D01*
X0056381Y0071990D01*
X0056381Y0070991D02*
X0081500Y0070991D01*
X0098200Y0070991D01*
X0098200Y0069993D02*
X0081500Y0069993D01*
X0056381Y0069993D01*
X0056381Y0068994D02*
X0081500Y0068994D01*
X0098200Y0068994D01*
X0098200Y0067996D02*
X0081500Y0067996D01*
X0056381Y0067996D01*
X0056169Y0066997D02*
X0081500Y0066997D01*
X0098200Y0066997D01*
X0098200Y0065999D02*
X0081500Y0065999D01*
X0056000Y0065999D01*
X0056000Y0065000D02*
X0081500Y0065000D01*
X0098200Y0065000D01*
X0098200Y0064002D02*
X0081500Y0064002D01*
X0056000Y0064002D01*
X0056000Y0063003D02*
X0081500Y0063003D01*
X0098200Y0063003D01*
X0098200Y0062005D02*
X0081500Y0062005D01*
X0056000Y0062005D01*
X0056000Y0061006D02*
X0081500Y0061006D01*
X0098200Y0061006D01*
X0098195Y0060008D02*
X0081500Y0060008D01*
X0056000Y0060008D01*
X0056000Y0059009D02*
X0081500Y0059009D01*
X0098114Y0059009D01*
X0097790Y0058011D02*
X0081500Y0058011D01*
X0056000Y0058011D01*
X0056000Y0057012D02*
X0081500Y0057012D01*
X0097460Y0057012D01*
X0096735Y0056014D02*
X0081500Y0056014D01*
X0056000Y0056014D01*
X0056000Y0055015D02*
X0081500Y0055015D01*
X0095805Y0055015D01*
X0094293Y0054017D02*
X0081500Y0054017D01*
X0081500Y0046029D02*
X0233500Y0046029D01*
X0233500Y0047027D02*
X0094406Y0047027D01*
X0097479Y0048026D02*
X0233500Y0048026D01*
X0233500Y0049024D02*
X0098928Y0049024D01*
X0084888Y0036044D02*
X0233500Y0036044D01*
X0233500Y0037042D02*
X0083611Y0037042D01*
X0082000Y0037042D02*
X0081500Y0037042D01*
X0081500Y0036044D02*
X0082000Y0036044D01*
X0082000Y0035045D02*
X0081500Y0035045D01*
X0081500Y0034047D02*
X0082000Y0034047D01*
X0082000Y0033048D02*
X0081500Y0033048D01*
X0081500Y0032050D02*
X0082000Y0032050D01*
X0082000Y0031051D02*
X0081500Y0031051D01*
X0082000Y0030053D02*
X0233500Y0030053D01*
X0233500Y0031051D02*
X0086000Y0031051D01*
X0086000Y0032050D02*
X0233500Y0032050D01*
X0233500Y0033048D02*
X0086000Y0033048D01*
X0085901Y0034047D02*
X0233500Y0034047D01*
X0233500Y0035045D02*
X0085543Y0035045D01*
X0081500Y0038041D02*
X0233500Y0038041D01*
X0233500Y0039039D02*
X0081500Y0039039D01*
X0081500Y0040038D02*
X0233500Y0040038D01*
X0233500Y0041036D02*
X0081500Y0041036D01*
X0081500Y0042035D02*
X0233500Y0042035D01*
X0233500Y0043033D02*
X0081500Y0043033D01*
X0081500Y0044032D02*
X0233500Y0044032D01*
X0233500Y0045030D02*
X0081500Y0045030D01*
X0068803Y0054017D02*
X0056000Y0054017D01*
X0056218Y0053018D02*
X0065730Y0053018D01*
X0063963Y0052020D02*
X0056381Y0052020D01*
X0056381Y0051021D02*
X0062588Y0051021D01*
X0061304Y0050023D02*
X0056381Y0050023D01*
X0056381Y0049024D02*
X0060579Y0049024D01*
X0059854Y0048026D02*
X0056381Y0048026D01*
X0056181Y0047027D02*
X0059128Y0047027D01*
X0058611Y0046029D02*
X0055525Y0046029D01*
X0058287Y0045030D02*
X0012000Y0045030D01*
X0018909Y0065999D02*
X0042505Y0065999D01*
X0041831Y0066997D02*
X0018567Y0066997D01*
X0018913Y0085969D02*
X0042535Y0085969D01*
X0041843Y0086968D02*
X0018582Y0086968D01*
X0018918Y0105939D02*
X0042565Y0105939D01*
X0041856Y0106938D02*
X0018597Y0106938D01*
X0017978Y0107936D02*
X0041619Y0107936D01*
X0056000Y0105939D02*
X0081500Y0105939D01*
X0098200Y0105939D01*
X0098200Y0104941D02*
X0081500Y0104941D01*
X0056000Y0104941D01*
X0056000Y0103942D02*
X0081500Y0103942D01*
X0098200Y0103942D01*
X0098200Y0102944D02*
X0081500Y0102944D01*
X0056000Y0102944D01*
X0056000Y0101945D02*
X0081500Y0101945D01*
X0098200Y0101945D01*
X0098200Y0100947D02*
X0081500Y0100947D01*
X0056000Y0100947D01*
X0056000Y0099948D02*
X0081500Y0099948D01*
X0098200Y0099948D01*
X0098200Y0098950D02*
X0081500Y0098950D01*
X0056000Y0098950D01*
X0056000Y0097951D02*
X0081500Y0097951D01*
X0098200Y0097951D01*
X0098200Y0096953D02*
X0081500Y0096953D01*
X0056000Y0096953D01*
X0056000Y0095954D02*
X0081500Y0095954D01*
X0098200Y0095954D01*
X0098200Y0094956D02*
X0081500Y0094956D01*
X0056000Y0094956D01*
X0056000Y0093957D02*
X0081500Y0093957D01*
X0098200Y0093957D01*
X0098200Y0092959D02*
X0081500Y0092959D01*
X0056243Y0092959D01*
X0056144Y0106938D02*
X0081500Y0106938D01*
X0098200Y0106938D01*
X0098200Y0107936D02*
X0081500Y0107936D01*
X0056381Y0107936D01*
X0056381Y0108935D02*
X0081500Y0108935D01*
X0098200Y0108935D01*
X0098200Y0109933D02*
X0081500Y0109933D01*
X0056381Y0109933D01*
X0056381Y0110932D02*
X0081500Y0110932D01*
X0098200Y0110932D01*
X0098370Y0111930D02*
X0081500Y0111930D01*
X0056381Y0111930D01*
X0056255Y0112929D02*
X0081500Y0112929D01*
X0098784Y0112929D01*
X0099197Y0113927D02*
X0081500Y0113927D01*
X0056000Y0113927D01*
X0056000Y0114926D02*
X0081500Y0114926D01*
X0100035Y0114926D01*
X0101033Y0115925D02*
X0081500Y0115925D01*
X0056000Y0115925D01*
X0056000Y0116923D02*
X0081500Y0116923D01*
X0101424Y0116923D01*
X0102422Y0117922D02*
X0081500Y0117922D01*
X0056000Y0117922D01*
X0047000Y0124911D02*
X0012000Y0124911D01*
X0056000Y0162855D02*
X0082434Y0162855D01*
X0082911Y0163853D02*
X0056000Y0163853D01*
X0056000Y0164852D02*
X0083574Y0164852D01*
X0084349Y0165850D02*
X0056000Y0165850D01*
X0056107Y0166849D02*
X0085279Y0166849D01*
X0086471Y0167847D02*
X0056381Y0167847D01*
X0056381Y0168846D02*
X0088062Y0168846D01*
X0090689Y0169844D02*
X0056381Y0169844D01*
X0042654Y0165850D02*
X0018932Y0165850D01*
X0018643Y0166849D02*
X0041893Y0166849D01*
X0047000Y0185820D02*
X0018937Y0185820D01*
X0018658Y0186819D02*
X0046905Y0186819D01*
X0046619Y0187817D02*
X0018064Y0187817D01*
X0004400Y0205791D02*
X0121500Y0205791D01*
X0121500Y0206789D02*
X0004400Y0206789D01*
X0004400Y0207788D02*
X0121500Y0207788D01*
X0121500Y0208786D02*
X0004400Y0208786D01*
X0004400Y0209785D02*
X0121500Y0209785D01*
X0121500Y0210783D02*
X0004400Y0210783D01*
X0004400Y0211782D02*
X0121500Y0211782D01*
X0121500Y0212780D02*
X0004400Y0212780D01*
X0004400Y0213779D02*
X0121500Y0213779D01*
X0121500Y0214777D02*
X0004400Y0214777D01*
X0004400Y0215776D02*
X0099216Y0215776D01*
X0081500Y0215776D01*
X0081500Y0216774D02*
X0098217Y0216774D01*
X0004400Y0216774D01*
X0004400Y0217773D02*
X0097219Y0217773D01*
X0081500Y0217773D01*
X0081500Y0218771D02*
X0096850Y0218771D01*
X0004400Y0218771D01*
X0004400Y0219770D02*
X0101200Y0219770D01*
X0081500Y0219770D01*
X0081500Y0220768D02*
X0096850Y0220768D01*
X0004400Y0220768D01*
X0004400Y0221767D02*
X0096850Y0221767D01*
X0081500Y0221767D01*
X0081500Y0222765D02*
X0097622Y0222765D01*
X0004400Y0222765D01*
X0004400Y0223764D02*
X0098620Y0223764D01*
X0081500Y0223764D01*
X0081500Y0224762D02*
X0226161Y0224762D01*
X0225748Y0225761D02*
X0194618Y0225761D01*
X0194474Y0225617D02*
X0195951Y0227094D01*
X0196750Y0229023D01*
X0196750Y0231112D01*
X0195951Y0233041D01*
X0194474Y0234518D01*
X0192544Y0235317D01*
X0190456Y0235317D01*
X0188526Y0234518D01*
X0187049Y0233041D01*
X0186250Y0231112D01*
X0186250Y0229023D01*
X0187049Y0227094D01*
X0188526Y0225617D01*
X0190456Y0224817D01*
X0192544Y0224817D01*
X0194474Y0225617D01*
X0193426Y0224717D02*
X0196150Y0221994D01*
X0196150Y0220367D01*
X0191800Y0220367D01*
X0191800Y0219767D01*
X0191800Y0215417D01*
X0193426Y0215417D01*
X0196150Y0218141D01*
X0196150Y0219767D01*
X0191800Y0219767D01*
X0191200Y0219767D01*
X0191200Y0215417D01*
X0189574Y0215417D01*
X0186850Y0218141D01*
X0186850Y0219767D01*
X0191200Y0219767D01*
X0191200Y0220367D01*
X0186850Y0220367D01*
X0186850Y0221994D01*
X0189574Y0224717D01*
X0191200Y0224717D01*
X0191200Y0220367D01*
X0191800Y0220367D01*
X0191800Y0224717D01*
X0193426Y0224717D01*
X0194380Y0223764D02*
X0226856Y0223764D01*
X0227854Y0222765D02*
X0195378Y0222765D01*
X0196150Y0221767D02*
X0229950Y0221767D01*
X0233050Y0221767D02*
X0233500Y0221767D01*
X0233500Y0220768D02*
X0196150Y0220768D01*
X0196150Y0218771D02*
X0233500Y0218771D01*
X0233500Y0217773D02*
X0195781Y0217773D01*
X0194783Y0216774D02*
X0233500Y0216774D01*
X0233500Y0215776D02*
X0193784Y0215776D01*
X0191800Y0215776D02*
X0191200Y0215776D01*
X0191200Y0216774D02*
X0191800Y0216774D01*
X0191800Y0217773D02*
X0191200Y0217773D01*
X0191200Y0218771D02*
X0191800Y0218771D01*
X0191800Y0219770D02*
X0233500Y0219770D01*
X0233500Y0214777D02*
X0081500Y0214777D01*
X0081500Y0213779D02*
X0233500Y0213779D01*
X0233500Y0212780D02*
X0081500Y0212780D01*
X0081500Y0211782D02*
X0233500Y0211782D01*
X0233500Y0210783D02*
X0081500Y0210783D01*
X0081500Y0209785D02*
X0233500Y0209785D01*
X0233500Y0208786D02*
X0081500Y0208786D01*
X0081500Y0207788D02*
X0233500Y0207788D01*
X0233500Y0206789D02*
X0081500Y0206789D01*
X0081500Y0205791D02*
X0233500Y0205791D01*
X0233500Y0204792D02*
X0081500Y0204792D01*
X0081500Y0203794D02*
X0184573Y0203794D01*
X0184750Y0203867D02*
X0181516Y0202527D01*
X0179040Y0200052D01*
X0177701Y0196818D01*
X0177701Y0193317D01*
X0179040Y0190083D01*
X0181516Y0187608D01*
X0184750Y0186268D01*
X0188250Y0186268D01*
X0191484Y0187608D01*
X0193960Y0190083D01*
X0195299Y0193317D01*
X0195299Y0196818D01*
X0193960Y0200052D01*
X0191484Y0202527D01*
X0188250Y0203867D01*
X0184750Y0203867D01*
X0182163Y0202795D02*
X0081500Y0202795D01*
X0081500Y0201796D02*
X0180785Y0201796D01*
X0179787Y0200798D02*
X0081500Y0200798D01*
X0081500Y0199799D02*
X0178936Y0199799D01*
X0178522Y0198801D02*
X0081500Y0198801D01*
X0081500Y0197802D02*
X0178109Y0197802D01*
X0177701Y0196804D02*
X0081500Y0196804D01*
X0081500Y0195805D02*
X0177701Y0195805D01*
X0177701Y0194807D02*
X0081500Y0194807D01*
X0081500Y0193808D02*
X0177701Y0193808D01*
X0177911Y0192810D02*
X0081500Y0192810D01*
X0081500Y0191811D02*
X0178324Y0191811D01*
X0178738Y0190813D02*
X0081500Y0190813D01*
X0081500Y0189814D02*
X0179309Y0189814D01*
X0180308Y0188816D02*
X0081500Y0188816D01*
X0081500Y0187817D02*
X0181306Y0187817D01*
X0183420Y0186819D02*
X0081500Y0186819D01*
X0081500Y0185820D02*
X0233500Y0185820D01*
X0233500Y0184822D02*
X0081500Y0184822D01*
X0081500Y0183823D02*
X0233500Y0183823D01*
X0233500Y0182825D02*
X0081500Y0182825D01*
X0081500Y0181826D02*
X0233500Y0181826D01*
X0233500Y0180828D02*
X0081500Y0180828D01*
X0081500Y0179829D02*
X0233500Y0179829D01*
X0233500Y0178831D02*
X0081500Y0178831D01*
X0081500Y0177832D02*
X0233500Y0177832D01*
X0233500Y0176834D02*
X0081500Y0176834D01*
X0081500Y0175835D02*
X0233500Y0175835D01*
X0233500Y0174837D02*
X0081500Y0174837D01*
X0112614Y0164852D02*
X0233500Y0164852D01*
X0233500Y0165850D02*
X0113272Y0165850D01*
X0112290Y0163853D02*
X0233500Y0163853D01*
X0233500Y0162855D02*
X0112200Y0162855D01*
X0112200Y0161856D02*
X0233500Y0161856D01*
X0233500Y0160858D02*
X0112200Y0160858D01*
X0112200Y0159859D02*
X0233500Y0159859D01*
X0233500Y0158860D02*
X0112200Y0158860D01*
X0112200Y0157862D02*
X0233500Y0157862D01*
X0233500Y0156863D02*
X0112200Y0156863D01*
X0112200Y0155865D02*
X0233500Y0155865D01*
X0233500Y0154866D02*
X0112200Y0154866D01*
X0112200Y0153868D02*
X0233500Y0153868D01*
X0233500Y0152869D02*
X0112200Y0152869D01*
X0112200Y0151871D02*
X0233500Y0151871D01*
X0233500Y0150872D02*
X0112200Y0150872D01*
X0112200Y0149874D02*
X0233500Y0149874D01*
X0233500Y0148875D02*
X0112905Y0148875D01*
X0113903Y0147877D02*
X0233500Y0147877D01*
X0233500Y0146878D02*
X0114600Y0146878D01*
X0114600Y0145880D02*
X0233500Y0145880D01*
X0233500Y0144881D02*
X0114600Y0144881D01*
X0114600Y0143883D02*
X0233500Y0143883D01*
X0233500Y0142884D02*
X0114529Y0142884D01*
X0113531Y0141886D02*
X0233500Y0141886D01*
X0233500Y0166849D02*
X0120213Y0166849D01*
X0120581Y0167847D02*
X0233500Y0167847D01*
X0233500Y0168846D02*
X0120581Y0168846D01*
X0120581Y0169844D02*
X0233500Y0169844D01*
X0233500Y0170843D02*
X0120581Y0170843D01*
X0120581Y0171841D02*
X0233500Y0171841D01*
X0233500Y0172840D02*
X0120581Y0172840D01*
X0119661Y0173838D02*
X0233500Y0173838D01*
X0233500Y0186819D02*
X0189580Y0186819D01*
X0191694Y0187817D02*
X0233500Y0187817D01*
X0233500Y0188816D02*
X0192692Y0188816D01*
X0193691Y0189814D02*
X0233500Y0189814D01*
X0233500Y0190813D02*
X0194262Y0190813D01*
X0194675Y0191811D02*
X0233500Y0191811D01*
X0233500Y0192810D02*
X0195089Y0192810D01*
X0195299Y0193808D02*
X0233500Y0193808D01*
X0233500Y0194807D02*
X0195299Y0194807D01*
X0195299Y0195805D02*
X0233500Y0195805D01*
X0233500Y0196804D02*
X0195299Y0196804D01*
X0194891Y0197802D02*
X0233500Y0197802D01*
X0233500Y0198801D02*
X0194478Y0198801D01*
X0194064Y0199799D02*
X0233500Y0199799D01*
X0233500Y0200798D02*
X0193213Y0200798D01*
X0192215Y0201796D02*
X0233500Y0201796D01*
X0233500Y0202795D02*
X0190837Y0202795D01*
X0188427Y0203794D02*
X0233500Y0203794D01*
X0225457Y0226759D02*
X0195616Y0226759D01*
X0196226Y0227758D02*
X0225457Y0227758D01*
X0225457Y0228756D02*
X0196639Y0228756D01*
X0196750Y0229755D02*
X0225824Y0229755D01*
X0226238Y0230753D02*
X0196750Y0230753D01*
X0196485Y0231752D02*
X0227039Y0231752D01*
X0228038Y0232750D02*
X0196071Y0232750D01*
X0195243Y0233749D02*
X0233500Y0233749D01*
X0233500Y0234747D02*
X0193921Y0234747D01*
X0189079Y0234747D02*
X0103921Y0234747D01*
X0104474Y0234518D02*
X0102544Y0235317D01*
X0100456Y0235317D01*
X0098526Y0234518D01*
X0097049Y0233041D01*
X0096250Y0231112D01*
X0096250Y0229023D01*
X0097049Y0227094D01*
X0098526Y0225617D01*
X0100456Y0224817D01*
X0102544Y0224817D01*
X0104474Y0225617D01*
X0105951Y0227094D01*
X0106750Y0229023D01*
X0106750Y0231112D01*
X0105951Y0233041D01*
X0104474Y0234518D01*
X0104927Y0235196D02*
X0102703Y0236117D01*
X0100297Y0236117D01*
X0098073Y0235196D01*
X0096371Y0233494D01*
X0095450Y0231271D01*
X0095450Y0228864D01*
X0096371Y0226640D01*
X0098073Y0224938D01*
X0099291Y0224434D01*
X0096850Y0221994D01*
X0096850Y0220367D01*
X0101200Y0220367D01*
X0101200Y0219767D01*
X0101800Y0219767D01*
X0101800Y0215417D01*
X0103426Y0215417D01*
X0106150Y0218141D01*
X0106150Y0219767D01*
X0101800Y0219767D01*
X0101800Y0215417D01*
X0103426Y0215417D01*
X0106150Y0218141D01*
X0106150Y0219767D01*
X0101800Y0219767D01*
X0101200Y0219767D01*
X0101200Y0215417D01*
X0099574Y0215417D01*
X0096850Y0218141D01*
X0096850Y0219767D01*
X0101200Y0219767D01*
X0101200Y0215417D01*
X0099574Y0215417D01*
X0096850Y0218141D01*
X0096850Y0219767D01*
X0101200Y0219767D01*
X0101200Y0220367D01*
X0096850Y0220367D01*
X0096850Y0221994D01*
X0099574Y0224717D01*
X0101200Y0224717D01*
X0101200Y0220367D01*
X0101800Y0220367D01*
X0106150Y0220367D01*
X0106150Y0221994D01*
X0103426Y0224717D01*
X0101800Y0224717D01*
X0101800Y0220367D01*
X0101800Y0219767D01*
X0101800Y0220367D01*
X0106150Y0220367D01*
X0106150Y0221994D01*
X0103709Y0224434D01*
X0104927Y0224938D01*
X0106629Y0226640D01*
X0107550Y0228864D01*
X0107550Y0231271D01*
X0106629Y0233494D01*
X0104927Y0235196D01*
X0105376Y0234747D02*
X0121500Y0234747D01*
X0121500Y0233749D02*
X0106375Y0233749D01*
X0106071Y0232750D02*
X0186929Y0232750D01*
X0186515Y0231752D02*
X0106485Y0231752D01*
X0107351Y0231752D02*
X0121500Y0231752D01*
X0121500Y0232750D02*
X0106937Y0232750D01*
X0105243Y0233749D02*
X0187757Y0233749D01*
X0186250Y0230753D02*
X0106750Y0230753D01*
X0107550Y0230753D02*
X0121500Y0230753D01*
X0121500Y0229755D02*
X0107550Y0229755D01*
X0106750Y0229755D02*
X0186250Y0229755D01*
X0186361Y0228756D02*
X0106639Y0228756D01*
X0107505Y0228756D02*
X0121500Y0228756D01*
X0121500Y0227758D02*
X0107092Y0227758D01*
X0106226Y0227758D02*
X0186774Y0227758D01*
X0187384Y0226759D02*
X0105616Y0226759D01*
X0105749Y0225761D02*
X0121500Y0225761D01*
X0121500Y0226759D02*
X0106678Y0226759D01*
X0104618Y0225761D02*
X0188382Y0225761D01*
X0188620Y0223764D02*
X0104380Y0223764D01*
X0121500Y0223764D01*
X0121500Y0224762D02*
X0104502Y0224762D01*
X0105378Y0222765D02*
X0187622Y0222765D01*
X0186850Y0221767D02*
X0106150Y0221767D01*
X0121500Y0221767D01*
X0121500Y0222765D02*
X0105378Y0222765D01*
X0106150Y0220768D02*
X0186850Y0220768D01*
X0186850Y0218771D02*
X0106150Y0218771D01*
X0121500Y0218771D01*
X0121500Y0217773D02*
X0105781Y0217773D01*
X0187219Y0217773D01*
X0188217Y0216774D02*
X0104783Y0216774D01*
X0121500Y0216774D01*
X0121500Y0215776D02*
X0103784Y0215776D01*
X0189216Y0215776D01*
X0191200Y0219770D02*
X0101800Y0219770D01*
X0121500Y0219770D01*
X0121500Y0220768D02*
X0106150Y0220768D01*
X0101800Y0220768D02*
X0101200Y0220768D01*
X0101200Y0221767D02*
X0101800Y0221767D01*
X0101800Y0222765D02*
X0101200Y0222765D01*
X0101200Y0223764D02*
X0101800Y0223764D01*
X0098498Y0224762D02*
X0004400Y0224762D01*
X0004400Y0225761D02*
X0097251Y0225761D01*
X0097384Y0226759D02*
X0081500Y0226759D01*
X0081500Y0225761D02*
X0098382Y0225761D01*
X0096322Y0226759D02*
X0004400Y0226759D01*
X0004400Y0227758D02*
X0095908Y0227758D01*
X0096774Y0227758D02*
X0081500Y0227758D01*
X0081500Y0228756D02*
X0096361Y0228756D01*
X0095495Y0228756D02*
X0004400Y0228756D01*
X0004400Y0229755D02*
X0095450Y0229755D01*
X0096250Y0229755D02*
X0081500Y0229755D01*
X0081500Y0230753D02*
X0096250Y0230753D01*
X0095450Y0230753D02*
X0004400Y0230753D01*
X0004400Y0231752D02*
X0095649Y0231752D01*
X0096515Y0231752D02*
X0081500Y0231752D01*
X0081500Y0232750D02*
X0096929Y0232750D01*
X0096063Y0232750D02*
X0004400Y0232750D01*
X0004400Y0233749D02*
X0096625Y0233749D01*
X0097757Y0233749D02*
X0081500Y0233749D01*
X0081500Y0234747D02*
X0099079Y0234747D01*
X0099400Y0235746D02*
X0004400Y0235746D01*
X0004400Y0236744D02*
X0012555Y0236744D01*
X0011289Y0237269D02*
X0014670Y0235868D01*
X0018330Y0235868D01*
X0021711Y0237269D01*
X0024299Y0239856D01*
X0025699Y0243238D01*
X0025699Y0246897D01*
X0024299Y0250278D01*
X0021711Y0252866D01*
X0018330Y0254267D01*
X0014670Y0254267D01*
X0011289Y0252866D01*
X0008701Y0250278D01*
X0007301Y0246897D01*
X0007301Y0243238D01*
X0008701Y0239856D01*
X0011289Y0237269D01*
X0010815Y0237743D02*
X0004400Y0237743D01*
X0004400Y0238741D02*
X0009816Y0238741D01*
X0008818Y0239740D02*
X0004400Y0239740D01*
X0004400Y0240738D02*
X0008336Y0240738D01*
X0007922Y0241737D02*
X0004400Y0241737D01*
X0004400Y0242735D02*
X0007509Y0242735D01*
X0007301Y0243734D02*
X0004400Y0243734D01*
X0004400Y0244732D02*
X0007301Y0244732D01*
X0007301Y0245731D02*
X0004400Y0245731D01*
X0004400Y0246729D02*
X0007301Y0246729D01*
X0007645Y0247728D02*
X0004400Y0247728D01*
X0004400Y0248727D02*
X0008059Y0248727D01*
X0008472Y0249725D02*
X0004400Y0249725D01*
X0004400Y0250724D02*
X0009146Y0250724D01*
X0010145Y0251722D02*
X0004400Y0251722D01*
X0004400Y0252721D02*
X0011143Y0252721D01*
X0013348Y0253719D02*
X0004400Y0253719D01*
X0004400Y0254718D02*
X0121500Y0254718D01*
X0121500Y0255716D02*
X0004400Y0255716D01*
X0004400Y0256715D02*
X0121500Y0256715D01*
X0121500Y0253719D02*
X0019652Y0253719D01*
X0021856Y0252721D02*
X0121500Y0252721D01*
X0121500Y0251722D02*
X0022855Y0251722D01*
X0023854Y0250724D02*
X0121500Y0250724D01*
X0121500Y0249725D02*
X0024528Y0249725D01*
X0024941Y0248727D02*
X0121500Y0248727D01*
X0121500Y0247728D02*
X0025355Y0247728D01*
X0025699Y0246729D02*
X0121500Y0246729D01*
X0121500Y0245731D02*
X0025699Y0245731D01*
X0025699Y0244732D02*
X0121500Y0244732D01*
X0121500Y0243734D02*
X0025699Y0243734D01*
X0025491Y0242735D02*
X0121500Y0242735D01*
X0121500Y0241737D02*
X0025078Y0241737D01*
X0024664Y0240738D02*
X0121500Y0240738D01*
X0121500Y0239740D02*
X0024182Y0239740D01*
X0023184Y0238741D02*
X0121500Y0238741D01*
X0121500Y0237743D02*
X0022185Y0237743D01*
X0020445Y0236744D02*
X0121500Y0236744D01*
X0121500Y0235746D02*
X0103600Y0235746D01*
X0097624Y0234747D02*
X0004400Y0234747D01*
X0081500Y0235746D02*
X0233500Y0235746D01*
X0233500Y0236744D02*
X0081500Y0236744D01*
X0081500Y0237743D02*
X0233500Y0237743D01*
X0233500Y0238741D02*
X0081500Y0238741D01*
X0081500Y0239740D02*
X0233500Y0239740D01*
X0228463Y0240738D02*
X0081500Y0240738D01*
X0081500Y0241737D02*
X0227434Y0241737D01*
X0226694Y0242735D02*
X0081500Y0242735D01*
X0081500Y0243734D02*
X0226281Y0243734D01*
X0226047Y0244732D02*
X0081500Y0244732D01*
X0081500Y0245731D02*
X0226047Y0245731D01*
X0226156Y0246729D02*
X0081500Y0246729D01*
X0081500Y0247728D02*
X0226570Y0247728D01*
X0227133Y0248727D02*
X0081500Y0248727D01*
X0081500Y0249725D02*
X0228131Y0249725D01*
X0230146Y0250724D02*
X0081500Y0250724D01*
X0081500Y0251722D02*
X0233500Y0251722D01*
X0233500Y0250724D02*
X0232854Y0250724D01*
X0233500Y0252721D02*
X0081500Y0252721D01*
X0081500Y0253719D02*
X0233500Y0253719D01*
X0233500Y0254718D02*
X0081500Y0254718D01*
X0081500Y0255716D02*
X0233500Y0255716D01*
X0233500Y0256715D02*
X0081500Y0256715D01*
X0101200Y0218771D02*
X0101800Y0218771D01*
X0101200Y0218771D01*
X0101200Y0217773D02*
X0101800Y0217773D01*
X0101200Y0217773D01*
X0101200Y0216774D02*
X0101800Y0216774D01*
X0101200Y0216774D01*
X0101200Y0215776D02*
X0101800Y0215776D01*
X0101200Y0215776D01*
X0119328Y0174837D02*
X0120008Y0174837D01*
X0191200Y0220768D02*
X0191800Y0220768D01*
X0191800Y0221767D02*
X0191200Y0221767D01*
X0191200Y0222765D02*
X0191800Y0222765D01*
X0191800Y0223764D02*
X0191200Y0223764D01*
X0142650Y0090962D02*
X0138788Y0090962D01*
X0065600Y0031051D02*
X0065547Y0031051D01*
X0081500Y0029054D02*
X0082000Y0029054D01*
X0082000Y0028056D02*
X0081500Y0028056D01*
X0081500Y0027057D02*
X0082000Y0027057D01*
X0082000Y0026058D02*
X0081500Y0026058D01*
X0081500Y0025060D02*
X0082000Y0025060D01*
X0082000Y0024061D02*
X0081500Y0024061D01*
X0081500Y0023063D02*
X0082000Y0023063D01*
X0083553Y0023063D02*
X0233500Y0023063D01*
X0233500Y0024061D02*
X0084858Y0024061D01*
X0085528Y0025060D02*
X0233500Y0025060D01*
X0233500Y0026058D02*
X0085896Y0026058D01*
X0086000Y0027057D02*
X0233500Y0027057D01*
X0233500Y0028056D02*
X0086000Y0028056D01*
X0086000Y0029054D02*
X0233500Y0029054D01*
M02*
