G75*
%MOIN*%
%OFA0B0*%
%FSLAX25Y25*%
%IPPOS*%
%LPD*%
%AMOC8*
5,1,8,0,0,1.08239X$1,22.5*
%
%ADD10C,0.13398*%
%ADD11R,0.06706X0.05918*%
%ADD12R,0.01784X0.06706*%
%ADD13R,0.06706X0.01784*%
%ADD14R,0.08674X0.06706*%
%ADD15R,0.08674X0.15761*%
%ADD16C,0.06800*%
%ADD17R,0.07099X0.07887*%
%ADD18R,0.05918X0.06706*%
%ADD19R,0.09461X0.07099*%
%ADD20R,0.04343X0.03950*%
%ADD21OC8,0.07100*%
%ADD22C,0.07100*%
%ADD23OC8,0.06800*%
%ADD24R,0.05524X0.04343*%
%ADD25R,0.07887X0.06312*%
%ADD26C,0.06706*%
%ADD27C,0.07887*%
%ADD28R,0.08674X0.11430*%
%ADD29R,0.05524X0.05524*%
%ADD30R,0.07099X0.06312*%
%ADD31R,0.07493X0.04737*%
%ADD32R,0.04400X0.07800*%
%ADD33R,0.10800X0.05800*%
D10*
X0186500Y0195067D03*
X0016500Y0245067D03*
X0361500Y0200067D03*
D11*
X0311500Y0183808D03*
X0311500Y0176327D03*
X0301500Y0163808D03*
X0301500Y0156327D03*
X0311500Y0143808D03*
X0311500Y0136327D03*
X0301500Y0123808D03*
X0301500Y0116327D03*
X0311500Y0103808D03*
X0311500Y0096327D03*
X0301500Y0083808D03*
X0301500Y0076327D03*
X0311500Y0063808D03*
X0311500Y0056327D03*
X0301500Y0043808D03*
X0301500Y0036327D03*
X0201500Y0037577D03*
X0201500Y0045058D03*
X0201500Y0057577D03*
X0201500Y0065058D03*
X0201500Y0077577D03*
X0201500Y0085058D03*
X0201500Y0097577D03*
X0201500Y0105058D03*
X0201500Y0117577D03*
X0201500Y0125058D03*
X0201500Y0137577D03*
X0201500Y0145058D03*
X0201500Y0157577D03*
X0201500Y0165058D03*
X0201500Y0177577D03*
X0201500Y0185058D03*
X0109500Y0133808D03*
X0109500Y0126327D03*
X0116500Y0113808D03*
X0116500Y0106327D03*
X0051500Y0103808D03*
X0041500Y0103808D03*
X0041500Y0096327D03*
X0051500Y0096327D03*
X0051500Y0083808D03*
X0041500Y0083808D03*
X0041500Y0076327D03*
X0051500Y0076327D03*
X0051500Y0063808D03*
X0041500Y0063808D03*
X0041500Y0056327D03*
X0051500Y0056327D03*
X0051500Y0043808D03*
X0051500Y0036327D03*
X0041500Y0036327D03*
X0041500Y0043808D03*
X0071500Y0046327D03*
X0071500Y0053808D03*
X0051500Y0116327D03*
X0051500Y0123808D03*
X0041500Y0123808D03*
X0041500Y0116327D03*
X0041500Y0136327D03*
X0051500Y0136327D03*
X0051500Y0143808D03*
X0041500Y0143808D03*
X0041500Y0156327D03*
X0051500Y0156327D03*
X0051500Y0163808D03*
X0041500Y0163808D03*
X0041500Y0176327D03*
X0051500Y0176327D03*
X0051500Y0183808D03*
X0041500Y0183808D03*
X0071500Y0183808D03*
X0071500Y0176327D03*
X0071500Y0196327D03*
X0071500Y0203808D03*
D12*
X0085673Y0101997D03*
X0087642Y0101997D03*
X0089610Y0101997D03*
X0091579Y0101997D03*
X0093547Y0101997D03*
X0095516Y0101997D03*
X0097484Y0101997D03*
X0099453Y0101997D03*
X0101421Y0101997D03*
X0103390Y0101997D03*
X0105358Y0101997D03*
X0107327Y0101997D03*
X0107327Y0068138D03*
X0105358Y0068138D03*
X0103390Y0068138D03*
X0101421Y0068138D03*
X0099453Y0068138D03*
X0097484Y0068138D03*
X0095516Y0068138D03*
X0093547Y0068138D03*
X0091579Y0068138D03*
X0089610Y0068138D03*
X0087642Y0068138D03*
X0085673Y0068138D03*
D13*
X0079571Y0074241D03*
X0079571Y0076209D03*
X0079571Y0078178D03*
X0079571Y0080146D03*
X0079571Y0082115D03*
X0079571Y0084083D03*
X0079571Y0086052D03*
X0079571Y0088020D03*
X0079571Y0089989D03*
X0079571Y0091957D03*
X0079571Y0093926D03*
X0079571Y0095894D03*
X0113429Y0095894D03*
X0113429Y0093926D03*
X0113429Y0091957D03*
X0113429Y0089989D03*
X0113429Y0088020D03*
X0113429Y0086052D03*
X0113429Y0084083D03*
X0113429Y0082115D03*
X0113429Y0080146D03*
X0113429Y0078178D03*
X0113429Y0076209D03*
X0113429Y0074241D03*
D14*
X0148902Y0216012D03*
X0148902Y0225067D03*
X0148902Y0234123D03*
D15*
X0124098Y0225067D03*
D16*
X0014500Y0035067D02*
X0008500Y0035067D01*
X0008500Y0045067D02*
X0014500Y0045067D01*
X0014500Y0055067D02*
X0008500Y0055067D01*
X0008500Y0065067D02*
X0014500Y0065067D01*
X0014500Y0075067D02*
X0008500Y0075067D01*
X0008500Y0085067D02*
X0014500Y0085067D01*
X0014500Y0095067D02*
X0008500Y0095067D01*
X0008500Y0105067D02*
X0014500Y0105067D01*
X0014500Y0115067D02*
X0008500Y0115067D01*
X0008500Y0125067D02*
X0014500Y0125067D01*
X0014500Y0135067D02*
X0008500Y0135067D01*
X0008500Y0145067D02*
X0014500Y0145067D01*
X0014500Y0155067D02*
X0008500Y0155067D01*
X0008500Y0165067D02*
X0014500Y0165067D01*
X0014500Y0175067D02*
X0008500Y0175067D01*
X0008500Y0185067D02*
X0014500Y0185067D01*
X0123500Y0070067D02*
X0129500Y0070067D01*
X0129500Y0060067D02*
X0123500Y0060067D01*
X0143500Y0060067D02*
X0149500Y0060067D01*
X0149500Y0070067D02*
X0143500Y0070067D01*
X0081500Y0033067D02*
X0081500Y0027067D01*
X0071500Y0027067D02*
X0071500Y0033067D01*
X0271500Y0217067D02*
X0271500Y0223067D01*
X0281500Y0223067D02*
X0281500Y0217067D01*
X0291500Y0217067D02*
X0291500Y0223067D01*
X0358500Y0185067D02*
X0364500Y0185067D01*
X0364500Y0175067D02*
X0358500Y0175067D01*
X0358500Y0165067D02*
X0364500Y0165067D01*
X0364500Y0155067D02*
X0358500Y0155067D01*
X0358500Y0145067D02*
X0364500Y0145067D01*
X0364500Y0135067D02*
X0358500Y0135067D01*
X0358500Y0125067D02*
X0364500Y0125067D01*
X0364500Y0115067D02*
X0358500Y0115067D01*
X0358500Y0105067D02*
X0364500Y0105067D01*
X0364500Y0095067D02*
X0358500Y0095067D01*
X0358500Y0085067D02*
X0364500Y0085067D01*
X0364500Y0075067D02*
X0358500Y0075067D01*
X0358500Y0065067D02*
X0364500Y0065067D01*
X0364500Y0055067D02*
X0358500Y0055067D01*
X0358500Y0045067D02*
X0364500Y0045067D01*
X0364500Y0035067D02*
X0358500Y0035067D01*
D17*
X0102012Y0175067D03*
X0090988Y0175067D03*
X0090988Y0190067D03*
X0102012Y0190067D03*
D18*
X0050240Y0215067D03*
X0042760Y0215067D03*
X0040240Y0200067D03*
X0032760Y0200067D03*
X0089012Y0137567D03*
X0096492Y0137567D03*
X0096492Y0128312D03*
X0089012Y0128312D03*
X0060740Y0027067D03*
X0053260Y0027067D03*
X0262760Y0030067D03*
X0270240Y0030067D03*
X0270240Y0040067D03*
X0262760Y0040067D03*
X0262760Y0050067D03*
X0270240Y0050067D03*
X0270240Y0060067D03*
X0262760Y0060067D03*
X0262760Y0070067D03*
X0270240Y0070067D03*
X0270240Y0080067D03*
X0262760Y0080067D03*
X0262760Y0090067D03*
X0270240Y0090067D03*
X0270240Y0100067D03*
X0262760Y0100067D03*
X0262760Y0110067D03*
X0270240Y0110067D03*
X0270240Y0120067D03*
X0262760Y0120067D03*
X0262760Y0130067D03*
X0270240Y0130067D03*
X0270240Y0140067D03*
X0262760Y0140067D03*
X0262760Y0150067D03*
X0270240Y0150067D03*
X0270240Y0160067D03*
X0262760Y0160067D03*
X0262760Y0170067D03*
X0270240Y0170067D03*
X0270240Y0180067D03*
X0262760Y0180067D03*
D19*
X0171500Y0217390D03*
X0171500Y0232745D03*
D20*
X0060437Y0208808D03*
X0060437Y0201327D03*
X0052563Y0205067D03*
D21*
X0101500Y0220067D03*
X0191500Y0220067D03*
X0291500Y0200067D03*
D22*
X0281500Y0200067D03*
X0191500Y0230067D03*
X0101500Y0230067D03*
D23*
X0109500Y0145067D03*
D24*
X0281776Y0138808D03*
X0281776Y0131327D03*
X0291224Y0135067D03*
X0281776Y0118808D03*
X0281776Y0111327D03*
X0291224Y0115067D03*
X0281776Y0098808D03*
X0281776Y0091327D03*
X0291224Y0095067D03*
X0281776Y0078808D03*
X0281776Y0071327D03*
X0291224Y0075067D03*
X0281776Y0058808D03*
X0281776Y0051327D03*
X0291224Y0055067D03*
X0281776Y0038808D03*
X0281776Y0031327D03*
X0291224Y0035067D03*
X0281776Y0151327D03*
X0281776Y0158808D03*
X0291224Y0155067D03*
X0281776Y0171327D03*
X0281776Y0178808D03*
X0291224Y0175067D03*
D25*
X0336000Y0166760D03*
X0346500Y0173375D03*
X0346500Y0186760D03*
X0336000Y0153375D03*
X0346500Y0146760D03*
X0346500Y0133375D03*
X0336000Y0126760D03*
X0336000Y0113375D03*
X0346500Y0106760D03*
X0346500Y0093375D03*
X0336500Y0086760D03*
X0336500Y0073375D03*
X0346500Y0066760D03*
X0346500Y0053375D03*
X0336500Y0046760D03*
X0336500Y0033375D03*
D26*
X0331500Y0245382D03*
X0231500Y0245382D03*
D27*
X0231500Y0227666D03*
X0331500Y0227666D03*
D28*
X0309846Y0221367D03*
X0309846Y0245382D03*
X0353154Y0245382D03*
X0353154Y0221367D03*
X0253154Y0221367D03*
X0253154Y0245382D03*
X0209846Y0245382D03*
X0209846Y0221367D03*
D29*
X0081500Y0054201D03*
X0081500Y0045934D03*
D30*
X0316500Y0045579D03*
X0326500Y0054556D03*
X0326500Y0065579D03*
X0316500Y0074556D03*
X0316500Y0085579D03*
X0326500Y0094556D03*
X0326500Y0105579D03*
X0316500Y0114556D03*
X0316500Y0125579D03*
X0326500Y0134556D03*
X0326500Y0145579D03*
X0316500Y0154556D03*
X0316500Y0165579D03*
X0326500Y0174556D03*
X0326500Y0185579D03*
X0316500Y0034556D03*
D31*
X0143902Y0187587D03*
X0143902Y0202548D03*
X0119098Y0202548D03*
X0119098Y0187587D03*
D32*
X0172625Y0181317D03*
X0169500Y0111317D03*
X0164500Y0111317D03*
X0159500Y0111317D03*
X0154500Y0111317D03*
X0149500Y0111317D03*
X0144500Y0111317D03*
X0139500Y0111317D03*
X0134500Y0111317D03*
X0129500Y0111317D03*
D33*
X0216500Y0115067D03*
X0216500Y0105067D03*
X0216500Y0095067D03*
X0216500Y0085067D03*
X0216500Y0075067D03*
X0216500Y0065067D03*
X0216500Y0055067D03*
X0216500Y0045067D03*
X0216500Y0035067D03*
X0251500Y0035067D03*
X0251500Y0045067D03*
X0251500Y0055067D03*
X0251500Y0065067D03*
X0251500Y0075067D03*
X0251500Y0085067D03*
X0251500Y0095067D03*
X0251500Y0105067D03*
X0251500Y0115067D03*
X0251500Y0125067D03*
X0251500Y0135067D03*
X0251500Y0145067D03*
X0251500Y0155067D03*
X0251500Y0165067D03*
X0251500Y0175067D03*
X0251500Y0185067D03*
X0216500Y0185067D03*
X0216500Y0175067D03*
X0216500Y0165067D03*
X0216500Y0155067D03*
X0216500Y0145067D03*
X0216500Y0135067D03*
X0216500Y0125067D03*
M02*
