G75*
%MOIN*%
%OFA0B0*%
%FSLAX25Y25*%
%IPPOS*%
%LPD*%
%AMOC8*
5,1,8,0,0,1.08239X$1,22.5*
%
%ADD10R,0.05906X0.05118*%
%ADD11R,0.00984X0.05906*%
%ADD12R,0.05906X0.00984*%
%ADD13R,0.07874X0.05906*%
%ADD14R,0.07874X0.14961*%
%ADD15R,0.06299X0.07087*%
%ADD16R,0.05118X0.05906*%
%ADD17R,0.08661X0.06299*%
%ADD18R,0.03543X0.03150*%
%ADD19R,0.04724X0.03543*%
%ADD20R,0.07087X0.05512*%
%ADD21R,0.07874X0.10630*%
%ADD22R,0.04724X0.04724*%
%ADD23R,0.06299X0.05512*%
%ADD24R,0.06693X0.03937*%
%ADD25R,0.03600X0.07000*%
%ADD26R,0.10000X0.05000*%
D10*
X0041500Y0036327D03*
X0041500Y0043808D03*
X0051500Y0043808D03*
X0051500Y0036327D03*
X0071500Y0046327D03*
X0071500Y0053808D03*
X0051500Y0056327D03*
X0041500Y0056327D03*
X0041500Y0063808D03*
X0051500Y0063808D03*
X0051500Y0076327D03*
X0041500Y0076327D03*
X0041500Y0083808D03*
X0051500Y0083808D03*
X0051500Y0096327D03*
X0041500Y0096327D03*
X0041500Y0103808D03*
X0051500Y0103808D03*
X0051500Y0116327D03*
X0051500Y0123808D03*
X0041500Y0123808D03*
X0041500Y0116327D03*
X0041500Y0136327D03*
X0051500Y0136327D03*
X0051500Y0143808D03*
X0041500Y0143808D03*
X0041500Y0156327D03*
X0051500Y0156327D03*
X0051500Y0163808D03*
X0041500Y0163808D03*
X0041500Y0176327D03*
X0051500Y0176327D03*
X0051500Y0183808D03*
X0041500Y0183808D03*
X0071500Y0183808D03*
X0071500Y0176327D03*
X0071500Y0196327D03*
X0071500Y0203808D03*
X0109500Y0133808D03*
X0109500Y0126327D03*
X0116500Y0113808D03*
X0116500Y0106327D03*
X0201500Y0105058D03*
X0201500Y0097577D03*
X0201500Y0085058D03*
X0201500Y0077577D03*
X0201500Y0065058D03*
X0201500Y0057577D03*
X0201500Y0045058D03*
X0201500Y0037577D03*
X0301500Y0036327D03*
X0301500Y0043808D03*
X0311500Y0056327D03*
X0311500Y0063808D03*
X0301500Y0076327D03*
X0301500Y0083808D03*
X0311500Y0096327D03*
X0311500Y0103808D03*
X0301500Y0116327D03*
X0301500Y0123808D03*
X0311500Y0136327D03*
X0311500Y0143808D03*
X0301500Y0156327D03*
X0301500Y0163808D03*
X0311500Y0176327D03*
X0311500Y0183808D03*
X0201500Y0185058D03*
X0201500Y0177577D03*
X0201500Y0165058D03*
X0201500Y0157577D03*
X0201500Y0145058D03*
X0201500Y0137577D03*
X0201500Y0125058D03*
X0201500Y0117577D03*
D11*
X0107327Y0101997D03*
X0105358Y0101997D03*
X0103390Y0101997D03*
X0101421Y0101997D03*
X0099453Y0101997D03*
X0097484Y0101997D03*
X0095516Y0101997D03*
X0093547Y0101997D03*
X0091579Y0101997D03*
X0089610Y0101997D03*
X0087642Y0101997D03*
X0085673Y0101997D03*
X0085673Y0068138D03*
X0087642Y0068138D03*
X0089610Y0068138D03*
X0091579Y0068138D03*
X0093547Y0068138D03*
X0095516Y0068138D03*
X0097484Y0068138D03*
X0099453Y0068138D03*
X0101421Y0068138D03*
X0103390Y0068138D03*
X0105358Y0068138D03*
X0107327Y0068138D03*
D12*
X0113429Y0074241D03*
X0113429Y0076209D03*
X0113429Y0078178D03*
X0113429Y0080146D03*
X0113429Y0082115D03*
X0113429Y0084083D03*
X0113429Y0086052D03*
X0113429Y0088020D03*
X0113429Y0089989D03*
X0113429Y0091957D03*
X0113429Y0093926D03*
X0113429Y0095894D03*
X0079571Y0095894D03*
X0079571Y0093926D03*
X0079571Y0091957D03*
X0079571Y0089989D03*
X0079571Y0088020D03*
X0079571Y0086052D03*
X0079571Y0084083D03*
X0079571Y0082115D03*
X0079571Y0080146D03*
X0079571Y0078178D03*
X0079571Y0076209D03*
X0079571Y0074241D03*
D13*
X0148902Y0216012D03*
X0148902Y0225067D03*
X0148902Y0234123D03*
D14*
X0124098Y0225067D03*
D15*
X0102012Y0190067D03*
X0090988Y0190067D03*
X0090988Y0175067D03*
X0102012Y0175067D03*
D16*
X0096492Y0137567D03*
X0089012Y0137567D03*
X0089012Y0128312D03*
X0096492Y0128312D03*
X0040240Y0200067D03*
X0032760Y0200067D03*
X0042760Y0215067D03*
X0050240Y0215067D03*
X0262760Y0180067D03*
X0270240Y0180067D03*
X0270240Y0170067D03*
X0262760Y0170067D03*
X0262760Y0160067D03*
X0270240Y0160067D03*
X0270240Y0150067D03*
X0262760Y0150067D03*
X0262760Y0140067D03*
X0270240Y0140067D03*
X0270240Y0130067D03*
X0262760Y0130067D03*
X0262760Y0120067D03*
X0270240Y0120067D03*
X0270240Y0110067D03*
X0262760Y0110067D03*
X0262760Y0100067D03*
X0270240Y0100067D03*
X0270240Y0090067D03*
X0262760Y0090067D03*
X0262760Y0080067D03*
X0270240Y0080067D03*
X0270240Y0070067D03*
X0262760Y0070067D03*
X0262760Y0060067D03*
X0270240Y0060067D03*
X0270240Y0050067D03*
X0262760Y0050067D03*
X0262760Y0040067D03*
X0270240Y0040067D03*
X0270240Y0030067D03*
X0262760Y0030067D03*
X0060740Y0027067D03*
X0053260Y0027067D03*
D17*
X0171500Y0217390D03*
X0171500Y0232745D03*
D18*
X0060437Y0208808D03*
X0060437Y0201327D03*
X0052563Y0205067D03*
D19*
X0281776Y0178808D03*
X0281776Y0171327D03*
X0291224Y0175067D03*
X0281776Y0158808D03*
X0281776Y0151327D03*
X0291224Y0155067D03*
X0281776Y0138808D03*
X0281776Y0131327D03*
X0291224Y0135067D03*
X0281776Y0118808D03*
X0281776Y0111327D03*
X0291224Y0115067D03*
X0281776Y0098808D03*
X0281776Y0091327D03*
X0291224Y0095067D03*
X0281776Y0078808D03*
X0281776Y0071327D03*
X0291224Y0075067D03*
X0281776Y0058808D03*
X0281776Y0051327D03*
X0291224Y0055067D03*
X0281776Y0038808D03*
X0281776Y0031327D03*
X0291224Y0035067D03*
D20*
X0336500Y0033375D03*
X0336500Y0046760D03*
X0346500Y0053375D03*
X0346500Y0066760D03*
X0336500Y0073375D03*
X0336500Y0086760D03*
X0346500Y0093375D03*
X0346500Y0106760D03*
X0336000Y0113375D03*
X0336000Y0126760D03*
X0346500Y0133375D03*
X0346500Y0146760D03*
X0336000Y0153375D03*
X0336000Y0166760D03*
X0346500Y0173375D03*
X0346500Y0186760D03*
D21*
X0353154Y0221367D03*
X0353154Y0245382D03*
X0309846Y0245382D03*
X0309846Y0221367D03*
X0253154Y0221367D03*
X0253154Y0245382D03*
X0209846Y0245382D03*
X0209846Y0221367D03*
D22*
X0081500Y0054201D03*
X0081500Y0045934D03*
D23*
X0316500Y0045579D03*
X0326500Y0054556D03*
X0326500Y0065579D03*
X0316500Y0074556D03*
X0316500Y0085579D03*
X0326500Y0094556D03*
X0326500Y0105579D03*
X0316500Y0114556D03*
X0316500Y0125579D03*
X0326500Y0134556D03*
X0326500Y0145579D03*
X0316500Y0154556D03*
X0316500Y0165579D03*
X0326500Y0174556D03*
X0326500Y0185579D03*
X0316500Y0034556D03*
D24*
X0143902Y0187587D03*
X0143902Y0202548D03*
X0119098Y0202548D03*
X0119098Y0187587D03*
D25*
X0172625Y0181317D03*
X0169500Y0111317D03*
X0164500Y0111317D03*
X0159500Y0111317D03*
X0154500Y0111317D03*
X0149500Y0111317D03*
X0144500Y0111317D03*
X0139500Y0111317D03*
X0134500Y0111317D03*
X0129500Y0111317D03*
D26*
X0216500Y0115067D03*
X0216500Y0105067D03*
X0216500Y0095067D03*
X0216500Y0085067D03*
X0216500Y0075067D03*
X0216500Y0065067D03*
X0216500Y0055067D03*
X0216500Y0045067D03*
X0216500Y0035067D03*
X0251500Y0035067D03*
X0251500Y0045067D03*
X0251500Y0055067D03*
X0251500Y0065067D03*
X0251500Y0075067D03*
X0251500Y0085067D03*
X0251500Y0095067D03*
X0251500Y0105067D03*
X0251500Y0115067D03*
X0251500Y0125067D03*
X0251500Y0135067D03*
X0251500Y0145067D03*
X0251500Y0155067D03*
X0251500Y0165067D03*
X0251500Y0175067D03*
X0251500Y0185067D03*
X0216500Y0185067D03*
X0216500Y0175067D03*
X0216500Y0165067D03*
X0216500Y0155067D03*
X0216500Y0145067D03*
X0216500Y0135067D03*
X0216500Y0125067D03*
M02*
